<?xml version="1.0" encoding="UTF-8"?>
<!DOCTYPE svg PUBLIC "-//W3C//DTD SVG 1.1//EN" "http://www.w3.org/Graphics/SVG/1.1/DTD/svg11.dtd">
<!-- Creator: CorelDRAW 2021 (64-Bit) -->
<svg xmlns="http://www.w3.org/2000/svg" xml:space="preserve" width="525px" height="238px" version="1.1" shape-rendering="geometricPrecision" text-rendering="geometricPrecision" image-rendering="optimizeQuality" fill-rule="evenodd" clip-rule="evenodd"
viewBox="0 0 525 238"
 xmlns:xlink="http://www.w3.org/1999/xlink"
 xmlns:xodm="http://www.corel.com/coreldraw/odm/2003">
 <g id="Capa_x0020_1">
  <metadata id="CorelCorpID_0Corel-Layer"/>
  <g id="_2800629728192">
   <path fill="#FFFFFF" fill-rule="nonzero" d="M3.966 123.013c0.369,-0.066 0.76,-0.014 0.806,0.222 0.046,0.237 0.291,0.193 0.637,0.008 0.346,-0.184 0.492,-0.088 0.461,0.407 -0.208,0.893 0.835,1.684 1.818,1.508 0.369,-0.067 1.959,-1.697 3.358,-3.661 2.644,-3.41 8.515,-9.846 8.806,-9.653 0.146,0.096 -0.27,1.882 -0.763,3.928 -2.55,11.098 -2.74,17.981 -0.608,21.756 1.296,2.091 5.639,5.469 6.868,5.248 0.368,-0.066 1.174,0.156 1.78,0.659 1.458,0.961 2.441,0.784 3.24,-0.338 0.577,-0.959 1.525,-5.899 2.136,-11.268 0.511,-5.228 3.046,-17.057 5.44,-25.681 1.81,-7.051 2.164,-7.849 3.401,-8.682 1.882,-1.439 11.329,-5.826 17.342,-8.252 7.665,-3.088 23.861,-8.077 23.999,-7.368 0.023,0.119 -1.017,4.586 -2.242,10.065 -2.659,11.851 -6.638,25.407 -9.454,32.517 -2.738,6.851 -2.792,7.228 -2.271,8.602 0.521,1.373 3.474,4.145 3.92,3.82 0.1,-0.14 0.637,0.008 1.074,0.297 0.438,0.288 1.504,1.197 2.548,1.988 1.504,1.197 1.896,1.25 3.37,0.985 0.983,-0.177 1.92,-0.59 2.442,-1.173 2.167,-2.59 7.454,-18.583 10.905,-32.9 1.741,-7.406 4.585,-22.225 4.741,-24.699 0.131,-0.635 0.262,-1.27 0.362,-1.411 0.1,-0.14 1.62,-0.169 3.309,0.018 1.689,0.185 3.332,0.135 3.823,0.047 0.492,-0.089 1.444,0.23 2.05,0.732l1.189 0.888 0.7 -0.982c0.499,-0.701 0.53,-1.197 0.147,-1.861 -0.452,-1.02 -3.506,-3.651 -7.32,-6.268l-2.916 -1.922 0.148 -1.861c0.396,-5.819 0.438,-10.841 0.364,-14.497 -0.272,-5.332 -1.809,-13.25 -3.235,-16.663 -1.402,-3.294 -4.294,-7.055 -7.033,-9.376 -1.212,-1.006 -2.908,-2.535 -3.705,-3.371 -2.946,-3.384 -7.337,-5.042 -11.828,-4.602 -7.072,0.904 -13.418,6.201 -22.81,19.384 -4.973,7.131 -8.81,13.568 -12.993,22.146 -3.322,6.467 -8.206,17.984 -10.168,23.596 -1.455,4.296 -1.931,5.116 -3.068,5.809 -6.23,3.932 -14.803,10.853 -18.315,15.031 -4.657,5.483 -6.449,9.351 -5.784,12.779 0.436,2.245 2.101,4.27 3.329,4.049zm25.823 15.786c-0.185,1.011 -0.37,2.023 -0.47,2.163 -0.2,0.281 -0.215,-0.45 -0.052,-1.58 0.162,-1.13 0.224,-2.12 0.178,-2.356 -0.046,-0.236 0.077,-0.258 0.223,-0.162 0.146,0.096 0.183,0.946 0.121,1.935zm2.509 -17.206c-0.655,3.176 -1.435,8.329 -1.921,11.719 -0.255,2.614 -0.563,3.648 -0.747,2.702 -0.252,-1.299 2.409,-17.065 2.846,-16.776 0.146,0.096 -0.039,1.107 -0.178,2.355zm43.813 4.973c2.8,-7.841 6.765,-22.129 9.509,-34.851 1.509,-6.631 2.041,-7.826 0.907,-1.875 -2.552,13.055 -6.032,25.91 -9.209,34.43 -1.07,3.005 -2.208,5.655 -2.308,5.795 -0.223,0.162 0.239,-1.388 1.101,-3.499zm-2.347 6.903c-0.131,0.635 -0.355,0.797 -0.446,0.324 -0.046,-0.236 0.031,-0.494 0.254,-0.656 0.2,-0.281 0.246,-0.045 0.192,0.332zm4.468 -0.558c-0.653,1.218 -1.23,2.177 -1.475,2.222 -0.246,0.044 -0.115,-0.591 0.362,-1.411 1.66,-3.233 5.146,-12.787 7.355,-20.399 1.286,-4.511 2.364,-8.129 2.387,-8.011 0.091,0.472 -2.003,8.676 -3.566,13.726 -1.693,5.685 -3.602,10.92 -5.063,13.873zm6.738 -5.246c-0.177,0.399 -0.354,0.797 -0.477,0.819 -0.123,0.022 -0.069,-0.354 0.108,-0.753 0.031,-0.495 0.331,-0.915 0.454,-0.937 0.123,-0.023 0.069,0.354 -0.085,0.871zm2.278 -7.258c-0.847,2.843 -1.563,5.05 -1.686,5.072 -0.245,0.044 0.062,-0.989 0.909,-3.831 0.816,-2.349 3.843,-14.266 5.407,-21.273 0.339,-1.529 0.723,-2.821 0.869,-2.725 0.438,0.289 -3.167,15.122 -5.499,22.757zm-0.952 -20.619c-2.811,12.367 -6.698,24.439 -10.644,33.586 -0.608,1.455 -1.23,2.178 -1.345,1.587 -0.023,-0.118 0.662,-1.831 1.424,-3.802 2.199,-5.043 4.062,-10.514 6.556,-19.278 2.001,-6.719 5.845,-22.941 6.979,-28.893 0.139,-1.247 0.469,-2.163 0.616,-2.067 0.314,0.311 -1.429,9.674 -3.586,18.867zm-2.834 -67c1.881,0.519 3.332,9.308 3.102,19.255 -0.011,4.527 -0.839,13.359 -1.372,16.512l-0.308 1.034 -9.66 1.979c-9.537,1.958 -13.646,3.063 -22.293,6.328 -5.96,2.049 -5.691,2.123 -4.929,0.152 1.015,-2.628 4.822,-10.528 7.183,-14.743 10.279,-19.09 22.466,-32.286 28.277,-30.517zm-35.849 41.294c-0.353,0.797 -0.699,0.981 -0.745,0.745 -0.023,-0.118 0.177,-0.398 0.599,-0.842 0.523,-0.582 0.523,-0.582 0.146,0.097zm-0.601 -6.374c0.522,-0.583 0.522,-0.583 0.146,0.096 -0.177,0.399 -0.477,0.82 -0.477,0.82 -0.369,0.066 -0.192,-0.333 0.331,-0.916zm1.707 -2.997c-0.477,0.819 -0.7,0.982 -0.746,0.746 -0.022,-0.119 0.154,-0.518 0.477,-0.82 0.645,-0.605 0.645,-0.605 0.269,0.074zm0.185 -1.012c-0.023,-0.118 0.154,-0.517 0.476,-0.819 0.523,-0.583 0.645,-0.605 0.269,0.074 -0.477,0.82 -0.7,0.982 -0.745,0.745zm2.414 -4.591l1.145 -1.307 -0.753 1.358c-0.477,0.82 -0.854,1.499 -1.1,1.543 -0.491,0.089 -0.414,-0.17 0.708,-1.594zm3.559 -5.898c0.223,-0.163 -0.131,0.635 -0.807,1.735 -0.654,1.217 -1.23,2.177 -1.353,2.199 -0.246,0.044 1.615,-3.469 2.16,-3.934zm10.27 -16.521c-8.176,10.274 -15.095,21.79 -22.348,38.135 -2.123,4.784 -4.015,8.793 -4.26,8.837 -0.615,0.11 4.469,-11.687 8.876,-20.428 4.959,-9.819 10.939,-18.964 15.719,-24.47 3.312,-3.897 4.38,-4.945 2.013,-2.074zm-3.885 0.943c0.522,-0.583 -0.853,1.498 -3.052,4.584 -6.571,9.374 -12.322,19.701 -18.014,32.953 -1.669,3.847 -3.238,7.553 -3.47,8.328 -0.353,0.798 -0.753,1.358 -1.121,1.424 -0.737,0.133 5.031,-13.377 9.737,-22.539 4.329,-8.482 12.262,-20.669 15.92,-24.75zm-19.401 28.433c2.446,-5.087 7.42,-14.174 7.966,-14.639 0.223,-0.162 -0.908,1.875 -2.392,4.71 -3.136,5.455 -9.143,18.397 -11.704,24.85 -1.524,3.942 -2.331,5.677 -2.446,5.086 -0.137,-0.709 5.377,-13.562 8.576,-20.007zm-4.371 33.805c0.023,0.119 -0.448,2.282 -1.217,4.866 -0.793,2.466 -1.432,4.415 -1.455,4.297 -0.114,-0.59 2.403,-9.237 2.672,-9.163zm-2.58 9.636c0.023,0.118 -0.47,2.164 -1.04,4.467 -0.986,4.091 -1.294,5.125 -1.386,4.652 -0.137,-0.709 2.188,-9.688 2.426,-9.119zm-3.807 -1.273c-2.565,10.367 -4.083,17.61 -4.795,25.076 -0.332,2.873 -0.863,4.069 -0.785,1.853 0.125,-1.979 1.006,-9.23 1.461,-12.125 0.686,-3.67 3.259,-14.65 4.282,-17.891 1.209,-4.253 1.185,-2.413 -0.163,3.087zm-2.263 -3.14c1.031,-1.897 0.761,-0.014 -0.687,5.626 -2.072,8.322 -3.43,16.393 -3.772,21.836 -0.387,5.206 -0.596,6.099 -0.824,2.96 -0.257,-4.601 0.661,-11.003 3.134,-21.842 0.94,-4.327 1.973,-8.181 2.149,-8.58zm-1.728 0.922c0.246,-0.045 -0.409,3.131 -1.295,7.081 -0.909,3.832 -2.165,9.806 -2.529,13.173 -0.509,3.271 -0.996,6.66 -1.103,7.414l-0.094 1.484 -0.198 -1.676c-0.167,-2.172 0.674,-8.316 1.854,-14.03 1.518,-7.244 3.119,-13.402 3.365,-13.446zm-18.995 10.871c-0.662,1.832 -2.231,5.538 -2.277,5.301 -0.115,-0.59 0.855,-3.455 1.732,-4.836 0.499,-0.701 0.699,-0.981 0.545,-0.465zm-2.235 0.28c0.146,0.096 -0.039,1.108 -0.424,2.4 -0.593,2.185 -1.115,2.768 -0.899,1.262 0.139,-1.248 1.155,-3.877 1.323,-3.662zm-2.005 1.461c0.177,-0.399 0.3,-0.421 0.323,-0.303 0.046,0.236 0.015,0.731 -0.162,1.13 -0.2,0.28 -0.3,0.421 -0.346,0.184 -0.046,-0.236 0.009,-0.613 0.185,-1.011z"/>
   <path id="_1" fill="#FFFFFF" fill-rule="nonzero" d="M181.512 64.341c-2.774,4.045 -7.61,11.885 -9.071,14.837 -0.93,1.758 -2.868,5.53 -4.352,8.365 -3.975,7.684 -7.903,13.649 -11.13,16.674 -1.368,1.469 -1.491,1.491 -1.743,0.191 -0.505,-2.6 0.552,-8.293 4.412,-25.741 3.367,-15.403 3.224,-19.413 -1.227,-22.038 -0.998,-0.554 -2.264,-1.183 -2.802,-1.331 -0.537,-0.148 -1.289,-0.747 -1.649,-1.293 -0.721,-1.094 -2.31,-1.42 -3.938,-0.638 -1.306,0.478 -5.38,6.347 -7.694,10.798 -2.492,4.85 -7.744,16.434 -10.483,23.285 -5.215,12.433 -8.891,19.697 -9.189,18.161 -0.512,-1.987 1.547,-14.954 3.727,-24.028 2.596,-10.862 3.467,-15.544 3.215,-16.843 -0.161,-0.828 -2.371,-2.388 -2.816,-2.063 -0.223,0.162 -0.492,0.088 -0.684,-0.244 -0.191,-0.333 -0.46,-0.406 -0.682,-0.244 -0.223,0.162 -0.66,-0.126 -0.875,-0.577 -0.361,-0.547 -0.967,-1.049 -1.504,-1.198 -2.979,-0.932 -6.061,4.146 -9.402,15.754 -3.772,12.662 -4.202,22.89 -1.344,29.103 1.143,2.608 4.288,5.711 6,6.016 0.783,0.104 1.635,0.562 1.949,0.872 1.381,1.22 3.285,1.857 5.005,1.548 1.474,-0.265 2.043,-0.612 3.265,-2.177 1.898,-2.664 4.167,-7.352 8.029,-17.585 3.4,-8.682 7.977,-19.166 8.291,-18.856 0.123,-0.022 -0.216,1.507 -0.609,3.412 -3.151,13.896 -2.613,23.217 1.705,28.434 1.204,1.618 3.883,2.971 5.818,3.113 0.905,0.082 1.857,0.4 2.295,0.688 0.291,0.193 1.12,0.533 1.88,0.519 0.661,0.125 1.543,0.089 1.766,-0.073 0.346,-0.184 0.837,-0.272 1.083,-0.317 1.229,-0.22 4.818,-4.656 6.978,-8.591 2.737,-4.894 7.728,-15.208 11.773,-24.495 1.716,-3.61 3.838,-8.394 4.846,-10.41 1.538,-3.211 1.714,-3.609 0.986,-4.09 -0.73,-0.481 -0.829,-0.34 -1.829,1.062zm-54.84 7.649c0.054,-0.377 0.254,-0.657 0.4,-0.561 0.146,0.096 0.092,0.472 -0.108,0.753 -0.3,0.42 -0.423,0.443 -0.292,-0.192zm-4.4 21.214c-0.533,3.152 -1.048,5.08 -0.94,4.327 -0.03,-1.463 1.413,-10.405 1.705,-10.213 0.022,0.118 -0.233,2.733 -0.765,5.886zm1.657 -8.492c-0.2,0.281 -0.299,0.421 -0.345,0.185 -0.046,-0.237 0.008,-0.614 0.185,-1.012 0.176,-0.399 0.299,-0.421 0.322,-0.303 0.046,0.237 0.015,0.731 -0.162,1.13zm1.14 -4.608c-0.077,0.259 -0.3,0.421 -0.346,0.185 -0.045,-0.236 0.131,-0.635 0.186,-1.012 0.176,-0.398 0.422,-0.442 0.445,-0.324 0.046,0.236 -0.108,0.753 -0.285,1.151zm0.701 -2.938c-0.077,0.258 -0.3,0.421 -0.346,0.184 -0.045,-0.236 0.131,-0.635 0.185,-1.011 0.177,-0.399 0.3,-0.421 0.323,-0.303 0.046,0.236 0.015,0.731 -0.162,1.13zm-5.645 -6.813c0.054,-0.377 0.253,-0.657 0.399,-0.561 0.146,0.096 0.092,0.472 -0.108,0.753 -0.3,0.421 -0.423,0.443 -0.291,-0.192zm-5.51 25.327c-0.082,-3.043 1.191,-10.243 3.269,-17.22 1.032,-3.854 2.055,-7.096 2.078,-6.978 0.146,0.097 -0.501,2.659 -1.424,5.76 -0.801,3.079 -1.887,7.31 -2.257,9.333 -0.47,2.163 -1.002,5.316 -1.127,7.296 -0.27,1.883 -0.478,2.776 -0.539,1.809zm2.012 -0.117c-0.386,3.249 -0.594,4.142 -0.601,2.798 -0.259,-2.644 0.591,-9.4 1.431,-13.587 1.356,-6.114 5.604,-19.596 6.096,-19.684 0.123,-0.022 -1.009,3.972 -2.371,8.742 -1.363,4.77 -2.911,10.551 -3.235,12.811 -0.447,2.281 -1.065,6.305 -1.32,8.92zm1.545 -1.867c-0.467,-1.751 5.625,-26.693 6.485,-26.848 0.123,-0.022 -0.763,3.928 -2.103,8.816 -1.34,4.888 -2.642,10.625 -3.134,12.671 -0.872,4.681 -1.08,5.575 -1.248,5.361zm3.065 7.276c-0.154,0.517 -0.254,0.657 -0.323,0.302 -0.068,-0.354 0.062,-0.989 0.093,-1.484 0.155,-0.517 0.255,-0.657 0.323,-0.303 0.069,0.355 0.061,0.968 -0.093,1.485zm38.344 -31.713c0,0 -0.401,2.518 -0.979,5.434 -1.125,5.339 -1.233,6.092 -1.371,5.383 -0.238,-0.569 2.059,-11.01 2.35,-10.817zm-7.114 -3.248c0.592,-2.185 1.154,-3.876 1.277,-3.898 0.369,-0.066 -0.387,3.249 -2.997,13.38 -1.263,4.629 -2.326,8.978 -2.456,9.613l-0.309 1.034 0.063 -0.99c-0.061,-0.967 1.703,-8.255 4.422,-19.139zm-9.54 3.915c0.631,-1.336 0.954,-1.639 0.546,-0.465 -0.154,0.517 -0.431,1.056 -0.653,1.218 -0.223,0.163 -0.169,-0.214 0.107,-0.753zm-1.207 2.296c0.3,-0.421 0.723,-0.864 0.723,-0.864 0.123,-0.022 -0.054,0.377 -0.354,0.797 -0.277,0.54 -0.577,0.96 -0.699,0.982 -0.123,0.023 0.054,-0.376 0.33,-0.915zm-0.73 1.476c0.223,-0.162 0.169,0.214 -0.085,0.872 -0.254,0.657 -0.554,1.078 -0.677,1.1 -0.245,0.044 0.339,-1.528 0.762,-1.972zm-5.638 12.876c0.123,-0.022 -0.031,0.495 -0.162,1.13 -0.562,1.691 -1.546,3.824 -1.592,3.587 -0.069,-0.354 1.631,-4.695 1.754,-4.717zm-3.015 7.39c0.154,-0.517 0.454,-0.938 0.577,-0.96 0.122,-0.022 0.068,0.355 -0.085,0.872 -0.155,0.517 -0.355,0.797 -0.477,0.819 -0.123,0.022 -0.047,-0.236 -0.015,-0.731zm-0.485 1.432c0.223,-0.162 0.169,0.215 -0.085,0.872 -0.277,0.539 -0.554,1.078 -0.677,1.1 -0.245,0.044 0.462,-1.551 0.762,-1.972zm-4.001 11.482c-0.177,0.398 -0.477,0.819 -0.6,0.841 -0.246,0.044 -0.069,-0.355 0.454,-0.938 0.522,-0.583 0.522,-0.583 0.146,0.097zm2.745 -5.508c-0.884,1.993 -1.792,3.869 -1.992,4.149 -0.523,0.583 3.093,-7.649 3.669,-8.608 0.522,-0.584 0.092,0.472 -1.677,4.459zm3.9 -9.383c-0.762,1.971 -1.546,3.824 -1.746,4.104 -0.423,0.443 -0.446,0.325 1.862,-5.471 0.861,-2.111 1.569,-3.706 1.692,-3.728 0.246,-0.044 -0.208,0.894 -1.808,5.095zm1.664 -7.148c-0.246,0.044 0.338,-1.529 0.761,-1.971 0.223,-0.162 0.169,0.214 -0.085,0.871 -0.277,0.539 -0.553,1.078 -0.676,1.1zm2.467 -3.011c-0.354,0.797 -0.785,1.853 -1.062,2.392l-0.677 1.1 0.508 -1.315c0.254,-0.657 0.662,-1.83 1.062,-2.392l0.553 -1.077 -0.384 1.292zm0.961 -2.252c-0.377,0.679 -0.577,0.96 -0.645,0.605 0,0 0.176,-0.399 0.476,-0.82 0.523,-0.582 0.668,-0.486 0.169,0.215zm0.984 -2.134c-0.277,0.539 -0.553,1.078 -0.676,1.1 -0.246,0.044 0.462,-1.551 0.884,-1.993 0.1,-0.141 0.169,0.214 -0.208,0.893zm2.269 -4.688c-0.807,1.735 -1.661,3.234 -1.661,3.234 -0.491,0.088 4.514,-9.494 5.437,-10.638 0.422,-0.443 0.068,0.354 -0.808,1.735 -0.753,1.358 -2.038,3.912 -2.968,5.669zm3.765 26.597c-0.091,-2.43 0.189,-6.883 0.358,-6.669 0.123,-0.022 0.121,1.935 0.142,4.01 -0.079,4.173 -0.518,5.842 -0.5,2.659zm2.049 0.732c0.121,1.935 0.09,2.43 -0.17,1.743 -1.38,-3.177 -0.036,-13.935 3.607,-27.92 1.394,-5.265 2.687,-10.389 2.75,-11.379 0.208,-0.893 0.484,-1.432 0.653,-1.218 0.36,0.547 -0.58,4.874 -2.905,13.853 -2.272,8.601 -3.32,13.681 -3.777,18.533 -0.247,2.002 -0.333,4.83 -0.158,6.388zm4.911 3.032c-0.077,0.258 -0.122,0.022 -0.237,-0.569 -0.092,-0.473 -0.138,-0.71 0.031,-0.495 0.191,0.333 0.26,0.687 0.206,1.064zm-2.911 -7.794c-0.302,2.378 -0.457,4.852 -0.511,5.228 -0.008,0.613 -0.008,0.613 -0.169,-0.214 -0.375,-1.278 0.013,-6.484 0.685,-10.885 0.686,-3.669 5.114,-21.465 5.283,-21.25 0.145,0.096 -0.433,3.012 -1.265,6.587 -3.12,13.401 -3.597,16.178 -4.023,20.534zm18.175 -2.653c-0.177,0.399 -0.477,0.82 -0.6,0.842 -0.245,0.044 -0.191,-0.333 0.454,-0.938 0.522,-0.583 0.522,-0.583 0.146,0.096zm3.099 -6.304c-0.277,0.539 -0.7,0.982 -0.845,0.885 -0.023,-0.118 -0.492,0.089 -0.692,0.369 -0.522,0.583 -0.545,0.465 -0.168,-0.214 0.177,-0.399 0.499,-0.702 0.645,-0.605 0.146,0.096 0.591,-0.229 1.014,-0.672 0.722,-0.863 0.722,-0.863 0.046,0.237zm2.922 -5.906c-0.599,0.841 -0.577,0.959 -1.083,0.317 -0.291,-0.192 -0.314,-0.311 -0.023,-0.118 0.146,0.096 0.614,-0.111 0.937,-0.413 0.4,-0.562 0.423,-0.443 0.169,0.214zm0.808 -1.735c-0.177,0.398 -0.5,0.701 -0.646,0.605 -0.146,-0.096 -0.491,0.088 -0.814,0.391 -0.4,0.561 -0.523,0.583 -0.169,-0.214 0.3,-0.421 0.623,-0.724 0.768,-0.627 0.146,0.096 0.492,-0.089 0.815,-0.391 0.399,-0.561 0.399,-0.561 0.046,0.236zm1.361 -2.813c-0.223,0.162 -0.446,0.325 -0.569,0.347 -0.122,0.022 -0.469,0.206 -0.791,0.509 -0.446,0.325 -0.446,0.325 -0.169,-0.215 0.323,-0.302 0.746,-0.745 1.114,-0.811 0.369,-0.066 0.492,-0.088 0.415,0.17zm1.284 -2.554c-0.254,0.657 -0.753,1.358 -0.977,1.52 -0.322,0.303 -0.245,0.044 0.032,-0.494 0.676,-1.1 0.707,-1.595 0.039,-1.108 -0.223,0.162 -0.146,-0.096 0.154,-0.517 0.853,-1.499 1.459,-0.995 0.752,0.599zm1.884 -3.396c0,0 -0.246,0.044 -0.615,0.111 -0.246,0.044 -0.514,-0.031 -0.414,-0.171 0.177,-0.398 0.96,-0.294 1.029,0.06zm0.193 -1.625c-0.246,0.045 -0.492,0.089 -0.492,0.089 -0.023,-0.118 0.177,-0.399 0.377,-0.679 0.446,-0.325 0.569,-0.347 0.637,0.008 0.046,0.236 -0.154,0.516 -0.522,0.582zm1.998 -2.804c-0.146,-0.096 -0.491,0.088 -0.791,0.509 -0.323,0.302 -0.346,0.184 0.031,-0.495 0.676,-1.1 0.676,-1.1 0.814,-0.391 0.069,0.355 -0.031,0.495 -0.054,0.377z"/>
   <path id="_2" fill="#FFFFFF" fill-rule="nonzero" d="M188.634 107.578c1.72,-0.309 2.166,-0.634 4.079,-2.567 2.436,-2.516 6.841,-9.3 10.163,-15.767l2.337 -4.333 0.873 2.533c2.237,6.937 5.857,11.178 10.816,12.489 1.32,0.252 2.541,0.644 2.709,0.859 0.169,0.214 0.998,0.554 1.658,0.68 2.126,0.474 4.684,-0.107 6.589,-1.428 4.501,-3.01 11.537,-15.892 19.898,-36.35 2.254,-5.419 2.801,-7.84 2.51,-9.99 -0.152,-1.44 -0.344,-1.772 -0.981,-1.78 -1.151,-0.038 -3.658,4.081 -6.419,10.814 -5.954,14.522 -9.153,20.967 -13.149,26.577 -2.698,3.787 -5.28,6.207 -7.5,7.217 -0.959,0.295 -1.082,0.317 -1.634,-0.562 -0.836,-1.685 -1.921,-8.583 -1.895,-12.379 0.055,-11.506 3.476,-27.285 12.352,-56.885 2.571,-9.023 5.111,-17.551 5.427,-19.198l0.601 -2.798 -1.066 -0.909c-0.483,-0.525 -1.289,-0.747 -1.781,-0.659 -0.491,0.089 -0.906,-0.081 -0.951,-0.318 -0.069,-0.354 -0.361,-0.547 -0.484,-0.525 -0.245,0.044 -0.829,-0.34 -1.335,-0.983 -0.652,-0.739 -1.067,-0.909 -2.049,-0.732 -1.106,0.198 -1.651,0.663 -3.128,2.885 -3.851,5.706 -10.982,23.986 -15.908,40.525l-1.286 4.511 -2.072 -0.85c-1.098,-0.415 -2.779,-1.214 -3.653,-1.79 -2.579,-1.494 -4.122,-1.584 -7.394,-0.751 -5.46,1.347 -10.937,5.878 -14.965,11.982 -5.004,7.625 -8.545,19.512 -8.89,28.869 -0.157,4.431 1.265,11.758 2.822,14.536 1.242,2.467 4.518,4.937 6.43,4.96 0.66,0.126 2.149,0.592 3.292,1.243 1.727,1.035 2.142,1.205 3.984,0.874zm59.68 -50.833c0.177,-0.398 0.354,-0.797 0.477,-0.819 0.123,-0.022 0.069,0.355 -0.108,0.753 -0.154,0.517 -0.331,0.916 -0.454,0.938 -0.123,0.022 -0.069,-0.354 0.085,-0.872zm-63.707 36.637c-0.229,-1.182 1.215,-12.082 1.652,-11.793 0.146,0.096 -0.209,2.85 -0.719,6.121 -0.386,3.249 -0.787,5.768 -0.933,5.672zm-0.163 -17.215c0.054,-0.377 0.254,-0.657 0.4,-0.561 0.145,0.096 0.091,0.473 -0.109,0.753 -0.299,0.421 -0.422,0.443 -0.291,-0.192zm25.473 1.539c-0.054,0.377 -0.024,1.839 -0.018,3.183l-0.109 2.71 -0.236 -2.525c-0.153,-1.441 -0.159,-2.784 -0.105,-3.161 0.254,-0.657 0.376,-0.679 0.468,-0.207zm7.125 9.85c-0.1,0.14 -0.269,-0.075 -0.337,-0.429 0.031,-0.495 0.008,-0.613 0.2,-0.281 0.168,0.215 0.237,0.569 0.137,0.71zm0.316 -10.819c-0.14,1.248 -0.295,3.722 -0.297,5.679 -0.024,1.838 -0.186,2.968 -0.278,2.496 -0.375,-1.278 -0.025,-7.334 0.323,-9.475 0.446,-2.282 0.584,-1.573 0.252,1.3zm-0.588 -14.815c0.023,0.118 -0.008,0.613 -0.185,1.012 -0.199,0.28 -0.3,0.42 -0.345,0.184 -0.023,-0.118 0.008,-0.613 0.185,-1.012 0.199,-0.28 0.299,-0.421 0.345,-0.184zm3.197 -13.66c-0.054,0.376 -0.277,0.539 -0.322,0.302 -0.046,-0.236 0.108,-0.753 0.184,-1.011 0.177,-0.399 0.277,-0.539 0.323,-0.303 0.046,0.236 -0.008,0.614 -0.185,1.012zm9.615 -22.517c-0.539,1.809 -0.831,1.616 -0.415,-0.17 0.231,-0.776 0.485,-1.433 0.631,-1.337 0.146,0.096 0.015,0.731 -0.216,1.507zm1.154 -3.877c-0.308,1.034 -0.661,1.831 -0.784,1.853 -0.123,0.022 0.108,-0.753 0.293,-1.765 0.331,-0.915 0.685,-1.712 0.807,-1.734 0.123,-0.022 -0.108,0.753 -0.316,1.646zm1.787 -16.342c0.245,-0.044 -0.139,1.248 -0.701,2.939 -3.954,9.76 -12.044,35.55 -14.231,45.238 -1.272,5.243 -1.602,6.158 -1.763,5.331 -0.183,-0.946 2.174,-10.419 4.768,-19.324 4.311,-14.471 11.19,-34.051 11.927,-34.184zm-10.041 17.703c1.2,-3.64 2.57,-7.066 2.662,-6.593 0.022,0.118 -0.309,1.033 -0.64,1.949 -0.353,0.797 -1.038,2.51 -1.323,3.662 -0.408,1.174 -0.893,2.606 -1.192,3.027 -0.277,0.539 -0.092,-0.473 0.493,-2.045zm-6.08 18.458c0.239,-1.389 4.534,-14.634 4.833,-15.055 0.2,-0.28 -0.701,2.939 -2.032,7.214 -2.102,6.859 -3.194,9.746 -2.801,7.841zm-0.462 1.55c0.054,-0.376 0.254,-0.657 0.4,-0.56 0.146,0.096 0.092,0.472 -0.108,0.752 -0.3,0.421 -0.423,0.443 -0.292,-0.192zm2.783 -4.658c3.256,-10.735 11.574,-33.386 12.311,-33.519 0.245,-0.044 -0.186,1.011 -1.963,5.611 -4.262,10.794 -10.757,31.039 -13.114,40.513 -1.348,5.501 -1.302,5.737 -1.486,4.791 -0.137,-0.708 2.305,-11.053 4.252,-17.396zm-5.744 41.146c-0.113,-2.549 0.468,-9.379 0.946,-12.155 0.239,-1.389 0.578,-2.917 0.609,-3.412 0.054,-0.376 0.308,-1.034 0.608,-1.454 0.323,-0.303 0.315,0.31 0.044,2.193 -0.339,1.528 -0.763,3.928 -1.002,5.317 -0.116,1.366 -0.525,4.497 -0.704,6.852 -0.178,2.356 -0.44,3.626 -0.501,2.659zm-1.303 -3.436c-0.07,1.603 -0.065,4.904 0.003,7.216 0.22,3.751 0.119,3.892 -0.293,1.765 -0.528,-2.718 -0.693,-8.804 -0.223,-10.967 0.448,-2.282 0.754,-1.359 0.513,1.986zm-9.441 -21.785c2.604,-2.302 3.341,-2.434 4.154,-0.868 1.081,1.64 1.027,2.017 0.025,7.333 -0.74,4.046 -1.248,5.361 -2.624,7.442 -0.976,1.521 -2.806,4.54 -4.013,6.836 -1.353,2.2 -3.737,6.297 -5.366,9.036 -1.63,2.738 -3.982,6.34 -5.204,7.905 -1.999,2.805 -2.098,2.945 -2.282,2 -0.298,-1.537 1.022,-10.456 2.184,-14.946 2.988,-10.809 7.993,-20.392 13.126,-24.738zm-25.172 34.729c-0.259,-2.644 0.814,-9.563 2.068,-13.58 0.539,-1.809 1.124,-3.381 1.124,-3.381 0.123,-0.023 -0.117,1.366 -0.678,3.057 -0.416,1.787 -1.125,5.338 -1.503,7.974 -0.256,2.615 -0.711,5.509 -0.819,6.262 -0.117,1.366 -0.117,1.366 -0.192,-0.332zm2.239 3.022c-0.055,2.334 -0.109,2.71 -0.316,1.647 -0.535,-2.106 -0.323,-8.87 0.341,-12.658 0.686,-3.67 1.74,-7.406 3.24,-11.467 1.347,-3.544 2.7,-5.743 1.531,-2.598 -2.085,5.633 -3.641,12.027 -4.244,16.783 -0.355,2.754 -0.65,6.476 -0.552,8.293zm2.18 -9.075c0.85,-6.756 4.321,-17.041 7.349,-21.743l0.977 -1.521 -0.808 1.735c-2.291,4.57 -5.069,12.529 -6.217,17.749 -0.316,1.647 -0.871,4.682 -1.264,6.587 -0.672,4.4 -0.793,2.466 -0.037,-2.807z"/>
   <path id="_3" fill="#FFFFFF" fill-rule="nonzero" d="M252.716 33.575c-1.368,1.468 -6.145,14.189 -8.032,21.499 -4.406,17.913 -5.942,28.339 -4.772,34.367 0.413,2.127 2.492,4.322 3.844,4.079 1.474,-0.265 2.303,0.075 2.418,0.666 0.069,0.355 0.552,0.879 0.989,1.168 0.606,0.502 0.852,0.458 1.175,0.156 0.422,-0.443 0.545,-0.465 0.614,-0.111 0.069,0.355 0.292,0.193 0.692,-0.368 0.422,-0.443 0.699,-0.982 0.653,-1.218 -0.115,-0.591 2.318,-8.366 3.972,-12.944 3.862,-10.233 8.345,-19.232 13.441,-26.384 3.174,-4.606 5.41,-6.842 7.753,-7.874 1.728,-0.922 3.002,-0.907 6.818,-0.246 2.64,0.504 2.909,0.578 4.514,-0.322 0.938,-0.413 1.706,-1.04 1.783,-1.299 0.17,-1.742 -12.441,-6.448 -16.464,-6.215 -3.386,0.241 -6.328,2.115 -9.495,6.108 -0.576,0.96 -1.322,1.705 -1.322,1.705 -0.122,0.022 0.117,-1.366 0.456,-2.894 0.678,-3.057 0.542,-5.724 -0.318,-5.569 -0.123,0.022 -0.415,-0.17 -0.483,-0.525 -0.047,-0.236 -0.507,-0.643 -1.044,-0.791 -0.537,-0.148 -1.243,-0.51 -1.558,-0.821 -0.461,-0.406 -0.583,-0.384 -1.037,0.553 -0.531,1.196 -0.7,0.982 -0.36,-0.546 0.108,-0.753 0.062,-0.99 -0.407,-0.783 -0.323,0.302 -0.491,0.088 -0.383,-0.665 -0.03,-1.463 -2.279,-1.915 -3.447,-0.726zm10.572 19.747l1.145 -1.306 -0.876 1.38c-0.6,0.842 -1.099,1.543 -1.099,1.543 -0.368,0.066 -0.069,-0.355 0.83,-1.617zm-18.793 26.979c-0.17,1.743 -0.509,3.271 -0.732,3.434 -0.545,0.464 0.852,-8.714 2.601,-16.733 1.88,-8.654 8.138,-29.468 8.721,-29.083 0.146,0.096 -0.293,1.764 -0.955,3.595 -4.047,11.245 -8.298,28.641 -9.635,38.787zm2.123 -4.784c-0.285,1.152 -0.593,2.186 -0.716,2.208 -0.545,0.465 1.366,-8.684 3.415,-17.124 1.764,-7.287 6.112,-20.91 6.558,-21.235 0.246,-0.044 -0.863,4.069 -2.403,9.238 -1.662,5.19 -3.726,12.898 -4.666,17.226 -0.84,4.187 -1.903,8.535 -2.188,9.687zm9.627 -8.7c-0.761,1.972 -0.761,1.972 -0.83,1.617 -0.046,-0.237 0.185,-1.012 0.684,-1.713l0.754 -1.358 -0.608 1.454zm3.045 -5.928c-0.93,1.757 -1.884,3.396 -2.061,3.795 -0.899,1.262 1.493,-3.448 2.546,-5.227 0.599,-0.841 0.345,-0.185 -0.485,1.432zm2.56 -4.496c-0.499,0.702 -0.699,0.982 -0.768,0.628 -0.023,-0.119 0.177,-0.399 0.477,-0.82 0.645,-0.605 0.645,-0.605 0.291,0.192zm-2.987 -9.491c0.516,-1.928 0.978,-3.478 1.124,-3.382 0.146,0.096 -0.248,2.001 -0.84,4.187 -0.716,2.207 -1.255,4.016 -1.378,4.039 -0.123,0.021 -0.168,-0.215 0.008,-0.614 0.031,-0.494 0.57,-2.303 1.086,-4.23zm-4.349 4.45c-1.825,6.32 -3.549,12.5 -3.911,13.91 -1.308,4.394 -0.984,2.134 0.364,-3.367 1.501,-6.018 5.704,-19.736 6.335,-21.073 0.299,-0.42 -1.086,4.231 -2.788,10.53z"/>
   <path id="_4" fill="#FFFFFF" fill-rule="nonzero" d="M342.127 38.306c-0.369,0.066 -0.783,-0.104 -0.829,-0.34 -0.552,-0.879 -2.451,1.785 -4.665,6.097 -4.806,9.301 -12.539,21.208 -17.088,25.938 -4.748,5.011 -9.742,8.109 -14.164,8.904 -2.949,0.529 -3.609,0.403 -4.767,-0.979 -1.902,-2.593 -2.307,-5.333 -1.597,-10.842 0.171,-1.742 0.394,-1.905 1.177,-1.801 1.98,0.378 6.088,-0.727 8.216,-2.209 4.725,-3.173 10.634,-10.716 13.565,-17.235 1.592,-3.588 2.217,-8.225 1.852,-12.073 -0.443,-3.589 -1.861,-5.658 -4.64,-6.871 -0.998,-0.555 -2.287,-1.302 -2.87,-1.686 -2.302,-2.033 -7.431,-1.601 -12.001,1.054 -5.584,3.327 -11.84,11.055 -15.455,19.286 -6.422,14.729 -6.369,25.482 0.382,32.096 2.493,2.365 5.847,4.576 7.997,5.168 1.074,0.296 2.586,0.881 3.561,1.317 0.852,0.459 2.609,0.999 3.761,1.036 4.284,0.454 8.246,-0.746 12.502,-3.713 7.821,-5.562 17.029,-19.691 24.521,-37.424 1.292,-3.167 1.525,-5.899 0.542,-5.723zm-21.935 -0.341c0.031,-0.494 0.154,-0.516 0.346,-0.184 0.068,0.354 -0.085,0.871 -0.139,1.248 -0.355,0.797 -0.492,0.088 -0.207,-1.064zm-0.963 4.209c0.716,-2.207 0.839,-2.23 0.66,0.126 -0.054,0.377 0.146,0.096 0.277,-0.539 0.784,-1.853 0.976,-1.52 0.36,0.547 -0.692,2.326 -1.723,4.223 -2.014,4.031 -0.146,-0.096 -0.592,0.228 -0.891,0.649 -0.523,0.583 -0.446,0.325 0.108,-0.753 0.354,-0.798 1.138,-2.65 1.5,-4.061zm-20.518 3.685c-0.092,-0.473 3.622,-6.887 3.991,-6.953 0,0 -0.708,1.594 -1.738,3.492 -2.261,4.074 -2.161,3.934 -2.253,3.461zm5.941 3.091c3.737,-8.254 7.842,-14.616 10.961,-16.888 1.559,-1.137 1.774,-0.686 1.648,3.25 -0.068,8.818 -5.419,18.584 -12.794,23.823 -2.005,1.46 -3.902,2.168 -4.017,1.577 -0.115,-0.591 2.686,-8.432 4.202,-11.762zm-14.938 15.403c-0.247,2 -0.54,3.765 -0.64,3.906 -0.5,0.701 0.143,-7.119 0.751,-8.574 0.354,-0.797 0.346,-0.184 -0.111,4.668zm1.316 6.122l-0.282 -2.762c-0.275,-1.418 -0.197,-3.633 -0.035,-4.763 0.301,-2.378 0.955,-3.596 0.931,-1.757 -0.131,0.635 -0.187,2.969 -0.388,5.206l-0.226 4.076zm1.767 -2.029c-0.306,-0.924 0.127,-5.893 0.428,-6.314 0.199,-0.28 0.322,-0.302 0.391,0.052 0.161,0.827 -0.704,6.852 -0.819,6.262zm4.409 -1.526c-0.109,0.754 -0.125,1.98 -0.333,2.873l-0.193 1.624 -0.052 -1.58c-0.038,-0.849 0.101,-2.097 0.232,-2.732l0.385 -1.292 -0.039 1.107zm41.629 -20.685c-0.177,0.399 -0.5,0.701 -0.646,0.605 -0.146,-0.096 -0.491,0.089 -0.814,0.391 -0.523,0.583 -0.523,0.583 -0.168,-0.214 0.299,-0.421 0.622,-0.723 0.768,-0.627 0.023,0.118 0.491,-0.089 0.691,-0.369 0.523,-0.583 0.523,-0.583 0.169,0.214zm0.163 -3.086c-0.023,-0.119 0.277,-0.54 0.6,-0.842 0.523,-0.583 0.523,-0.583 0.146,0.096 -0.354,0.797 -0.7,0.982 -0.746,0.746zm1.398 -0.007c-0.5,0.701 -0.7,0.982 -0.769,0.627 -0.023,-0.118 0.178,-0.399 0.477,-0.819 0.523,-0.583 0.645,-0.605 0.292,0.192zm1.515 -3.33c-0.254,0.658 -0.477,0.82 -0.592,0.229 -0.045,-0.236 -0.314,-0.31 -0.514,-0.03 -0.223,0.162 -0.346,0.185 -0.145,-0.096 0.376,-0.679 1.259,-0.716 1.251,-0.103zm-22.592 4.792c0.331,-0.916 0.562,-1.691 0.416,-1.787 -0.268,-0.074 -1.507,2.717 -1.415,3.189 0.092,0.473 0.492,-0.088 0.999,-1.402z"/>
   <path id="_5" fill="#FFFFFF" fill-rule="nonzero" d="M339.018 67.482c1.71,2.261 5.086,4.59 6.192,4.391 0.491,-0.088 1.881,0.519 3.17,1.265 3.599,2.166 5.473,1.341 9.247,-4.106 1.753,-2.761 6.627,-11.708 8.696,-16.116l1.415 -3.189 0.819 2.91c1.647,5.208 4.808,9.043 8.423,9.983 1.075,0.297 2.05,0.733 2.241,1.065 0.913,1.426 5.205,1.267 6.818,-0.246 4.195,-3.933 9.155,-13.751 17.679,-35.339 2.107,-5.515 2.332,-7.634 0.24,-3.345 -0.63,1.336 -1.307,2.436 -1.33,2.318 -0.046,-0.237 0.508,-1.314 1.039,-2.511 0.653,-1.218 0.938,-2.369 0.792,-2.465 -0.145,-0.097 -1.076,1.66 -2.083,3.676 -5.668,11.413 -8.559,16.824 -11.933,21.711 -3.274,4.746 -7.831,10.089 -8.292,9.683 -0.414,-0.171 -0.234,-4.483 0.238,-8.604 0.201,-2.237 1.203,-7.554 2.02,-11.858 1.888,-9.268 2.345,-14.119 1.863,-16.601 -0.321,-1.654 -0.512,-1.987 -1.948,-2.83 -0.997,-0.554 -1.826,-0.895 -2.049,-0.733 -0.1,0.141 -0.369,0.067 -0.56,-0.266 -0.192,-0.332 -0.606,-0.502 -0.952,-0.318 -0.346,0.185 -0.615,0.111 -0.683,-0.244 -0.115,-0.591 -0.238,-0.569 -0.837,0.273 -0.723,0.863 -0.723,0.863 -0.392,-0.052 0.362,-1.411 0.102,-2.098 -0.804,-2.18 -1.689,-0.185 -2.803,0.626 -3.642,2.856 -0.884,1.994 -1.484,2.835 -1.667,1.889 -0.046,-0.236 -0.46,-0.406 -0.975,-0.436 -0.515,-0.03 -2.341,-0.925 -3.922,-1.864 -2.333,-1.538 -3.284,-1.856 -4.804,-1.828 -3.533,0.146 -8.026,2.542 -11.53,6.107 -8.797,9.04 -17.193,33.907 -14.544,42.97 0.352,1.16 1.334,2.941 2.055,4.034zm61.687 -35.906c0.269,0.074 0.446,-0.325 0.377,-0.679 0.054,-0.377 0.085,-0.872 0.185,-1.012 0.223,-0.162 0.269,0.074 0.238,0.569 0.106,1.204 -0.494,2.045 -0.977,1.521 -0.169,-0.214 -0.192,-0.333 0.177,-0.399zm-1.078 3.618c0.523,-0.583 0.523,-0.583 0.169,0.215 -0.499,0.701 -0.699,0.981 -0.768,0.627 -0.023,-0.119 0.177,-0.399 0.599,-0.842zm-1.49 1.49c0.077,-0.258 0.96,-0.294 1.029,0.061 0,0 -0.223,0.162 -0.592,0.228 -0.369,0.066 -0.514,-0.03 -0.437,-0.289zm-2.899 6.025c0.2,-0.281 0.668,-0.487 0.914,-0.531 0.245,-0.044 0.423,-0.443 0.499,-0.701 0.054,-0.377 -0.091,-0.473 -0.414,-0.171 -0.323,0.303 -0.346,0.185 -0.246,0.044 0.2,-0.28 0.423,-0.442 0.669,-0.486 0.245,-0.045 0.568,-0.347 0.622,-0.724 0.054,-0.376 -0.092,-0.472 -0.537,-0.148 -0.3,0.421 -0.323,0.303 -0.046,-0.236 0.277,-0.539 0.622,-0.723 0.891,-0.649 0.414,0.17 -0.301,2.377 -1.024,3.241 -0.622,0.723 -1.805,1.18 -1.328,0.361zm-0.562 1.691c-0.2,0.28 -0.346,0.184 -0.123,0.022 0.077,-0.259 0.423,-0.443 0.768,-0.627 0.492,-0.089 0.515,0.029 0.261,0.686 -0.054,0.377 -0.454,0.938 -0.677,1.1 -0.322,0.303 -0.345,0.185 -0.046,-0.236 0.177,-0.398 0.354,-0.797 0.331,-0.916 -0.046,-0.236 -0.292,-0.192 -0.514,-0.029zm-1.376 2.081c0.277,-0.539 0.699,-0.982 0.822,-1.003 0.123,-0.023 -0.054,0.376 -0.453,0.937 -0.3,0.421 -0.6,0.842 -0.723,0.864 -0.123,0.022 0.054,-0.377 0.354,-0.798zm-1.407 2.577c0.523,-0.583 0.523,-0.583 0.146,0.096 -0.354,0.797 -0.7,0.981 -0.746,0.745 -0.023,-0.118 0.154,-0.517 0.6,-0.841zm-41.63 11.513c-0.108,0.753 -0.101,2.097 -0.309,2.99l-0.17 1.743 -0.099 -1.817c-0.06,-0.967 0.056,-2.333 0.164,-3.087l0.408 -1.174 0.006 1.345zm14.273 -9.657c-0.5,0.701 -0.7,0.981 -0.768,0.627 0,0 0.177,-0.399 0.499,-0.701 0.523,-0.584 0.645,-0.606 0.269,0.074zm0.808 -1.735c-0.378,0.679 -0.7,0.981 -0.769,0.627 0,0 0.3,-0.421 0.623,-0.723 0.499,-0.702 0.522,-0.583 0.146,0.096zm19.074 -24.217c0.77,-2.584 0.068,2.312 -1.004,7.274 -0.677,3.057 -1.68,8.373 -2.289,11.785 -1.019,6.542 -1.349,7.457 -0.892,2.606 0.278,-2.496 3.515,-19.221 4.185,-21.665zm-3.392 -1.103c0.245,-0.044 -0.356,2.755 -1.627,7.997 -0.57,2.304 -1.402,5.878 -1.795,7.783 -0.948,4.94 -1.025,5.198 -1.071,4.962 -0.398,-1.396 3.755,-20.609 4.493,-20.742zm-4.245 7.611c0.477,-0.819 0.338,0.429 -0.502,4.615 -0.655,3.176 -1.404,7.835 -1.559,10.309 -0.264,3.227 -0.395,3.862 -0.547,2.422 -0.28,-4.719 1.079,-14.747 2.608,-17.346zm-2.653 5.98c-0.2,0.281 -0.547,2.423 -0.871,4.682 -0.301,2.378 -0.586,3.529 -0.647,2.562 -0.09,-2.43 0.504,-6.573 1.15,-7.178 0.522,-0.582 0.522,-0.582 0.368,-0.066zm-7.171 -10.085c1.291,-1.211 2.582,-2.421 2.928,-2.605 1.136,-0.693 1.189,0.887 -0.12,5.28 -2.178,7.118 -11.413,25.042 -15.701,30.459 -0.923,1.144 -1.745,2.148 -1.99,2.192 -0.492,0.088 0.727,-6.734 2.143,-11.881 2.725,-9.539 7.677,-18.745 12.74,-23.445zm-12.718 5.219l1.276 -1.941 -1.284 2.554c-3.199,6.445 -5.23,11.702 -6.356,17.04 -0.515,1.927 -1.124,5.339 -1.448,7.598 -0.325,2.26 -0.664,3.788 -0.755,3.316 -0.467,-1.751 0.805,-8.95 2.268,-13.861 1.816,-5.707 4.346,-11.665 6.299,-14.706zm-4.141 3.557c0.123,-0.023 -0.085,0.871 -0.639,1.949 -1.238,2.791 -3.617,10.189 -4.402,13.999 -0.416,1.786 -0.88,5.294 -1.035,7.768 -0.218,3.464 -0.349,4.098 -0.578,2.916 -0.826,-4.254 1.293,-14.296 4.962,-22.904 0.762,-1.972 1.569,-3.706 1.692,-3.728zm-8.542 24.77c0.056,-2.333 0.627,-6.594 1.212,-8.167 0.331,-0.915 0.408,-1.173 0.377,-0.679 -0.054,0.377 -0.355,2.754 -0.634,5.25 -0.625,4.638 -0.987,6.048 -0.955,3.596z"/>
   <path fill="#FFFFFF" fill-rule="nonzero" d="M127.718 194.789c4.197,0.35 10.854,-1.398 12.781,-3.289l0.672 -0.672 -1.322 -0.314c-0.706,-0.093 -3.601,-0.236 -6.365,-0.291 -6.323,-0.078 -10.783,-0.601 -11.966,-1.381 -0.79,-0.52 -0.984,-0.926 -1.217,-3.312 -0.324,-2.258 -0.268,-3.151 0.565,-5.948 1.16,-4.07 2.999,-7.599 6.285,-11.941 12.022,-16.06 30.573,-29.211 51.211,-36.338 5.466,-1.974 17.103,-4.064 20.261,-3.749 1.544,0.275 2.161,0.495 2.243,0.921 0.187,0.96 -1.965,6.421 -3.934,9.864 -1.991,3.336 -7.919,11.793 -11.94,16.486 -5.462,6.718 -20.269,22.616 -20.414,21.87 -0.062,-0.32 2.569,-6.86 4.095,-10.223 1.186,-2.751 3.094,-6.513 5.972,-11.774 0.909,-1.818 1.132,-3.624 0.356,-3.484 -0.222,0.039 -0.353,-0.047 -0.284,-0.28 0.07,-0.233 -0.456,-0.58 -1.204,-0.887 -0.748,-0.307 -1.689,-1.021 -2.015,-1.514 -0.497,-0.793 -0.74,-0.86 -2.07,-0.621 -3.657,0.657 -8.149,5.877 -13.497,15.553 -1.789,3.19 -5.23,10.868 -6.743,14.891 -3.512,9.677 -4.741,22.254 -3.003,31.209 1.407,7.25 3.088,10.588 5.083,10.23 0.644,-0.226 1.018,-0.072 1.08,0.247 0.041,0.213 0.305,0.387 0.374,0.153 0.201,-0.146 0.485,0.134 0.568,0.561 0.124,0.639 0.408,0.919 1.245,1.1 1.877,0.214 2.425,-1.098 2.561,-6.308 0.143,-5.761 0.697,-14.136 0.912,-15.388 0.278,-0.932 1.262,-1.771 5.351,-4.933 5.496,-4.186 9.105,-6.268 16.02,-9.055 3.845,-1.463 5.355,-1.955 10.896,-2.95 3.436,-0.617 6.449,-1.048 6.713,-0.874 1.031,0.586 -5.584,10.821 -10.88,16.627 -7.362,8.162 -17.314,16.569 -25.74,21.612 -10.989,6.608 -19.338,9.1 -26.644,8.096 -3.995,-0.496 -5.027,-1.084 -4.984,-2.635 -0.055,-0.873 -0.075,-0.98 -0.609,-0.774 -0.291,0.274 -0.534,0.207 -0.464,-0.027 0.09,-0.126 0.049,-0.339 -0.173,-0.3 -0.221,0.04 -0.263,-0.173 -0.215,-0.513 0.078,-0.786 -1.765,-0.234 -2.154,0.718 -0.388,0.953 1.528,3.146 5.508,6.513 4.548,3.927 7.428,5.175 12.906,5.625 3.844,0.303 11.65,-1.43 16.743,-3.558 12.699,-5.481 26.587,-15.477 35.633,-25.597 3.48,-3.934 8.056,-10.493 9.492,-13.73 3.053,-6.726 2.405,-11.243 -2.475,-15.111 -0.941,-0.714 -2.076,-1.833 -2.685,-2.607 -2.048,-2.28 -5.268,-2.915 -11.024,-2.433l-3.366 0.384 3.743 -3.761c13.655,-14.147 21.907,-27.765 22.046,-36.505 0.092,-3.657 -1.304,-6.716 -4.467,-10.01 -0.983,-0.926 -1.896,-2.086 -1.958,-2.406 -0.207,-1.065 -2.851,-3.459 -4.963,-4.294 -1.232,-0.44 -3.503,-0.915 -5.249,-1.043 -2.694,-0.288 -3.58,-0.129 -9.544,1.052 -4.836,1.09 -7.676,1.82 -11.299,3.244 -13.046,4.88 -25.254,11.707 -35.158,19.774 -15.267,12.34 -25.994,27.395 -27.172,37.867 -0.517,5.609 1.489,9.441 6.86,12.889 3.531,2.234 5.885,3.135 9.022,3.344zm23.704 5.12c-0.077,0.786 -0.176,3.231 -0.205,5.443 -0.169,2.677 -0.266,3.357 -0.403,2.058 -0.185,-2.725 0.048,-8.614 0.38,-8.674 0.222,-0.039 0.325,0.494 0.228,1.173zm-0.734 -9.687c-0.144,-0.746 1.779,-7.38 3.313,-11.296 1.79,-4.955 5.821,-13.733 7.042,-15.717l0.95 -1.605 -0.957 2.158c-4.232,8.924 -7.64,17.368 -8.765,22.204 -0.841,3.351 -1.438,5.002 -1.583,4.256zm4.03 -7.012c-1.361,4.216 -1.999,5.655 -2.144,4.908 -0.104,-0.533 2.25,-7.906 3.943,-12.182 3.158,-7.959 6.154,-13.792 9.427,-18.793 1.782,-2.637 1.414,-1.578 -1.166,2.857 -3.828,6.866 -7.727,15.73 -10.06,23.21zm1.537 0.827c-0.396,1.505 -0.757,2.011 -0.86,1.479 -0.104,-0.534 2.034,-6.655 3.998,-11.31 3.747,-9.057 6.903,-15.25 10.099,-19.465l1.734 -2.297 -1.581 2.49c-2.851,4.814 -3.961,6.779 -6.555,12.32 -2.525,5.308 -5.752,13.499 -6.835,16.783zm5.211 -4.466c-0.332,0.059 4.678,-12.535 5.261,-13.081 0.2,-0.146 -0.327,1.273 -1.014,3.051 -0.798,1.798 -1.943,4.761 -2.741,6.56 -0.666,1.885 -1.394,3.45 -1.506,3.47zm31.46 23.805c-1.615,1.725 -2.107,2.144 -1.275,1.112 6.254,-7.963 7.515,-9.734 9.915,-13.916 0.25,-0.487 0.222,-0.04 -0.167,0.913 -0.278,0.932 -1.637,3.383 -3.19,5.427 -1.442,2.024 -3.848,4.993 -5.283,6.464zm6.363 -6.217c-0.471,0.525 -0.831,1.032 -0.942,1.052 -0.111,0.02 0.139,-0.467 0.499,-0.973 0.451,-0.632 0.811,-1.138 0.922,-1.158 0.111,-0.02 -0.139,0.466 -0.479,1.079zm5.31 -5.146c0.631,-0.886 -0.216,1.252 -1.555,3.809 -0.589,1.099 -1.199,2.092 -1.31,2.111 -0.222,0.04 2.213,-5.141 2.865,-5.92zm-2.912 -5.545c0.187,0.96 -1.901,4.975 -4.134,8.245 -1.262,1.771 -2.995,4.068 -3.848,4.994 -1.123,1.304 -0.693,0.565 1.359,-2.451 3.315,-4.788 3.835,-5.654 5.361,-9.017 0.68,-1.225 1.2,-2.091 1.262,-1.771zm-1.294 -0.76c0.123,0.639 -1.403,4.002 -2.713,6.113 -0.59,1.099 -1.332,2.005 -1.443,2.025 -0.11,0.02 0.299,-0.826 0.979,-2.052 0.7,-1.119 1.699,-3.063 2.157,-4.248 0.569,-1.206 0.999,-1.945 1.02,-1.838zm-3.706 -43.905c0.471,-0.526 0.471,-0.526 0.152,0.193 -0.34,0.613 -0.631,0.886 -0.693,0.566 -0.021,-0.107 0.27,-0.38 0.541,-0.759zm-2.216 8.672c1.802,-2.53 4.285,-6.286 5.485,-8.377 1.088,-2.071 2.17,-3.589 2.191,-3.482 0.144,0.746 -3.676,7.058 -6.741,11.36 -1.983,2.783 -3.716,5.08 -3.938,5.12 -0.111,0.02 1.2,-2.091 3.003,-4.621zm-9.722 14.323c0.7,-1.119 0.901,-1.265 0.984,-0.839 -0.09,0.127 -0.45,0.633 -0.811,1.139l-0.873 0.818 0.7 -1.118zm-6.969 10.187c-0.339,0.613 -0.63,0.886 -0.692,0.566 -0.021,-0.106 0.159,-0.359 0.541,-0.758 0.471,-0.526 0.471,-0.526 0.151,0.192zm6.995 -7.102c-4.776,4.939 -6.412,6.557 -6.453,6.343 -0.021,-0.106 1.303,-1.557 3.028,-3.302 7.244,-7.589 11.716,-12.915 16.805,-19.787 2.294,-2.95 3.757,-4.867 3.507,-4.381 -3.329,5.894 -8.119,11.939 -16.887,21.127zm9.405 -8.861c-0.451,0.633 -0.631,0.885 -0.693,0.566 0,0 0.159,-0.36 0.45,-0.633 0.583,-0.545 0.583,-0.545 0.243,0.067zm2.405 -2.969c-0.339,0.612 -0.63,0.885 -0.672,0.672 -0.02,-0.107 0.139,-0.466 0.541,-0.759 0.472,-0.526 0.472,-0.526 0.131,0.087zm9.663 -9.9c-0.839,1.585 -2.989,5.281 -4.23,7.159 -0.701,1.118 -1.914,2.55 -2.565,3.329 -1.145,1.198 -1.145,1.198 0.117,-0.573 0.722,-1.012 2.504,-3.649 3.905,-5.887 2.621,-4.221 3.321,-5.34 2.773,-4.028zm-2.016 -8.022c-1.382,4.109 -8.128,14.257 -13.854,20.802 -5.927,6.69 -5.788,6.224 0.395,-1.506 4.923,-5.959 9.999,-13.489 11.996,-17.378 1.519,-2.811 1.97,-3.443 1.463,-1.918zm-68.328 13.154c0.472,-0.525 0.472,-0.525 0.152,0.194 -0.159,0.359 -0.451,0.633 -0.451,0.633 -0.332,0.059 -0.152,-0.194 0.299,-0.827zm-1.344 1.346l-0.722 1.011c-0.471,0.526 -1.885,2.104 -3.32,3.575 -2.939,3.176 -8.819,11.293 -10.386,14.443 -0.66,1.332 -1.388,2.897 -1.748,3.403l-0.389 0.952 0.236 -1.145c1.209,-4.41 9.252,-15.562 15.274,-21.168l1.055 -1.071zm-19.364 24.328c-0.103,-0.533 1.729,-5.275 2.61,-6.647l0.79 -1.245 -0.728 1.565c-0.43,0.74 -1.208,2.644 -1.735,4.063 -0.527,1.418 -0.916,2.371 -0.937,2.264zm0.782 1.073c0.064,-1.445 1.347,-4.875 2.596,-7.306 1.699,-3.063 4.972,-8.064 5.776,-8.65 0.402,-0.293 -0.368,1.059 -1.81,3.084 -1.331,2.004 -2.982,4.727 -3.662,5.953 -0.569,1.205 -1.505,3.469 -2.012,4.995 -0.618,1.545 -1.027,2.391 -0.888,1.924z"/>
   <path id="_1_0" fill="#FFFFFF" fill-rule="nonzero" d="M240.983 118.291c-1.82,-2.873 -5.638,-0.09 -8.351,6.023 -0.638,1.439 -2.221,5.695 -3.422,9.551 -7.712,22.898 -11.924,41.969 -12.371,55.618 -0.229,8.867 0.586,12.472 4.107,17.025 1.696,2.233 5.51,4.747 7.345,4.748 0.596,0.114 1.676,0.361 2.202,0.708 0.637,0.327 1.496,0.614 1.738,0.681 1.191,0.227 3.72,-0.338 4.614,-1.049 1.497,-1.152 4.77,-6.153 6.275,-9.623 0.777,-1.904 2.838,-7.239 4.539,-12.068 1.721,-4.722 4.289,-11.582 5.795,-15.052 2.54,-6.413 2.846,-7.792 1.647,-7.466 -0.332,0.059 -0.575,-0.008 -0.616,-0.221 0.049,-0.339 -0.214,-0.513 -0.547,-0.453 -0.997,0.179 -3.147,3.875 -6.193,10.048 -10.121,21.125 -12.167,25.353 -13.429,27.125 -0.811,1.139 -1.664,2.064 -1.886,2.104 -0.554,0.099 -1.394,-6.59 -1.515,-10.761 0.006,-7.061 2.101,-21.669 5.158,-33.692 1.591,-6.574 5.39,-19.502 7.569,-25.41 3.672,-10.037 4.249,-13.561 2.609,-14.921 -1.468,-1.06 -2.305,-1.24 -2.936,-0.355 -0.652,0.779 -0.652,0.779 -0.354,-0.047 0.327,-1.272 0.133,-1.679 -0.581,-1.22 -0.422,0.187 -0.664,0.12 -0.685,0.014 -0.041,-0.214 -0.256,-0.727 -0.712,-1.307zm12.892 49.868c0.18,-0.253 0.866,-0.266 0.928,0.053 0,0 -0.201,0.147 -0.534,0.206 -0.222,0.04 -0.464,-0.026 -0.394,-0.259zm-0.729 1.565c0.471,-0.527 0.471,-0.527 0.132,0.086 -0.319,0.719 -0.61,0.992 -0.673,0.672 -0.02,-0.106 0.271,-0.379 0.541,-0.758zm-2.816 5.58c0.139,-0.466 0.34,-0.613 0.472,-0.526 0.131,0.087 0.062,0.32 -0.229,0.593 -0.25,0.486 -0.271,0.38 -0.243,-0.067zm-28.225 20.625c0.094,2.852 -0.315,3.697 -0.59,1.099 -0.714,-7.815 2.021,-25.627 6.315,-42.505 2.375,-9.032 8.477,-27.228 9.143,-27.348 0.11,-0.02 -0.008,0.553 -0.327,1.273 -0.638,1.438 -3.221,9.404 -5.644,17.01 -5.651,17.564 -9.554,39.998 -8.897,50.471zm1.659 -5.042c-0.12,2.338 -0.053,5.636 0.188,7.468 0.171,2.066 0.115,2.959 -0.099,2.445 -0.996,-1.586 -1.094,-9.181 -0.403,-16.255 0.656,-6.075 2.687,-17.472 4.625,-25.212 2.967,-11.896 9.674,-32.297 11.774,-35.653 0.95,-1.605 0.922,-1.159 -0.722,2.777 -1.624,4.043 -6.671,19.402 -8.345,25.55 -4.112,14.86 -6.685,28.781 -7.018,38.88zm5.581 0.984c-0.035,0.999 -0.113,3.551 -0.032,5.742 0.142,4.277 -0.121,4.104 -0.374,-0.153 -0.115,-2.958 0.034,-7.508 0.297,-7.335 0.131,0.087 0.166,0.853 0.109,1.746zm0.12 -2.339c-0.09,0.127 -0.243,-0.066 -0.214,-0.513 -0.083,-0.426 0.028,-0.446 0.18,-0.253 0.173,0.3 0.103,0.533 0.034,0.766zm0.489 -5.162c-0.091,0.127 -0.132,-0.087 -0.215,-0.513 -0.062,-0.32 0.028,-0.447 0.181,-0.254 0.172,0.301 0.235,0.62 0.034,0.767zm-1.774 -7.956c-0.049,0.34 -0.25,0.486 -0.291,0.273 -0.042,-0.213 0.097,-0.679 0.167,-0.912 0.159,-0.36 0.36,-0.507 0.402,-0.293 0.041,0.213 -0.098,0.679 -0.278,0.932zm0.57 -2.971c-0.048,0.34 -0.25,0.486 -0.291,0.273 -0.041,-0.213 0.097,-0.679 0.167,-0.913 0.159,-0.359 0.249,-0.485 0.291,-0.272 0.041,0.213 -0.008,0.553 -0.167,0.912zm5.071 -10.508c0.042,0.213 -0.076,0.785 -0.195,1.358 -0.25,0.487 -0.409,0.846 -0.451,0.633 -0.041,-0.213 0.077,-0.786 0.306,-1.379 0.139,-0.466 0.32,-0.719 0.34,-0.612zm1.306 -5.089c-0.16,0.359 -0.249,0.486 -0.291,0.272 -0.041,-0.213 -0.013,-0.659 0.167,-0.912 0.16,-0.36 0.25,-0.486 0.291,-0.273 0.041,0.213 -0.007,0.553 -0.167,0.913zm4.097 -13.754c-1.291,3.983 -2.492,7.839 -2.791,8.665 -0.187,0.806 -0.527,1.418 -0.568,1.206 -0.083,-0.427 4.742,-15.746 5.332,-16.845 0.548,-1.312 0.36,-0.506 -1.973,6.974zm2.325 -15.201c-0.139,0.466 -0.298,0.826 -0.409,0.845 -0.111,0.021 -0.062,-0.319 0.077,-0.786 0.139,-0.466 0.298,-0.825 0.409,-0.845 0.111,-0.02 0.062,0.319 -0.077,0.786zm-0.671 -1.093c-6.932,17.463 -12.928,40.935 -14.665,56.802 -0.23,2.359 -0.565,5.949 -0.726,8.074 -0.127,2.891 -0.176,3.231 -0.375,1.612 -0.975,-11.519 5.823,-42.086 14.532,-65.164 0.965,-2.71 2.013,-4.994 2.124,-5.014 0.554,-0.1 0.484,0.133 -0.89,3.69zm4.679 -4.261c0.36,-0.506 0.047,1.426 -0.647,3.758 -0.348,1.165 -0.716,2.224 -0.827,2.244 -0.11,0.02 1.203,-5.622 1.474,-6.002z"/>
   <path id="_2_1" fill="#FFFFFF" fill-rule="nonzero" d="M249.624 193.524c1.542,2.04 4.588,4.14 5.586,3.961 0.443,-0.079 1.696,0.468 2.859,1.142 3.247,1.954 4.937,1.209 8.342,-3.705 1.581,-2.491 5.978,-10.562 7.844,-14.538l1.277 -2.877 0.739 2.626c1.485,4.698 4.336,8.157 7.598,9.006 0.969,0.266 1.848,0.66 2.021,0.96 0.824,1.287 4.695,1.143 6.151,-0.222 3.784,-3.548 8.258,-12.405 15.948,-31.879 1.901,-4.975 2.103,-6.887 0.216,-3.018 -0.568,1.206 -1.179,2.198 -1.2,2.091 -0.041,-0.213 0.459,-1.185 0.937,-2.264 0.59,-1.099 0.847,-2.138 0.715,-2.225 -0.131,-0.086 -0.97,1.498 -1.879,3.316 -5.113,10.296 -7.721,15.177 -10.765,19.586 -2.953,4.281 -7.064,9.101 -7.479,8.735 -0.374,-0.154 -0.212,-4.044 0.213,-7.761 0.182,-2.019 1.086,-6.815 1.823,-10.698 1.704,-8.36 2.116,-12.736 1.681,-14.975 -0.29,-1.492 -0.462,-1.792 -1.757,-2.553 -0.9,-0.5 -1.648,-0.807 -1.849,-0.661 -0.09,0.127 -0.332,0.06 -0.505,-0.24 -0.173,-0.3 -0.547,-0.453 -0.859,-0.287 -0.312,0.166 -0.554,0.099 -0.616,-0.22 -0.103,-0.533 -0.215,-0.513 -0.755,0.246 -0.652,0.779 -0.652,0.779 -0.353,-0.047 0.326,-1.272 0.091,-1.892 -0.726,-1.966 -1.524,-0.168 -2.528,0.565 -3.285,2.576 -0.798,1.798 -1.339,2.557 -1.504,1.705 -0.042,-0.214 -0.415,-0.367 -0.879,-0.394 -0.464,-0.028 -2.112,-0.834 -3.539,-1.682 -2.104,-1.387 -2.962,-1.674 -4.334,-1.648 -3.186,0.131 -7.239,2.293 -10.4,5.508 -7.936,8.156 -15.51,30.588 -13.12,38.763 0.318,1.047 1.203,2.653 1.854,3.639zm55.647 -32.391c0.242,0.067 0.402,-0.292 0.339,-0.612 0.049,-0.34 0.078,-0.786 0.167,-0.913 0.202,-0.146 0.243,0.067 0.215,0.514 0.096,1.085 -0.445,1.845 -0.88,1.371 -0.153,-0.193 -0.174,-0.3 0.159,-0.36zm-0.972 3.264c0.471,-0.525 0.471,-0.525 0.152,0.194 -0.451,0.632 -0.631,0.885 -0.693,0.565 -0.021,-0.106 0.16,-0.359 0.541,-0.759zm-1.345 1.345c0.069,-0.233 0.866,-0.266 0.928,0.054 0,0 -0.201,0.146 -0.534,0.206 -0.332,0.06 -0.464,-0.027 -0.394,-0.26zm-2.616 5.434c0.181,-0.253 0.604,-0.439 0.825,-0.479 0.222,-0.04 0.382,-0.399 0.451,-0.632 0.048,-0.34 -0.083,-0.427 -0.374,-0.154 -0.291,0.273 -0.312,0.167 -0.222,0.04 0.181,-0.253 0.382,-0.399 0.603,-0.439 0.222,-0.04 0.513,-0.313 0.562,-0.653 0.049,-0.34 -0.083,-0.426 -0.485,-0.133 -0.27,0.379 -0.291,0.273 -0.041,-0.213 0.25,-0.486 0.561,-0.653 0.804,-0.586 0.374,0.154 -0.272,2.145 -0.924,2.924 -0.561,0.652 -1.628,1.065 -1.199,0.325zm-0.506 1.525c-0.18,0.254 -0.312,0.167 -0.111,0.02 0.07,-0.233 0.382,-0.399 0.693,-0.565 0.443,-0.08 0.464,0.026 0.235,0.619 -0.049,0.34 -0.409,0.846 -0.61,0.993 -0.291,0.273 -0.312,0.166 -0.042,-0.214 0.16,-0.359 0.32,-0.719 0.299,-0.825 -0.041,-0.214 -0.263,-0.174 -0.464,-0.028zm-1.241 1.878c0.249,-0.486 0.631,-0.885 0.742,-0.905 0.11,-0.02 -0.049,0.34 -0.41,0.846 -0.27,0.379 -0.541,0.759 -0.651,0.779 -0.111,0.02 0.048,-0.34 0.319,-0.72zm-1.269 2.324c0.471,-0.526 0.471,-0.526 0.131,0.087 -0.319,0.72 -0.631,0.886 -0.672,0.673 -0.021,-0.107 0.138,-0.467 0.541,-0.76zm-37.554 10.386c-0.098,0.68 -0.092,1.892 -0.279,2.698l-0.154 1.572 -0.089 -1.638c-0.054,-0.873 0.05,-2.106 0.148,-2.786l0.368 -1.058 0.006 1.212zm12.875 -8.711c-0.451,0.632 -0.631,0.885 -0.693,0.566 0,0 0.16,-0.36 0.45,-0.633 0.472,-0.526 0.583,-0.546 0.243,0.067zm0.728 -1.565c-0.339,0.612 -0.631,0.885 -0.693,0.566 0,0 0.271,-0.38 0.562,-0.653 0.451,-0.633 0.472,-0.526 0.131,0.087zm17.207 -21.846c0.695,-2.331 0.061,2.086 -0.905,6.562 -0.612,2.757 -1.516,7.553 -2.065,10.631 -0.919,5.901 -1.217,6.727 -0.806,2.351 0.252,-2.251 3.173,-17.339 3.776,-19.544zm-3.06 -0.994c0.222,-0.04 -0.32,2.484 -1.467,7.213 -0.514,2.079 -1.265,5.302 -1.619,7.021 -0.855,4.456 -0.925,4.689 -0.966,4.476 -0.359,-1.259 3.387,-18.591 4.052,-18.71zm-3.828 6.866c0.43,-0.74 0.304,0.386 -0.454,4.163 -0.591,2.864 -1.266,7.067 -1.406,9.299 -0.238,2.911 -0.356,3.484 -0.494,2.184 -0.252,-4.257 0.973,-13.303 2.354,-15.646zm-2.394 5.394c-0.18,0.253 -0.493,2.185 -0.786,4.223 -0.272,2.145 -0.529,3.184 -0.583,2.311 -0.082,-2.192 0.454,-5.929 1.036,-6.475 0.472,-0.525 0.472,-0.525 0.333,-0.059zm-6.469 -9.098c1.165,-1.092 2.329,-2.184 2.641,-2.35 1.025,-0.626 1.073,0.8 -0.108,4.763 -1.965,6.421 -10.295,22.59 -14.164,27.477 -0.832,1.032 -1.573,1.937 -1.795,1.977 -0.443,0.08 0.656,-6.075 1.934,-10.717 2.458,-8.606 6.925,-16.91 11.492,-21.15zm-11.472 4.708l1.15 -1.751 -1.158 2.304c-2.886,5.814 -4.718,10.556 -5.733,15.372 -0.465,1.738 -1.015,4.815 -1.307,6.854 -0.293,2.038 -0.598,3.417 -0.681,2.99 -0.422,-1.579 0.726,-8.073 2.046,-12.503 1.638,-5.148 3.921,-10.523 5.683,-13.266zm-3.737 3.209c0.112,-0.02 -0.076,0.785 -0.576,1.758 -1.117,2.517 -3.262,9.191 -3.971,12.628 -0.375,1.612 -0.793,4.776 -0.934,7.008 -0.196,3.124 -0.314,3.697 -0.521,2.631 -0.745,-3.838 1.167,-12.897 4.476,-20.662 0.687,-1.779 1.416,-3.344 1.526,-3.363zm-7.704 22.345c0.049,-2.105 0.565,-5.949 1.093,-7.368 0.298,-0.826 0.367,-1.059 0.339,-0.613 -0.048,0.341 -0.32,2.485 -0.571,4.737 -0.564,4.183 -0.891,5.455 -0.861,3.244z"/>
   <path id="_3_2" fill="#FFFFFF" fill-rule="nonzero" d="M365.665 144.329c-2.503,3.649 -6.866,10.721 -8.184,13.385 -0.839,1.584 -2.587,4.988 -3.925,7.545 -3.587,6.932 -7.13,12.313 -10.041,15.042 -1.234,1.325 -1.344,1.345 -1.572,0.172 -0.455,-2.345 0.497,-7.481 3.98,-23.221 3.037,-13.894 2.908,-17.512 -1.107,-19.88 -0.9,-0.5 -2.042,-1.067 -2.527,-1.2 -0.485,-0.134 -1.163,-0.674 -1.488,-1.168 -0.651,-0.986 -2.084,-1.28 -3.553,-0.575 -1.178,0.432 -4.852,5.725 -6.941,9.741 -2.247,4.376 -6.985,14.825 -9.456,21.005 -4.704,11.216 -8.02,17.769 -8.289,16.383 -0.463,-1.793 1.396,-13.49 3.362,-21.676 2.342,-9.798 3.128,-14.021 2.9,-15.194 -0.145,-0.746 -2.138,-2.153 -2.54,-1.86 -0.201,0.147 -0.444,0.08 -0.617,-0.22 -0.173,-0.3 -0.415,-0.367 -0.616,-0.221 -0.201,0.147 -0.595,-0.113 -0.789,-0.52 -0.325,-0.493 -0.872,-0.947 -1.356,-1.08 -2.687,-0.841 -5.468,3.74 -8.482,14.21 -3.403,11.423 -3.791,20.649 -1.212,26.254 1.03,2.353 3.868,5.153 5.412,5.427 0.706,0.094 1.475,0.507 1.759,0.787 1.245,1.101 2.963,1.674 4.514,1.396 1.33,-0.239 1.843,-0.551 2.946,-1.963 1.712,-2.404 3.758,-6.633 7.242,-15.864 3.068,-7.832 7.196,-17.289 7.48,-17.009 0.111,-0.02 -0.195,1.359 -0.55,3.078 -2.842,12.535 -2.357,20.943 1.539,25.649 1.086,1.46 3.502,2.681 5.248,2.809 0.817,0.074 1.675,0.361 2.07,0.62 0.263,0.174 1.01,0.481 1.696,0.468 0.596,0.114 1.392,0.081 1.593,-0.065 0.312,-0.167 0.755,-0.246 0.977,-0.286 1.108,-0.199 4.346,-4.201 6.295,-7.75 2.469,-4.415 6.971,-13.719 10.621,-22.097 1.547,-3.256 3.461,-7.572 4.37,-9.39 1.388,-2.897 1.548,-3.257 0.89,-3.69 -0.658,-0.434 -0.748,-0.307 -1.649,0.958zm-49.471 6.9c0.049,-0.34 0.229,-0.593 0.361,-0.507 0.131,0.087 0.083,0.427 -0.098,0.68 -0.27,0.38 -0.381,0.4 -0.263,-0.173zm-3.97 19.136c-0.479,2.845 -0.945,4.583 -0.848,3.904 -0.026,-1.319 1.275,-9.386 1.538,-9.213 0.021,0.107 -0.21,2.465 -0.69,5.309zm1.495 -7.659c-0.18,0.252 -0.27,0.379 -0.311,0.166 -0.042,-0.214 0.007,-0.553 0.166,-0.913 0.16,-0.36 0.271,-0.38 0.292,-0.273 0.041,0.214 0.013,0.66 -0.147,1.02zm1.028 -4.157c-0.069,0.233 -0.269,0.38 -0.311,0.166 -0.041,-0.213 0.118,-0.572 0.167,-0.912 0.159,-0.36 0.381,-0.4 0.402,-0.293 0.041,0.213 -0.098,0.68 -0.258,1.039zm0.633 -2.651c-0.069,0.233 -0.27,0.379 -0.312,0.166 -0.041,-0.213 0.119,-0.572 0.167,-0.912 0.16,-0.36 0.271,-0.38 0.291,-0.273 0.042,0.213 0.014,0.659 -0.146,1.019zm-5.093 -6.146c0.049,-0.34 0.229,-0.593 0.361,-0.506 0.131,0.087 0.083,0.426 -0.098,0.679 -0.27,0.38 -0.381,0.4 -0.263,-0.173zm-4.969 22.847c-0.075,-2.745 1.073,-9.239 2.948,-15.534 0.931,-3.477 1.854,-6.401 1.875,-6.294 0.131,0.087 -0.452,2.398 -1.285,5.196 -0.723,2.777 -1.702,6.594 -2.036,8.419 -0.424,1.951 -0.904,4.796 -1.016,6.581 -0.244,1.699 -0.432,2.505 -0.486,1.632zm1.814 -0.105c-0.348,2.931 -0.536,3.737 -0.542,2.524 -0.234,-2.385 0.533,-8.48 1.291,-12.257 1.223,-5.515 5.056,-17.677 5.499,-17.757 0.111,-0.019 -0.91,3.584 -2.139,7.886 -1.23,4.303 -2.626,9.519 -2.918,11.557 -0.404,2.058 -0.96,5.688 -1.191,8.047zm1.394 -1.685c-0.422,-1.579 5.074,-24.079 5.85,-24.218 0.111,-0.02 -0.688,3.543 -1.897,7.952 -1.209,4.41 -2.383,9.585 -2.827,11.43 -0.787,4.224 -0.974,5.03 -1.126,4.836zm2.765 6.564c-0.139,0.466 -0.229,0.593 -0.291,0.273 -0.063,-0.32 0.056,-0.893 0.084,-1.339 0.139,-0.466 0.229,-0.593 0.291,-0.273 0.062,0.32 0.055,0.873 -0.084,1.339zm34.59 -28.608c0,0 -0.362,2.271 -0.884,4.902 -1.015,4.817 -1.112,5.496 -1.237,4.856 -0.214,-0.513 1.858,-9.932 2.121,-9.758zm-6.419 -2.929c0.535,-1.972 1.042,-3.497 1.153,-3.517 0.332,-0.06 -0.349,2.931 -2.704,12.07 -1.139,4.176 -2.098,8.099 -2.216,8.672l-0.277 0.932 0.055 -0.892c-0.054,-0.873 1.537,-7.448 3.989,-17.265zm-8.604 3.531c0.569,-1.205 0.86,-1.478 0.492,-0.419 -0.139,0.466 -0.389,0.952 -0.59,1.099 -0.201,0.146 -0.152,-0.194 0.098,-0.68zm-1.09 2.071c0.271,-0.379 0.652,-0.779 0.652,-0.779 0.111,-0.019 -0.048,0.34 -0.319,0.719 -0.25,0.486 -0.52,0.866 -0.631,0.886 -0.111,0.02 0.049,-0.34 0.298,-0.826zm-0.658 1.332c0.201,-0.146 0.152,0.194 -0.077,0.786 -0.229,0.593 -0.5,0.973 -0.61,0.992 -0.222,0.04 0.305,-1.378 0.687,-1.778zm-5.086 11.615c0.111,-0.02 -0.028,0.446 -0.146,1.019 -0.507,1.525 -1.395,3.45 -1.437,3.237 -0.062,-0.32 1.472,-4.236 1.583,-4.256zm-2.72 6.667c0.139,-0.467 0.409,-0.847 0.52,-0.866 0.111,-0.02 0.062,0.32 -0.077,0.786 -0.139,0.466 -0.319,0.719 -0.43,0.739 -0.111,0.02 -0.041,-0.213 -0.013,-0.659zm-0.438 1.291c0.201,-0.146 0.152,0.194 -0.076,0.787 -0.25,0.486 -0.5,0.972 -0.611,0.992 -0.221,0.039 0.417,-1.399 0.687,-1.779zm-3.609 10.358c-0.159,0.359 -0.43,0.738 -0.541,0.758 -0.222,0.04 -0.062,-0.319 0.41,-0.845 0.47,-0.526 0.47,-0.526 0.131,0.087zm2.476 -4.969c-0.798,1.798 -1.616,3.49 -1.796,3.743 -0.472,0.526 2.789,-6.9 3.309,-7.766 0.472,-0.525 0.083,0.427 -1.513,4.023zm3.518 -8.464c-0.687,1.778 -1.394,3.449 -1.575,3.703 -0.381,0.399 -0.402,0.292 1.68,-4.936 0.778,-1.904 1.416,-3.343 1.526,-3.363 0.222,-0.04 -0.187,0.806 -1.631,4.596zm1.501 -6.448c-0.222,0.04 0.306,-1.379 0.687,-1.778 0.201,-0.147 0.153,0.193 -0.076,0.786 -0.25,0.486 -0.5,0.972 -0.611,0.992zm2.226 -2.717c-0.319,0.719 -0.708,1.672 -0.958,2.158l-0.61 0.992 0.458 -1.185c0.229,-0.593 0.597,-1.652 0.958,-2.158l0.499 -0.972 -0.347 1.165zm0.867 -2.031c-0.34,0.613 -0.52,0.866 -0.582,0.546 0,0 0.159,-0.36 0.43,-0.739 0.471,-0.526 0.603,-0.439 0.152,0.193zm0.888 -1.925c-0.25,0.487 -0.499,0.973 -0.61,0.993 -0.222,0.039 0.417,-1.399 0.798,-1.799 0.09,-0.126 0.152,0.194 -0.188,0.806zm2.046 -4.228c-0.728,1.565 -1.498,2.916 -1.498,2.916 -0.443,0.08 4.072,-8.564 4.904,-9.596 0.382,-0.399 0.062,0.32 -0.728,1.565 -0.68,1.225 -1.838,3.53 -2.678,5.115zm3.396 23.992c-0.081,-2.192 0.172,-6.209 0.324,-6.016 0.111,-0.02 0.109,1.746 0.128,3.618 -0.071,3.764 -0.468,5.269 -0.452,2.398zm1.849 0.66c0.11,1.746 0.082,2.192 -0.154,1.573 -1.244,-2.866 -0.031,-12.572 3.254,-25.187 1.258,-4.749 2.425,-9.371 2.481,-10.264 0.188,-0.806 0.437,-1.292 0.59,-1.099 0.324,0.493 -0.523,4.396 -2.621,12.496 -2.05,7.76 -2.995,12.342 -3.407,16.719 -0.223,1.805 -0.301,4.357 -0.143,5.762zm4.43 2.735c-0.069,0.233 -0.11,0.02 -0.214,-0.513 -0.082,-0.426 -0.124,-0.64 0.028,-0.446 0.173,0.3 0.235,0.62 0.186,0.959zm-2.626 -7.03c-0.271,2.145 -0.412,4.377 -0.46,4.716 -0.008,0.553 -0.008,0.553 -0.153,-0.193 -0.338,-1.153 0.012,-5.849 0.617,-9.819 0.619,-3.311 4.614,-19.363 4.766,-19.17 0.132,0.087 -0.39,2.718 -1.14,5.942 -2.814,12.089 -3.246,14.594 -3.63,18.524zm16.396 -2.393c-0.16,0.359 -0.43,0.739 -0.541,0.759 -0.222,0.04 -0.173,-0.3 0.409,-0.846 0.472,-0.526 0.472,-0.526 0.132,0.087zm2.796 -5.688c-0.25,0.487 -0.632,0.886 -0.763,0.799 -0.021,-0.106 -0.443,0.08 -0.624,0.333 -0.471,0.526 -0.492,0.419 -0.152,-0.193 0.16,-0.36 0.45,-0.633 0.582,-0.546 0.132,0.086 0.534,-0.206 0.915,-0.606 0.652,-0.779 0.652,-0.779 0.042,0.213zm2.635 -5.327c-0.54,0.759 -0.52,0.865 -0.977,0.286 -0.263,-0.174 -0.283,-0.28 -0.02,-0.107 0.131,0.087 0.554,-0.1 0.845,-0.373 0.361,-0.506 0.381,-0.399 0.152,0.194zm0.729 -1.565c-0.16,0.36 -0.451,0.633 -0.582,0.546 -0.132,-0.087 -0.444,0.079 -0.735,0.352 -0.361,0.506 -0.471,0.526 -0.152,-0.193 0.27,-0.38 0.562,-0.653 0.693,-0.566 0.132,0.087 0.443,-0.079 0.734,-0.352 0.361,-0.507 0.361,-0.507 0.042,0.213zm1.228 -2.538c-0.201,0.147 -0.402,0.293 -0.513,0.313 -0.111,0.02 -0.423,0.186 -0.714,0.459 -0.402,0.293 -0.402,0.293 -0.152,-0.193 0.291,-0.273 0.672,-0.672 1.005,-0.732 0.332,-0.06 0.443,-0.08 0.374,0.153zm1.158 -2.304c-0.229,0.593 -0.679,1.226 -0.88,1.372 -0.292,0.273 -0.222,0.04 0.027,-0.446 0.611,-0.993 0.638,-1.439 0.036,-1 -0.201,0.146 -0.132,-0.086 0.139,-0.466 0.77,-1.352 1.317,-0.899 0.678,0.54zm1.699 -3.063c0,0 -0.221,0.04 -0.554,0.099 -0.221,0.04 -0.464,-0.026 -0.373,-0.153 0.159,-0.36 0.865,-0.266 0.927,0.054zm0.175 -1.465c-0.222,0.039 -0.444,0.079 -0.444,0.079 -0.02,-0.107 0.16,-0.359 0.34,-0.613 0.402,-0.293 0.513,-0.313 0.575,0.008 0.042,0.213 -0.139,0.466 -0.471,0.526zm1.802 -2.531c-0.131,-0.087 -0.443,0.08 -0.713,0.459 -0.291,0.273 -0.312,0.167 0.028,-0.446 0.61,-0.992 0.61,-0.992 0.734,-0.353 0.062,0.32 -0.028,0.447 -0.049,0.34z"/>
   <path id="_4_3" fill="#FFFFFF" fill-rule="nonzero" d="M372.089 183.333c1.552,-0.279 1.954,-0.572 3.68,-2.316 2.197,-2.27 6.17,-8.39 9.167,-14.223l2.108 -3.91 0.788 2.286c2.017,6.257 5.284,10.083 9.757,11.266 1.191,0.227 2.292,0.581 2.444,0.774 0.152,0.194 0.9,0.501 1.496,0.615 1.918,0.427 4.225,-0.097 5.943,-1.289 4.061,-2.715 10.407,-14.336 17.95,-32.79 2.033,-4.889 2.527,-7.073 2.265,-9.012 -0.137,-1.299 -0.31,-1.599 -0.885,-1.607 -1.039,-0.034 -3.3,3.682 -5.791,9.756 -5.371,13.1 -8.257,18.914 -11.862,23.975 -2.434,3.415 -4.762,5.599 -6.765,6.51 -0.866,0.266 -0.977,0.286 -1.475,-0.507 -0.753,-1.519 -1.732,-7.743 -1.709,-11.167 0.05,-10.379 3.136,-24.614 11.143,-51.316 2.319,-8.139 4.61,-15.832 4.896,-17.317l0.542 -2.525 -0.962 -0.819c-0.436,-0.474 -1.163,-0.674 -1.607,-0.595 -0.443,0.08 -0.817,-0.074 -0.858,-0.287 -0.062,-0.32 -0.325,-0.493 -0.436,-0.473 -0.221,0.04 -0.748,-0.307 -1.205,-0.887 -0.588,-0.667 -0.962,-0.82 -1.848,-0.661 -0.998,0.179 -1.49,0.599 -2.821,2.603 -3.474,5.147 -9.907,21.638 -14.351,36.557l-1.16 4.069 -1.869 -0.767c-0.991,-0.374 -2.507,-1.094 -3.296,-1.614 -2.326,-1.348 -3.718,-1.429 -6.669,-0.678 -4.926,1.216 -9.867,5.303 -13.501,10.809 -4.513,6.879 -7.707,17.602 -8.019,26.042 -0.142,3.998 1.142,10.607 2.546,13.113 1.119,2.226 4.075,4.454 5.8,4.475 0.596,0.113 1.939,0.534 2.97,1.121 1.558,0.934 1.932,1.087 3.594,0.789zm53.837 -45.856c0.159,-0.359 0.319,-0.719 0.43,-0.739 0.111,-0.02 0.062,0.32 -0.098,0.679 -0.139,0.467 -0.298,0.826 -0.409,0.846 -0.111,0.02 -0.062,-0.32 0.077,-0.786zm-57.47 33.049c-0.207,-1.066 1.096,-10.898 1.49,-10.638 0.132,0.086 -0.188,2.571 -0.648,5.522 -0.348,2.931 -0.71,5.202 -0.842,5.116zm-0.147 -15.529c0.048,-0.34 0.229,-0.593 0.36,-0.506 0.132,0.086 0.083,0.426 -0.097,0.679 -0.271,0.38 -0.381,0.4 -0.263,-0.173zm22.979 1.389c-0.049,0.339 -0.022,1.658 -0.016,2.871l-0.099 2.444 -0.212 -2.278c-0.138,-1.299 -0.144,-2.511 -0.096,-2.851 0.229,-0.593 0.34,-0.613 0.423,-0.186zm6.427 8.884c-0.09,0.127 -0.242,-0.066 -0.304,-0.386 0.028,-0.447 0.008,-0.553 0.18,-0.253 0.152,0.194 0.215,0.513 0.124,0.639zm0.285 -9.759c-0.126,1.126 -0.266,3.357 -0.267,5.123 -0.022,1.659 -0.169,2.678 -0.251,2.252 -0.339,-1.153 -0.023,-6.616 0.29,-8.547 0.404,-2.059 0.528,-1.419 0.228,1.172zm-0.53 -13.364c0.021,0.107 -0.007,0.553 -0.167,0.912 -0.18,0.253 -0.27,0.38 -0.311,0.167 -0.021,-0.107 0.007,-0.553 0.166,-0.913 0.18,-0.253 0.271,-0.379 0.312,-0.166zm2.884 -12.323c-0.049,0.34 -0.25,0.486 -0.291,0.273 -0.042,-0.213 0.097,-0.679 0.167,-0.912 0.159,-0.36 0.25,-0.487 0.291,-0.273 0.041,0.213 -0.007,0.553 -0.167,0.912zm8.673 -20.313c-0.486,1.632 -0.749,1.459 -0.373,-0.153 0.208,-0.699 0.437,-1.292 0.568,-1.205 0.132,0.086 0.014,0.659 -0.195,1.358zm1.042 -3.496c-0.278,0.932 -0.597,1.651 -0.708,1.671 -0.111,0.02 0.098,-0.679 0.265,-1.592 0.298,-0.826 0.617,-1.545 0.728,-1.565 0.111,-0.019 -0.097,0.679 -0.285,1.486zm1.611 -14.742c0.222,-0.04 -0.125,1.126 -0.632,2.651 -3.567,8.804 -10.864,32.07 -12.838,40.809 -1.146,4.729 -1.445,5.555 -1.59,4.808 -0.165,-0.852 1.96,-9.399 4.301,-17.431 3.889,-13.054 10.094,-30.718 10.759,-30.837zm-9.057 15.969c1.082,-3.284 2.318,-6.374 2.401,-5.948 0.02,0.107 -0.278,0.933 -0.577,1.759 -0.319,0.719 -0.937,2.264 -1.194,3.303 -0.368,1.059 -0.805,2.351 -1.075,2.731 -0.25,0.486 -0.083,-0.427 0.445,-1.845zm-5.485 16.651c0.216,-1.253 4.09,-13.202 4.36,-13.581 0.18,-0.252 -0.632,2.651 -1.834,6.508 -1.895,6.187 -2.88,8.791 -2.526,7.073zm-0.416 1.398c0.048,-0.339 0.229,-0.592 0.36,-0.505 0.131,0.086 0.083,0.426 -0.097,0.679 -0.271,0.379 -0.382,0.399 -0.263,-0.174zm2.51 -4.201c2.937,-9.685 10.44,-30.118 11.105,-30.238 0.222,-0.039 -0.167,0.913 -1.77,5.062 -3.845,9.737 -9.705,28 -11.83,36.546 -1.216,4.962 -1.175,5.175 -1.34,4.322 -0.124,-0.639 2.078,-9.971 3.835,-15.692zm-5.182 37.116c-0.102,-2.298 0.422,-8.46 0.854,-10.965 0.216,-1.252 0.521,-2.631 0.549,-3.077 0.049,-0.34 0.278,-0.933 0.548,-1.312 0.292,-0.273 0.284,0.28 0.04,1.978 -0.305,1.38 -0.688,3.544 -0.904,4.797 -0.105,1.232 -0.474,4.056 -0.635,6.181 -0.161,2.125 -0.397,3.271 -0.452,2.398zm-1.175 -3.098c-0.063,1.445 -0.058,4.423 0.002,6.508 0.198,3.385 0.108,3.511 -0.264,1.592 -0.476,-2.451 -0.624,-7.941 -0.2,-9.893 0.403,-2.058 0.679,-1.225 0.462,1.793zm-8.517 -19.653c2.349,-2.076 3.014,-2.196 3.747,-0.783 0.976,1.479 0.927,1.82 0.023,6.615 -0.668,3.65 -1.126,4.836 -2.367,6.714 -0.881,1.372 -2.532,4.095 -3.62,6.166 -1.221,1.985 -3.371,5.68 -4.841,8.151 -1.47,2.471 -3.592,5.72 -4.694,7.132 -1.803,2.53 -1.893,2.656 -2.059,1.803 -0.269,-1.385 0.922,-9.432 1.971,-13.482 2.695,-9.751 7.21,-18.395 11.84,-22.316zm-22.707 31.328c-0.234,-2.384 0.734,-8.626 1.865,-12.249 0.487,-1.632 1.014,-3.051 1.014,-3.051 0.111,-0.02 -0.105,1.233 -0.612,2.758 -0.375,1.612 -1.014,4.816 -1.356,7.194 -0.23,2.358 -0.641,4.969 -0.739,5.649 -0.104,1.232 -0.104,1.232 -0.172,-0.301zm2.02 2.727c-0.05,2.105 -0.099,2.445 -0.285,1.485 -0.484,-1.899 -0.292,-8.001 0.307,-11.418 0.619,-3.311 1.57,-6.681 2.924,-10.344 1.214,-3.197 2.435,-5.181 1.379,-2.344 -1.881,5.082 -3.284,10.85 -3.827,15.14 -0.321,2.484 -0.587,5.842 -0.498,7.481zm1.967 -8.186c0.766,-6.096 3.897,-15.373 6.629,-19.615l0.881 -1.372 -0.729 1.565c-2.067,4.122 -4.573,11.302 -5.608,16.012 -0.286,1.485 -0.786,4.222 -1.141,5.941 -0.605,3.97 -0.715,2.225 -0.032,-2.531z"/>
   <path id="_5_4" fill="#FFFFFF" fill-rule="nonzero" d="M523.424 109.154c0.319,-0.719 0.257,-1.039 -0.311,-1.599 -0.699,-0.647 -0.81,-0.627 -1.613,-0.041 -1.407,1.025 -1.816,1.87 -2.505,5.414 -1.293,5.748 -3.035,10.364 -6.78,17.656 -5.244,10.209 -12.26,18.971 -17.36,21.652 -2.584,1.457 -2.716,1.37 -2.465,-0.881 0.398,-3.27 1.696,-7.807 4.367,-14.134 4.476,-10.622 6.471,-19.254 5.095,-22.207 -0.816,-1.839 -1.944,-3.512 -3.301,-4.592 -0.678,-0.54 -1.397,-1.294 -1.48,-1.72 -0.062,-0.32 -0.651,-0.987 -1.329,-1.526 -1.558,-0.934 -3.352,-0.723 -5.472,0.762 -3.236,2.236 -8.043,11.153 -18.331,33.19 -1.367,3.003 -6.035,11.454 -6.277,11.387 -0.284,-0.28 3.002,-12.895 4.8,-18.403 2.125,-6.781 2.577,-9.179 2.587,-13.263 -0.102,-2.298 -0.206,-2.831 -1.07,-4.33 -0.519,-0.901 -1.453,-2.167 -2.11,-2.6 -0.679,-0.54 -1.641,-1.36 -2.097,-1.94 -1.654,-2.02 -4.778,-1.57 -10.349,1.638 -4.144,2.288 -7.594,4.011 -8.591,4.191 -0.333,0.059 -1.434,-0.295 -2.334,-0.795 -1.952,-1.194 -3.303,-1.062 -5.049,0.576 -1.587,1.278 -1.727,1.744 -1.228,2.537 0.214,0.514 0.588,0.667 1.01,0.481 0.534,-0.206 0.665,-0.12 0.679,0.54 0.075,0.979 0.802,1.179 2.402,0.561 0.645,-0.226 1.552,-0.278 2.037,-0.145 0.858,0.287 0.9,0.5 1.306,3.185 0.682,5.284 -1.714,14.209 -5.404,20.609 -2.76,4.688 -7.072,9.654 -9.587,10.879 -0.735,0.352 -0.845,0.372 -1.058,-1.907 -0.426,-4.557 1.479,-13.063 5.24,-23.226 1.173,-3.41 1.847,-5.848 1.723,-6.488 -0.166,-0.852 -0.187,-0.959 -0.658,-0.433 -0.451,0.632 -0.471,0.526 -0.173,-0.3 0.208,-0.7 0.167,-0.913 -0.622,-1.433 -0.769,-0.413 -0.769,-0.413 -1.49,0.599 -1.602,2.383 -4.716,8.79 -5.64,11.714 -1.332,3.77 -1.991,5.102 -1.248,2.431 1.368,-4.769 3.783,-10.057 6.133,-13.899 1.061,-1.625 1.131,-1.858 0.293,-2.038 -0.353,-0.048 -0.616,-0.221 -0.547,-0.454 0.18,-0.253 0.028,-0.447 -0.194,-0.407 -0.221,0.04 -0.374,-0.153 -0.346,-0.599 0.216,-1.253 -2.589,-1.521 -4.529,-0.29 -2.363,1.417 -6.053,7.817 -8.288,14.617 -3.11,9.385 -2.722,18.472 1.063,23.197 1.847,2.427 3.093,3.527 4.568,4.035 0.616,0.22 1.799,1 2.609,1.627 2.603,2.18 5.317,2.575 8.013,1.098 6.326,-3.453 14.154,-15.119 16.898,-25.21 1.556,-5.575 1.786,-7.933 1.124,-11.345 -0.468,-3.004 -1.008,-4.011 -3.299,-6.357l-0.83 -0.734 4.76 -2.068c4.981,-2.108 9.622,-3.604 9.747,-2.965 0.289,1.493 -1.627,7.574 -4.548,14.387 -5.245,11.975 -6.99,20.121 -5.304,24.672 0.92,2.372 2.829,5.119 3.798,5.386 0.485,0.133 1.184,0.78 1.53,1.38 0.457,0.58 1.287,1.313 1.792,1.553 0.991,0.374 1.081,0.248 2.176,-0.611 0.672,-0.672 2.122,-3.249 4.029,-7.012 1.527,-3.363 3.414,-7.232 4.052,-8.671 0.638,-1.439 2.275,-4.821 3.482,-7.466 3.74,-8.504 7.486,-15.796 9.538,-18.813 1.983,-2.783 4.52,-5.666 4.894,-5.512 0.263,0.173 -0.452,2.398 -2.138,6.12 -3.511,7.912 -6.607,17.956 -6.839,22.08 -0.219,4.783 2.173,11.194 4.631,12.628 0.526,0.347 1.245,1.1 1.723,1.787 0.366,0.706 1.328,1.526 1.965,1.853 5.006,2.741 15.264,-7.044 24.03,-22.74 5.237,-9.656 9.304,-21.199 8.559,-25.037 -0.124,-0.639 -0.088,-1.638 0.141,-2.231zm-86.373 16.506c0.43,-0.739 -0.216,1.252 -1.791,4.955 -0.756,2.012 -1.929,5.422 -2.734,7.773 -0.695,2.331 -1.382,4.109 -1.423,3.896 -0.166,-0.853 4.756,-15.086 5.948,-16.624zm-12.894 15.113c0.174,-1.465 2.021,-7.313 3.277,-10.296 0.638,-1.439 1.727,-3.51 2.539,-4.649l1.31 -2.11 -1.318 2.663c-0.77,1.352 -1.907,3.763 -2.414,5.288 -0.618,1.545 -1.673,4.382 -2.318,6.374 -0.625,2.098 -1.083,3.283 -1.076,2.73zm1.911 0.981c-1.049,4.05 -1.097,2.624 -0.241,-1.832 1.223,-5.515 5.4,-15.312 7.299,-16.756 0.402,-0.293 0.013,0.659 -0.826,2.244 -2.06,3.57 -2.927,5.601 -4.329,9.604 -0.556,1.865 -1.458,4.895 -1.903,6.74zm22.915 -5.439c0.389,-0.953 0.618,-1.545 0.659,-1.333 0.041,0.214 -0.125,1.126 -0.514,2.079 -0.278,0.932 -0.618,1.545 -0.638,1.438 -0.042,-0.213 0.236,-1.145 0.493,-2.184zm-1.09 3.836c0.229,-0.593 0.479,-1.079 0.589,-1.099 0,0 -0.028,0.447 -0.257,1.04 -0.208,0.698 -0.458,1.185 -0.569,1.205 -0.11,0.02 0.028,-0.447 0.237,-1.146zm-0.899 7.774c-2.851,4.814 -3.274,5.001 -0.645,0.226 0.77,-1.352 2.109,-3.909 2.816,-5.581 0.819,-1.691 1.409,-2.79 1.45,-2.577 0.082,0.426 -2.242,5.588 -3.621,7.932zm4.062 -14.52c-0.14,2.231 -2.077,8.206 -3.686,11.143 -0.909,1.818 -1.859,3.422 -2.06,3.569 -0.18,0.253 0.209,-0.699 0.868,-2.031 1.699,-3.064 3.004,-6.387 4.073,-10.33 0.445,-1.845 0.833,-2.798 0.805,-2.351zm0.286 -1.485c-0.16,0.359 -0.25,0.486 -0.292,0.272 -0.041,-0.213 -0.013,-0.659 0.167,-0.912 0.16,-0.36 0.25,-0.486 0.291,-0.273 0.041,0.213 0.014,0.659 -0.166,0.913zm12.826 -0.098c0.139,-0.466 0.299,-0.826 0.409,-0.846 0.111,-0.02 0.062,0.32 0.034,0.767 -0.138,0.465 -0.409,0.845 -0.519,0.865 -0.111,0.02 -0.063,-0.32 0.076,-0.786zm-0.946 6.348c0.583,-2.311 4.852,-14 5.073,-14.04 0.111,-0.019 -1.895,6.188 -3.707,11.037 -1.652,4.488 -1.971,5.208 -1.366,3.003zm-1.48 4.789c0.209,-0.699 0.438,-1.292 0.458,-1.185 0.132,0.086 0.014,0.659 -0.195,1.359 -0.506,1.525 -0.748,1.458 -0.263,-0.174zm4.769 13.927c-0.43,0.739 -0.611,0.992 -0.673,0.672 -0.021,-0.106 0.16,-0.359 0.43,-0.739 0.582,-0.546 0.582,-0.546 0.243,0.067zm1.38 -2.344c-0.271,0.379 -0.451,0.633 -0.582,0.546 -0.132,-0.087 -0.714,0.459 -1.366,1.238l-1.123 1.305 1.061 -1.625c0.52,-0.866 1.151,-1.751 1.22,-1.984 0.181,-0.253 0.222,-0.04 0.062,0.32 -0.097,0.679 -0.097,0.679 0.485,0.133 0.562,-0.652 0.562,-0.652 0.243,0.067zm0.458 -1.186c-0.09,0.127 -0.312,0.167 -0.575,-0.007 -0.152,-0.193 -0.083,-0.426 0.118,-0.573 0.09,-0.126 0.443,-0.079 0.575,0.008 0.152,0.193 0.082,0.426 -0.118,0.572zm1.505 -3.469c0.124,0.639 0.014,0.659 -0.401,0.293 -0.153,-0.194 -0.083,-0.427 0.007,-0.553 0.201,-0.147 0.332,-0.06 0.394,0.26zm2.005 -4.442c-0.27,0.379 -0.298,0.825 -0.167,0.912 0.153,0.193 0.062,0.32 -0.27,0.379 -0.554,0.1 -0.318,-1.045 0.375,-1.612 0.291,-0.272 0.312,-0.166 0.062,0.321zm4.668 -8.451c-0.34,0.613 -0.631,0.885 -0.693,0.566 0,0 0.271,-0.38 0.541,-0.759 0.471,-0.526 0.582,-0.546 0.152,0.193zm2.075 -4.675c0,0 -0.201,0.146 -0.423,0.186 -0.332,0.06 -0.485,-0.134 -0.395,-0.26 0.049,-0.34 0.756,-0.246 0.818,0.074zm5.563 -10.928c-0.25,0.486 -0.562,0.652 -0.693,0.565 -0.111,0.02 -0.423,0.186 -0.714,0.459 -0.381,0.4 -0.381,0.4 -0.041,-0.213 0.159,-0.359 0.45,-0.632 0.582,-0.545 0.131,0.086 0.443,-0.08 0.734,-0.353 0.472,-0.526 0.472,-0.526 0.132,0.087zm2.317 -4.609c0.041,0.213 -0.028,0.447 -0.16,0.36 -0.131,-0.087 -0.533,0.206 -0.804,0.585 -0.471,0.526 -0.492,0.42 0.049,-0.339 0.77,-1.352 0.77,-1.352 0.915,-0.606zm1.92 -3.103c-0.54,0.759 -0.859,1.478 -0.839,1.585 0.416,0.367 -0.187,0.806 -0.582,0.546 -0.263,-0.173 1.769,-3.297 2.212,-3.376 0.222,-0.04 -0.118,0.572 -0.791,1.245zm3.888 15.299c0.937,-2.265 1.832,-4.742 2.151,-5.462 0.229,-0.592 0.569,-1.205 0.68,-1.225 0.221,-0.04 -0.695,2.331 -2.776,7.559 -0.847,2.138 -1.874,4.529 -2.172,5.355 -0.299,0.826 -0.618,1.545 -0.729,1.565 -0.222,0.04 0.584,-2.311 2.846,-7.792zm9.659 21.984c-0.16,0.36 -0.562,0.653 -0.784,0.693 -0.221,0.039 -0.332,0.059 -0.221,0.039 0.09,-0.126 0.36,-0.506 0.762,-0.799 0.562,-0.652 0.562,-0.652 0.243,0.067zm1.233 -1.324c-0.34,0.612 -0.631,0.885 -0.692,0.565 0,0 0.27,-0.379 0.561,-0.652 0.451,-0.633 0.471,-0.526 0.131,0.087zm1.435 -1.472c-0.361,0.506 -0.631,0.886 -0.742,0.906 -0.11,0.019 0.049,-0.34 0.299,-0.826 0.36,-0.506 0.631,-0.886 0.742,-0.906 0.11,-0.02 -0.049,0.34 -0.299,0.826zm6.927 -10.401c-0.505,-0.24 -1.858,1.658 -1.421,2.131 0.152,0.193 0.062,0.32 -0.312,0.166 -0.575,-0.007 -0.686,0.013 -0.36,0.506 0.172,0.3 0.214,0.513 0.082,0.427 -0.242,-0.067 -1.185,0.985 -2.177,2.377 -0.88,1.371 -1.49,2.364 -1.158,2.304 0.444,-0.08 0.464,0.027 0.062,0.319 -0.291,0.274 -0.603,0.44 -0.734,0.353 -0.111,0.02 -0.804,0.586 -1.567,1.385 -0.741,0.905 -1.414,1.578 -1.525,1.598 -0.11,0.019 0.34,-0.613 0.992,-1.392 0.672,-0.672 2.655,-3.456 4.548,-6.113 2.233,-3.269 3.356,-4.574 3.64,-4.294 0.152,0.193 0.172,0.3 -0.07,0.233zm0.445 -1.845c-0.25,0.486 -0.52,0.866 -0.631,0.886 -0.111,0.02 0.049,-0.34 0.298,-0.826 0.271,-0.38 0.652,-0.779 0.763,-0.799 0,0 -0.049,0.34 -0.43,0.739zm1.11 -1.964c-0.271,0.379 -0.541,0.759 -0.652,0.779 -0.111,0.02 0.048,-0.34 0.319,-0.719 0.25,-0.487 0.631,-0.886 0.742,-0.906 0.111,-0.02 -0.049,0.34 -0.409,0.846zm0.998 -1.945c-0.319,0.719 -0.63,0.886 -0.672,0.672 -0.021,-0.106 0.25,-0.486 0.541,-0.759 0.471,-0.526 0.471,-0.526 0.131,0.087zm0.84 -1.585c-0.34,0.613 -0.631,0.886 -0.673,0.673 -0.021,-0.107 0.25,-0.487 0.541,-0.76 0.471,-0.525 0.471,-0.525 0.132,0.087z"/>
  </g>
 </g>
</svg>
