<?xml version="1.0" encoding="UTF-8"?>
<!DOCTYPE svg PUBLIC "-//W3C//DTD SVG 1.1//EN" "http://www.w3.org/Graphics/SVG/1.1/DTD/svg11.dtd">
<!-- Creator: CorelDRAW 2021 (64-Bit) -->
<svg xmlns="http://www.w3.org/2000/svg" xml:space="preserve" width="500px" height="500px" version="1.1" style="shape-rendering:geometricPrecision; text-rendering:geometricPrecision; image-rendering:optimizeQuality; fill-rule:evenodd; clip-rule:evenodd"
viewBox="0 0 500 500"
 xmlns:xlink="http://www.w3.org/1999/xlink"
 xmlns:xodm="http://www.corel.com/coreldraw/odm/2003">
 <defs>
  <style type="text/css">
   <![CDATA[
    .fil1 {fill:#FEFEFE;fill-rule:nonzero}
    .fil0 {fill:#FFCC29;fill-rule:nonzero}
    .fil2 {fill:#C53538;fill-rule:nonzero}
   ]]>
  </style>
 </defs>
 <g id="Capa_x0020_1">
  <metadata id="CorelCorpID_0Corel-Layer"/>
  <g id="_1310840290576">
   <path class="fil0" d="M11.29 194c0.27,0 0.54,0.09 0.54,0.26 0.01,0.18 0.19,0.17 0.46,0.09 0.27,-0.09 0.36,0 0.27,0.34 -0.26,0.61 0.38,1.31 1.11,1.31 0.27,-0.01 1.6,-0.97 2.84,-2.19 2.31,-2.09 7.3,-5.94 7.48,-5.76 0.09,0.08 -0.43,1.3 -1.03,2.7 -3.21,7.57 -4.21,12.45 -3.17,15.4 0.66,1.65 3.33,4.6 4.23,4.59 0.27,0 0.82,0.26 1.19,0.7 0.91,0.86 1.63,0.86 2.34,0.16 0.53,-0.61 1.83,-4 2.94,-7.75 1.01,-3.65 4.3,-11.75 7.09,-17.59 2.17,-4.79 2.52,-5.31 3.51,-5.75 1.51,-0.78 8.79,-2.72 13.37,-3.69 5.84,-1.24 17.99,-2.76 18,-2.23 0,0.08 -1.3,3.13 -2.86,6.87 -3.38,8.1 -7.91,17.25 -10.8,21.95 -2.81,4.54 -2.9,4.8 -2.7,5.84 0.2,1.04 1.95,3.38 2.31,3.21 0.09,-0.09 0.45,0.08 0.73,0.34 0.28,0.26 0.92,1.05 1.56,1.74 0.92,1.04 1.19,1.13 2.28,1.12 0.72,0 1.44,-0.18 1.88,-0.53 1.87,-1.57 7.64,-12.28 11.89,-22.04 2.16,-5.05 6.05,-15.23 6.47,-16.98 0.17,-0.43 0.34,-0.87 0.43,-0.95 0.09,-0.09 1.17,0.08 2.35,0.42 1.18,0.35 2.36,0.52 2.72,0.52 0.36,0 1,0.34 1.36,0.78l0.74 0.78 0.62 -0.62c0.44,-0.43 0.53,-0.78 0.34,-1.3 -0.2,-0.78 -2.04,-3.04 -4.42,-5.38l-1.84 -1.73 0.34 -1.31c1.01,-4.09 1.67,-7.66 2.08,-10.27 0.47,-3.82 0.37,-9.65 -0.21,-12.26 -0.59,-2.52 -2.18,-5.56 -3.83,-7.55 -0.74,-0.87 -1.75,-2.17 -2.22,-2.86 -1.67,-2.78 -4.58,-4.51 -7.83,-4.76 -5.15,-0.24 -10.33,2.73 -18.66,10.93 -4.44,4.45 -7.97,8.55 -12.03,14.13 -3.17,4.18 -8.09,11.77 -10.19,15.51 -1.57,2.88 -2.01,3.4 -2.91,3.75 -4.93,2.02 -11.89,5.87 -14.92,8.4 -4,3.31 -5.76,5.84 -5.71,8.36 0.02,1.66 0.96,3.31 1.86,3.3zm16.39 14.47c-0.26,0.7 -0.52,1.39 -0.61,1.48 -0.17,0.18 -0.09,-0.35 0.17,-1.13 0.25,-0.78 0.42,-1.48 0.42,-1.65 0,-0.18 0.08,-0.18 0.18,-0.09 0.09,0.09 0.01,0.7 -0.16,1.39zm3.94 -11.92c-0.86,2.17 -2.06,5.74 -2.83,8.09 -0.51,1.83 -0.86,2.53 -0.87,1.83 -0.02,-0.96 3.85,-11.84 4.12,-11.58 0.1,0.09 -0.16,0.79 -0.42,1.66zm30.55 9.03c2.98,-5.23 7.59,-14.9 11.14,-23.61 1.9,-4.53 2.43,-5.31 0.88,-1.22 -3.45,8.97 -7.54,17.68 -10.87,23.35 -1.14,2 -2.28,3.74 -2.37,3.83 -0.18,0.09 0.34,-0.96 1.22,-2.35zm-2.53 4.61c-0.18,0.44 -0.36,0.53 -0.36,0.18 -0.01,-0.18 0.08,-0.35 0.26,-0.44 0.18,-0.17 0.18,0 0.1,0.26zm3.24 0.17c-0.61,0.78 -1.14,1.39 -1.32,1.39 -0.18,0 -0.01,-0.43 0.43,-0.96 1.59,-2.09 5.27,-8.45 7.79,-13.59 1.48,-3.05 2.7,-5.48 2.7,-5.4 0.01,0.35 -2.51,5.92 -4.25,9.32 -1.92,3.83 -3.94,7.32 -5.35,9.24zm5.46 -2.89c-0.18,0.26 -0.35,0.52 -0.45,0.52 -0.09,0 0,-0.26 0.18,-0.52 0.08,-0.35 0.35,-0.61 0.44,-0.61 0.09,0 0,0.26 -0.17,0.61zm2.53 -4.88c-0.96,1.92 -1.75,3.4 -1.84,3.4 -0.18,0 0.17,-0.7 1.13,-2.61 0.88,-1.57 4.52,-9.67 6.51,-14.46 0.44,-1.04 0.87,-1.92 0.96,-1.83 0.28,0.26 -4.15,10.36 -6.76,15.5zm1.91 -14.79c-3.55,8.45 -7.83,16.55 -11.79,22.56 -0.61,0.96 -1.15,1.4 -1.15,0.96 -0.01,-0.08 0.7,-1.22 1.49,-2.52 2.19,-3.31 4.2,-6.97 7.08,-12.9 2.26,-4.53 7.03,-15.59 8.59,-19.68 0.25,-0.87 0.6,-1.48 0.69,-1.39 0.19,0.26 -2.23,6.7 -4.91,12.97zm6.38 -48.02c1.27,0.6 1.21,7.04 -0.21,14.09 -0.57,3.22 -2.27,9.4 -3.04,11.57l-0.35 0.7 -7.12 0.2c-7.03,0.19 -10.1,0.46 -16.66,1.7 -4.49,0.71 -4.31,0.8 -3.52,-0.51 1.05,-1.74 4.75,-6.88 6.96,-9.59 9.7,-12.29 20.03,-20.15 23.94,-18.16zm-30.68 24.88c-0.35,0.52 -0.62,0.61 -0.63,0.44 0,-0.09 0.18,-0.26 0.54,-0.52 0.44,-0.35 0.44,-0.35 0.09,0.08zm0.37 -4.61c0.44,-0.35 0.44,-0.35 0.09,0.09 -0.18,0.26 -0.44,0.52 -0.44,0.52 -0.27,0 -0.1,-0.26 0.35,-0.61zm1.59 -1.92c-0.44,0.53 -0.62,0.61 -0.62,0.44 -0.01,-0.09 0.17,-0.35 0.44,-0.52 0.53,-0.35 0.53,-0.35 0.18,0.08zm0.26 -0.69c0,-0.09 0.17,-0.35 0.44,-0.53 0.44,-0.35 0.53,-0.35 0.18,0.09 -0.44,0.52 -0.62,0.61 -0.62,0.44zm2.29 -2.97l0.98 -0.78 -0.71 0.87c-0.44,0.52 -0.79,0.96 -0.97,0.96 -0.36,0 -0.28,-0.18 0.7,-1.05zm3.27 -3.75c0.18,-0.09 -0.17,0.44 -0.79,1.13 -0.62,0.79 -1.15,1.4 -1.24,1.4 -0.18,0 1.59,-2.27 2.03,-2.53zm9.38 -10.46c-7.1,6.28 -13.47,13.61 -20.68,24.33 -2.11,3.13 -3.96,5.75 -4.14,5.75 -0.45,0 4.65,-7.76 8.88,-13.42 4.76,-6.37 10.16,-12.12 14.25,-15.44 2.85,-2.36 3.74,-2.97 1.69,-1.22zm-2.88 0.18c0.44,-0.35 -0.8,0.96 -2.75,2.88 -5.85,5.84 -11.24,12.47 -16.95,21.19 -1.67,2.52 -3.25,4.96 -3.51,5.49 -0.35,0.52 -0.7,0.87 -0.98,0.87 -0.54,0 5.26,-8.89 9.76,-14.82 4.14,-5.49 11.31,-13.17 14.43,-15.61zm-17.37 17.8c2.38,-3.32 7.06,-9.16 7.5,-9.42 0.18,-0.09 -0.88,1.22 -2.29,3.05 -2.91,3.49 -8.81,11.94 -11.44,16.21 -1.58,2.62 -2.37,3.75 -2.38,3.32 -0.01,-0.53 5.53,-8.98 8.61,-13.16zm-7.35 23.5c0,0.09 -0.6,1.57 -1.48,3.31 -0.87,1.65 -1.57,2.96 -1.57,2.87 -0.01,-0.43 2.87,-6.27 3.05,-6.18zm-3.04 6.53c0,0.09 -0.61,1.48 -1.3,3.05 -1.22,2.79 -1.57,3.48 -1.57,3.14 -0.01,-0.52 2.77,-6.62 2.87,-6.19zm-2.55 -1.38c-3.13,7.05 -5.11,12.02 -6.56,17.24 -0.59,2 -1.12,2.79 -0.79,1.22 0.34,-1.39 1.87,-6.44 2.56,-8.44 0.95,-2.53 4.16,-10.02 5.29,-12.2 1.39,-2.87 1.15,-1.56 -0.5,2.18zm-1.22 -2.52c0.97,-1.22 0.55,0.09 -1.19,3.92 -2.52,5.66 -4.5,11.23 -5.42,15.06 -0.93,3.66 -1.19,4.27 -0.96,2 0.39,-3.3 1.85,-7.74 4.97,-15.14 1.21,-2.96 2.43,-5.58 2.6,-5.84zm-1.34 0.44c0.18,0 -0.69,2.18 -1.81,4.88 -1.13,2.61 -2.77,6.7 -3.45,9.05 -0.78,2.27 -1.55,4.62 -1.72,5.14l-0.25 1.04 0.07 -1.21c0.15,-1.57 1.52,-5.84 3.08,-9.75 1.98,-4.97 3.9,-9.15 4.08,-9.15zm-14.88 5.35c-0.7,1.22 -2.28,3.66 -2.29,3.49 0,-0.44 1.05,-2.35 1.84,-3.22 0.45,-0.44 0.62,-0.61 0.45,-0.27zm-1.63 -0.08c0.1,0.09 -0.16,0.79 -0.6,1.66 -0.69,1.48 -1.14,1.83 -0.8,0.78 0.26,-0.87 1.31,-2.61 1.4,-2.44zm-1.61 0.79c0.18,-0.26 0.27,-0.26 0.27,-0.17 0,0.17 -0.08,0.52 -0.26,0.78 -0.17,0.17 -0.26,0.26 -0.26,0.09 -0.01,-0.18 0.08,-0.44 0.25,-0.7z"/>
   <path id="_1" class="fil0" d="M144.97 174.52c-2.48,2.53 -6.91,7.5 -8.32,9.42 -0.88,1.13 -2.73,3.57 -4.14,5.41 -3.8,4.97 -7.34,8.72 -10.01,10.46 -1.16,0.88 -1.25,0.88 -1.27,-0.08 -0.03,-1.91 1.43,-5.83 6.37,-17.76 4.33,-10.54 4.73,-13.41 1.89,-15.83 -0.64,-0.52 -1.46,-1.13 -1.83,-1.3 -0.36,-0.17 -0.82,-0.69 -1.01,-1.13 -0.37,-0.87 -1.46,-1.3 -2.72,-0.95 -0.99,0.18 -4.62,3.85 -6.83,6.72 -2.38,3.14 -7.57,10.72 -10.38,15.25 -5.27,8.2 -8.79,12.9 -8.81,11.77 -0.12,-1.47 2.98,-10.44 5.66,-16.62 3.21,-7.41 4.42,-10.63 4.4,-11.59 -0.01,-0.6 -1.38,-1.99 -1.74,-1.82 -0.18,0.09 -0.36,0 -0.46,-0.26 -0.09,-0.26 -0.27,-0.34 -0.45,-0.26 -0.18,0.09 -0.46,-0.17 -0.55,-0.51 -0.19,-0.44 -0.56,-0.87 -0.92,-1.05 -2,-1.03 -4.83,2.19 -8.67,10.03 -4.27,8.54 -5.86,15.76 -4.6,20.54 0.48,2 2.33,4.6 3.51,5.03 0.54,0.18 1.09,0.61 1.28,0.87 0.83,1.04 2.1,1.73 3.36,1.73 1.09,-0.01 1.54,-0.18 2.6,-1.14 1.69,-1.66 3.89,-4.71 7.92,-11.51 3.51,-5.75 8.08,-12.63 8.26,-12.37 0.09,0 -0.34,1.04 -0.86,2.35 -3.98,9.49 -4.77,16.19 -2.35,20.44 0.65,1.31 2.39,2.6 3.75,2.95 0.63,0.17 1.27,0.51 1.54,0.78 0.19,0.17 0.73,0.51 1.28,0.6 0.45,0.17 1.08,0.26 1.26,0.17 0.27,-0.09 0.63,-0.09 0.81,-0.09 0.9,0 4.01,-2.71 6.05,-5.24 2.56,-3.14 7.4,-9.85 11.44,-15.95 1.68,-2.35 3.79,-5.49 4.76,-6.8 1.49,-2.09 1.67,-2.35 1.21,-2.78 -0.46,-0.44 -0.55,-0.35 -1.43,0.52zm-39.98 -1.43c0.08,-0.26 0.26,-0.44 0.36,-0.35 0.09,0.08 0,0.35 -0.18,0.52 -0.26,0.26 -0.35,0.26 -0.18,-0.17zm-5.79 14.54c-0.77,2.18 -1.38,3.48 -1.21,2.96 0.16,-1.04 2.31,-7.23 2.49,-7.05 0,0.08 -0.51,1.91 -1.28,4.09zm2.24 -5.83c-0.17,0.17 -0.26,0.26 -0.27,0.08 0,-0.17 0.09,-0.43 0.26,-0.69 0.18,-0.27 0.27,-0.27 0.27,-0.18 0,0.18 -0.08,0.52 -0.26,0.79zm1.39 -3.14c-0.09,0.17 -0.26,0.26 -0.27,0.09 0,-0.18 0.17,-0.44 0.26,-0.7 0.18,-0.26 0.36,-0.26 0.36,-0.17 0,0.17 -0.17,0.52 -0.35,0.78zm0.87 -2c-0.09,0.17 -0.27,0.26 -0.27,0.09 0,-0.18 0.17,-0.44 0.26,-0.7 0.17,-0.26 0.26,-0.26 0.27,-0.18 0,0.18 -0.09,0.52 -0.26,0.79zm-3.16 -5.56c0.08,-0.26 0.26,-0.43 0.35,-0.35 0.09,0.09 0.01,0.35 -0.17,0.52 -0.27,0.27 -0.36,0.27 -0.18,-0.17zm-7.1 17.33c0.32,-2.17 2.13,-7.14 4.49,-11.84 1.21,-2.61 2.35,-4.79 2.35,-4.7 0.09,0.08 -0.69,1.82 -1.74,3.91 -0.95,2.09 -2.26,4.97 -2.77,6.36 -0.61,1.48 -1.38,3.66 -1.72,5.05 -0.43,1.31 -0.69,1.92 -0.61,1.22zm1.45 0.17c-0.69,2.26 -0.95,2.87 -0.78,1.91 0.14,-1.91 1.6,-6.61 2.72,-9.48 1.73,-4.18 6.44,-13.24 6.8,-13.24 0.1,0 -1.21,2.7 -2.78,5.92 -1.57,3.22 -3.39,7.14 -3.91,8.71 -0.6,1.57 -1.54,4.35 -2.05,6.18zm1.33 -1.14c-0.11,-1.3 7.35,-18.28 7.98,-18.28 0.09,0 -1.04,2.7 -2.6,6.01 -1.57,3.3 -3.21,7.22 -3.82,8.62 -1.21,3.22 -1.47,3.83 -1.56,3.65zm1.27 5.57c-0.18,0.35 -0.26,0.43 -0.27,0.17 0,-0.26 0.17,-0.7 0.25,-1.04 0.18,-0.35 0.27,-0.44 0.27,-0.18 0.01,0.26 -0.08,0.7 -0.25,1.05zm31.26 -17.76c0,0 -0.6,1.74 -1.38,3.74 -1.47,3.66 -1.64,4.18 -1.65,3.66 -0.1,-0.43 2.84,-7.57 3.03,-7.4zm-4.66 -3.2c0.7,-1.48 1.31,-2.61 1.4,-2.62 0.27,0 -0.68,2.27 -3.81,9.15 -1.48,3.13 -2.78,6.1 -2.95,6.53l-0.35 0.7 0.17 -0.7c0.07,-0.7 2.24,-5.66 5.54,-13.06zm-7.28 1.59c0.62,-0.87 0.89,-1.05 0.45,-0.27 -0.17,0.35 -0.44,0.7 -0.62,0.79 -0.18,0.09 -0.09,-0.17 0.17,-0.52zm-1.14 1.48c0.26,-0.26 0.62,-0.52 0.62,-0.52 0.09,0 -0.09,0.26 -0.35,0.52 -0.27,0.35 -0.53,0.61 -0.62,0.61 -0.09,0 0.08,-0.26 0.35,-0.61zm-0.71 0.96c0.18,-0.09 0.1,0.17 -0.17,0.61 -0.26,0.43 -0.53,0.7 -0.62,0.7 -0.18,0 0.44,-1.05 0.79,-1.31zm-5.62 8.45c0.09,0 -0.09,0.35 -0.26,0.79 -0.61,1.13 -1.58,2.52 -1.58,2.35 -0.01,-0.26 1.75,-3.14 1.84,-3.14zm-3.08 4.88c0.18,-0.35 0.44,-0.61 0.54,-0.61 0.08,0 0,0.26 -0.17,0.61 -0.18,0.35 -0.36,0.52 -0.45,0.52 -0.09,0 0,-0.17 0.08,-0.52zm-0.52 0.96c0.18,-0.09 0.09,0.17 -0.17,0.61 -0.26,0.35 -0.53,0.7 -0.62,0.7 -0.18,0 0.52,-1.05 0.79,-1.31zm-4.29 7.67c-0.17,0.26 -0.44,0.52 -0.53,0.52 -0.18,0 0,-0.26 0.44,-0.61 0.45,-0.35 0.45,-0.35 0.09,0.09zm2.65 -3.58c-0.88,1.31 -1.76,2.53 -1.94,2.7 -0.45,0.35 3.16,-5.05 3.69,-5.66 0.44,-0.35 0.01,0.35 -1.75,2.96zm3.95 -6.18c-0.79,1.3 -1.58,2.52 -1.76,2.7 -0.36,0.26 -0.36,0.17 2.01,-3.66 0.88,-1.4 1.58,-2.44 1.67,-2.44 0.18,0 -0.26,0.61 -1.92,3.4zm2.08 -4.88c-0.18,0 0.43,-1.05 0.79,-1.31 0.18,-0.09 0.09,0.18 -0.17,0.61 -0.27,0.35 -0.53,0.7 -0.62,0.7zm2.13 -1.83c-0.35,0.52 -0.79,1.22 -1.05,1.56l-0.62 0.7 0.52 -0.87c0.26,-0.44 0.7,-1.22 1.06,-1.57l0.53 -0.69 -0.44 0.87zm0.97 -1.49c-0.36,0.44 -0.53,0.62 -0.54,0.35 0,0 0.18,-0.26 0.44,-0.52 0.45,-0.35 0.54,-0.26 0.1,0.17zm0.97 -1.39c-0.27,0.35 -0.53,0.7 -0.62,0.7 -0.18,0 0.52,-1.05 0.88,-1.31 0.08,-0.09 0.09,0.17 -0.26,0.61zm2.2 -3.05c-0.79,1.13 -1.59,2.09 -1.59,2.09 -0.36,0 4.4,-6.19 5.2,-6.89 0.36,-0.26 0.01,0.26 -0.79,1.14 -0.71,0.87 -1.94,2.52 -2.82,3.66zm-0.66 19.39c0.24,-1.74 1,-4.87 1.09,-4.69 0.09,-0.01 -0.15,1.39 -0.4,2.87 -0.58,2.95 -1.1,4.09 -0.69,1.82zm1.37 0.78c-0.16,1.39 -0.24,1.74 -0.34,1.22 -0.59,-2.43 1.72,-9.92 6.07,-19.41 1.65,-3.57 3.21,-7.06 3.38,-7.75 0.26,-0.61 0.52,-0.96 0.62,-0.79 0.18,0.44 -1.03,3.4 -3.81,9.49 -2.69,5.84 -4.08,9.32 -5.01,12.72 -0.43,1.39 -0.84,3.39 -0.91,4.52zm3.11 2.77c-0.09,0.18 -0.09,0 -0.1,-0.43 0,-0.35 -0.01,-0.52 0.09,-0.35 0.09,0.26 0.1,0.52 0.01,0.78zm-1.09 -5.9c-0.52,1.65 -0.94,3.39 -1.02,3.65 -0.09,0.44 -0.09,0.44 -0.1,-0.17 -0.1,-0.96 0.83,-4.62 1.86,-7.66 0.94,-2.53 6.33,-14.63 6.42,-14.46 0.09,0.09 -0.68,2.09 -1.73,4.53 -3.9,9.14 -4.58,11.06 -5.43,14.11zm13.26 0.39c-0.17,0.26 -0.44,0.52 -0.53,0.52 -0.18,0 -0.1,-0.26 0.44,-0.61 0.44,-0.35 0.44,-0.35 0.09,0.09zm3 -4.1c-0.27,0.35 -0.62,0.61 -0.72,0.52 0,-0.08 -0.36,0.01 -0.53,0.18 -0.45,0.35 -0.45,0.26 -0.1,-0.17 0.18,-0.27 0.45,-0.44 0.54,-0.35 0.09,0.08 0.45,-0.09 0.8,-0.35 0.63,-0.53 0.63,-0.53 0.01,0.17zm2.82 -3.84c-0.54,0.53 -0.53,0.61 -0.81,0.09 -0.19,-0.17 -0.19,-0.26 -0.01,-0.08 0.1,0.08 0.45,-0.01 0.72,-0.18 0.36,-0.35 0.36,-0.26 0.1,0.17zm0.79 -1.13c-0.18,0.26 -0.45,0.44 -0.54,0.35 -0.09,-0.09 -0.36,0 -0.63,0.18 -0.35,0.35 -0.44,0.35 -0.09,-0.18 0.27,-0.26 0.54,-0.43 0.63,-0.35 0.09,0.09 0.36,0 0.62,-0.17 0.36,-0.35 0.36,-0.35 0.01,0.17zm1.32 -1.83c-0.18,0.09 -0.36,0.18 -0.45,0.18 -0.09,0 -0.36,0.08 -0.62,0.26 -0.36,0.17 -0.36,0.17 -0.1,-0.18 0.27,-0.17 0.63,-0.43 0.9,-0.43 0.27,0 0.36,0 0.27,0.17zm1.23 -1.66c-0.26,0.44 -0.7,0.88 -0.88,0.96 -0.27,0.18 -0.18,0 0.08,-0.34 0.62,-0.7 0.71,-1.05 0.17,-0.79 -0.18,0.09 -0.09,-0.08 0.17,-0.35 0.8,-0.96 1.17,-0.52 0.46,0.52zm1.77 -2.18c0,0 -0.18,0 -0.45,0.01 -0.18,0 -0.36,-0.09 -0.28,-0.18 0.18,-0.26 0.72,-0.09 0.73,0.17zm0.34 -1.13c-0.18,0 -0.36,0 -0.36,0 0,-0.08 0.17,-0.26 0.35,-0.43 0.36,-0.18 0.45,-0.18 0.46,0.08 0,0.18 -0.18,0.35 -0.45,0.35zm1.77 -1.74c-0.09,-0.09 -0.36,0 -0.62,0.26 -0.27,0.18 -0.27,0.09 0.08,-0.35 0.62,-0.69 0.62,-0.69 0.63,-0.17 0,0.26 -0.08,0.34 -0.09,0.26z"/>
   <path id="_2" class="fil0" d="M144.61 206.18c1.26,-0.01 1.62,-0.18 3.23,-1.32 2.04,-1.48 6.03,-5.76 9.2,-9.94l2.21 -2.79 0.3 1.91c0.72,5.22 2.77,8.69 6.13,10.24 0.91,0.35 1.73,0.78 1.82,0.95 0.1,0.18 0.64,0.52 1.1,0.7 1.45,0.6 3.34,0.51 4.86,-0.19 3.58,-1.58 10.2,-9.86 18.72,-23.37 2.28,-3.57 2.98,-5.23 3.04,-6.79 0.07,-1.05 -0.03,-1.31 -0.48,-1.39 -0.81,-0.17 -3.11,2.44 -5.92,6.89 -6.06,9.58 -9.14,13.76 -12.69,17.26 -2.39,2.35 -4.53,3.75 -6.24,4.19 -0.72,0.09 -0.81,0.09 -1.09,-0.6 -0.38,-1.31 -0.29,-6.35 0.2,-9.05 1.48,-8.18 5.9,-18.98 15.92,-38.92 2.96,-6.1 5.84,-11.85 6.27,-12.98l0.78 -1.92 -0.64 -0.78c-0.28,-0.43 -0.83,-0.69 -1.19,-0.69 -0.36,0 -0.63,-0.17 -0.64,-0.35 0,-0.26 -0.18,-0.43 -0.27,-0.43 -0.18,0 -0.55,-0.35 -0.83,-0.87 -0.37,-0.6 -0.65,-0.78 -1.37,-0.78 -0.81,0.01 -1.26,0.27 -2.58,1.67 -3.46,3.57 -10.82,15.69 -16.4,26.83l-1.48 3.05 -1.37 -0.86c-0.73,-0.43 -1.83,-1.21 -2.38,-1.73 -1.64,-1.39 -2.73,-1.65 -5.16,-1.47 -4.06,0.28 -8.52,2.81 -12.15,6.65 -4.52,4.8 -8.53,12.81 -9.95,19.43 -0.66,3.13 -0.57,8.52 0.19,10.69 0.57,1.92 2.59,4.08 3.95,4.34 0.45,0.17 1.46,0.69 2.19,1.3 1.09,0.95 1.37,1.12 2.72,1.12zm48.84 -28.68c0.17,-0.27 0.35,-0.53 0.44,-0.53 0.09,0 0,0.26 -0.17,0.52 -0.18,0.35 -0.35,0.61 -0.44,0.61 -0.09,0 -0.01,-0.26 0.17,-0.6zm-49.92 18.07c-0.02,-0.87 2.38,-8.44 2.65,-8.18 0.09,0.08 -0.51,2 -1.28,4.26 -0.68,2.27 -1.28,4.01 -1.37,3.92zm2.04 -12.27c0.09,-0.26 0.26,-0.43 0.35,-0.34 0.1,0.08 0.01,0.34 -0.17,0.52 -0.26,0.26 -0.35,0.26 -0.18,-0.18zm17.93 4.29c-0.09,0.26 -0.25,1.31 -0.41,2.27l-0.42 1.91 0.15 -1.83c0.07,-1.04 0.23,-2 0.32,-2.26 0.26,-0.43 0.35,-0.43 0.36,-0.09zm3.83 7.9c-0.09,0.09 -0.18,-0.08 -0.18,-0.34 0.08,-0.35 0.08,-0.44 0.17,-0.18 0.1,0.18 0.1,0.44 0.01,0.52zm1.58 -7.65c-0.25,0.87 -0.67,2.61 -0.92,4 -0.25,1.31 -0.5,2.09 -0.51,1.74 -0.11,-0.95 0.9,-5.22 1.42,-6.7 0.6,-1.57 0.61,-1.04 0.01,0.96zm1.45 -10.62c0,0.09 -0.09,0.44 -0.26,0.7 -0.18,0.17 -0.27,0.26 -0.27,0.09 0,-0.09 0.08,-0.44 0.26,-0.7 0.17,-0.17 0.26,-0.26 0.27,-0.09zm3.98 -9.32c-0.08,0.27 -0.26,0.35 -0.27,0.18 0,-0.17 0.18,-0.52 0.26,-0.7 0.18,-0.26 0.27,-0.35 0.27,-0.17 0,0.17 -0.08,0.43 -0.26,0.69zm9.67 -14.81c-0.61,1.22 -0.8,1.05 -0.28,-0.17 0.27,-0.53 0.53,-0.96 0.62,-0.88 0.09,0.09 -0.08,0.53 -0.34,1.05zm1.3 -2.61c-0.34,0.69 -0.7,1.22 -0.79,1.22 -0.09,0 0.17,-0.53 0.43,-1.22 0.35,-0.61 0.71,-1.14 0.8,-1.14 0.09,0 -0.18,0.53 -0.44,1.14zm3.32 -11.41c0.19,0 -0.25,0.87 -0.86,2.01 -4.04,6.44 -13.03,23.78 -15.8,30.4 -1.56,3.57 -1.91,4.18 -1.92,3.57 -0.02,-0.7 2.85,-7.14 5.81,-13.15 4.88,-9.76 12.23,-22.82 12.77,-22.83zm-9.36 11.34c1.31,-2.44 2.71,-4.71 2.72,-4.36 0,0.09 -0.35,0.7 -0.7,1.31 -0.35,0.52 -1.05,1.66 -1.4,2.44 -0.44,0.78 -0.96,1.74 -1.23,2 -0.26,0.35 0,-0.35 0.61,-1.39zm-6.64 12.37c0.35,-0.96 5.06,-9.84 5.33,-10.11 0.17,-0.17 -0.87,2.01 -2.35,4.88 -2.36,4.62 -3.5,6.54 -2.98,5.23zm-0.52 1.04c0.08,-0.26 0.26,-0.43 0.35,-0.34 0.09,0.08 0.01,0.34 -0.17,0.52 -0.27,0.26 -0.36,0.26 -0.18,-0.18zm2.56 -2.96c3.66,-7.23 12.42,-22.3 12.96,-22.31 0.18,0 -0.25,0.7 -2.1,3.75 -4.38,7.15 -11.54,20.74 -14.41,27.18 -1.65,3.74 -1.64,3.92 -1.65,3.22 -0.01,-0.52 3.02,-7.57 5.2,-11.84zm-9.25 28.55c0.24,-1.82 1.51,-6.61 2.2,-8.53 0.35,-0.95 0.78,-2 0.86,-2.35 0.09,-0.26 0.35,-0.69 0.62,-0.96 0.27,-0.17 0.18,0.27 -0.24,1.57 -0.44,1.05 -1.04,2.7 -1.39,3.66 -0.25,0.96 -0.93,3.13 -1.36,4.79 -0.42,1.65 -0.76,2.52 -0.69,1.82zm-0.49 -2.6c-0.25,1.13 -0.66,3.48 -0.9,5.13 -0.32,2.7 -0.41,2.78 -0.43,1.22 -0.04,-2 0.61,-6.35 1.21,-7.83 0.61,-1.57 0.71,-0.87 0.12,1.48zm-3.99 -16.69c2.14,-1.31 2.69,-1.31 3.07,-0.1 0.56,1.31 0.48,1.57 -0.9,5.23 -1.04,2.78 -1.56,3.65 -2.8,4.96 -0.89,0.96 -2.57,2.88 -3.72,4.36 -1.23,1.4 -3.45,4.01 -4.95,5.76 -1.5,1.74 -3.63,4.01 -4.69,4.97 -1.78,1.75 -1.86,1.83 -1.87,1.14 -0.02,-1.13 2.03,-7.31 3.42,-10.36 3.48,-7.32 8.25,-13.51 12.44,-15.96zm-22.26 21.55c0.15,-1.91 1.78,-6.7 3.17,-9.4 0.61,-1.22 1.23,-2.26 1.23,-2.26 0.09,0 -0.26,0.95 -0.87,2.09 -0.52,1.22 -1.47,3.65 -2.07,5.48 -0.51,1.83 -1.19,3.83 -1.37,4.36 -0.25,0.95 -0.25,0.95 -0.09,-0.27zm1.21 2.44c-0.33,1.65 -0.41,1.91 -0.43,1.13 -0.12,-1.57 0.88,-6.35 1.83,-8.97 0.95,-2.52 2.17,-5.05 3.75,-7.75 1.4,-2.35 2.64,-3.75 1.41,-1.65 -2.19,3.74 -4.1,8.1 -5.12,11.4 -0.6,1.92 -1.28,4.53 -1.44,5.84zm2.69 -6.19c1.45,-4.7 5.21,-11.58 7.96,-14.55l0.88 -0.96 -0.79 1.14c-2.2,2.96 -5.18,8.28 -6.65,11.85 -0.43,1.13 -1.21,3.22 -1.72,4.52 -1.03,3.05 -0.88,1.66 0.32,-2z"/>
   <path id="_3" class="fil0" d="M199.48 161.56c-1.15,0.87 -6.15,9.33 -8.41,14.29 -5.38,12.19 -7.78,19.42 -7.7,23.85 0.03,1.57 1.23,3.39 2.22,3.39 1.08,-0.01 1.63,0.34 1.64,0.77 0,0.27 0.28,0.7 0.56,0.96 0.36,0.43 0.54,0.43 0.81,0.26 0.36,-0.26 0.45,-0.26 0.45,0 0.01,0.26 0.19,0.17 0.54,-0.18 0.36,-0.26 0.62,-0.61 0.62,-0.78 -0.01,-0.44 2.7,-5.66 4.45,-8.71 4.03,-6.8 8.35,-12.64 12.87,-17.09 2.84,-2.88 4.71,-4.19 6.5,-4.63 1.35,-0.44 2.25,-0.27 4.89,0.68 1.81,0.69 1.99,0.78 3.25,0.34 0.72,-0.18 1.34,-0.53 1.43,-0.7 0.34,-1.22 -8.04,-6.15 -10.93,-6.49 -2.44,-0.25 -4.77,0.71 -7.53,3.15 -0.53,0.61 -1.15,1.05 -1.15,1.05 -0.09,0 0.25,-0.96 0.69,-2 0.86,-2.09 1.1,-4 0.47,-4 -0.09,0 -0.28,-0.17 -0.28,-0.44 0,-0.17 -0.28,-0.52 -0.64,-0.69 -0.37,-0.17 -0.82,-0.52 -1.01,-0.78 -0.28,-0.35 -0.37,-0.35 -0.81,0.26 -0.52,0.79 -0.62,0.61 -0.18,-0.43 0.17,-0.52 0.16,-0.7 -0.19,-0.61 -0.27,0.18 -0.36,0 -0.19,-0.52 0.16,-1.04 -1.39,-1.65 -2.37,-0.95zm5.05 15.38l0.98 -0.79 -0.8 0.87c-0.53,0.53 -0.97,0.96 -0.97,0.96 -0.27,0 -0.01,-0.26 0.79,-1.04zm-16.75 16.84c-0.34,1.21 -0.78,2.26 -0.96,2.35 -0.44,0.26 1.7,-6.1 3.95,-11.58 2.43,-5.92 9.49,-19.95 9.86,-19.6 0.09,0.08 -0.43,1.22 -1.14,2.44 -4.29,7.49 -9.49,19.33 -11.71,26.39zm2.11 -3.14c-0.35,0.78 -0.7,1.48 -0.79,1.48 -0.45,0.26 2.06,-6.01 4.58,-11.76 2.17,-4.96 6.97,-14.11 7.33,-14.28 0.18,0 -1.13,2.79 -2.87,6.27 -1.84,3.48 -4.27,8.71 -5.48,11.67 -1.12,2.87 -2.43,5.83 -2.77,6.62zm7.94 -4.98c-0.79,1.3 -0.79,1.3 -0.8,1.04 0,-0.17 0.26,-0.7 0.7,-1.13l0.71 -0.87 -0.61 0.96zm2.91 -3.84c-0.89,1.13 -1.77,2.18 -1.94,2.44 -0.8,0.79 1.49,-2.26 2.46,-3.4 0.53,-0.52 0.27,-0.09 -0.52,0.96zm2.38 -2.88c-0.44,0.44 -0.62,0.61 -0.62,0.35 -0.01,-0.08 0.17,-0.26 0.44,-0.52 0.53,-0.35 0.53,-0.35 0.18,0.17zm-0.93 -7.13c0.61,-1.3 1.13,-2.35 1.22,-2.26 0.09,0.09 -0.43,1.39 -1.12,2.87 -0.79,1.48 -1.4,2.7 -1.49,2.7 -0.09,0 -0.09,-0.17 0.08,-0.43 0.09,-0.35 0.7,-1.57 1.31,-2.88zm-3.66 2.63c-2.09,4.26 -4.09,8.44 -4.52,9.4 -1.48,2.96 -0.97,1.4 0.68,-2.35 1.82,-4.09 6.53,-13.33 7.15,-14.2 0.26,-0.26 -1.3,2.88 -3.31,7.15z"/>
   <path id="_4" class="fil0" d="M262.51 176.14c-0.27,0 -0.55,-0.17 -0.55,-0.35 -0.28,-0.69 -1.97,0.97 -4.08,3.76 -4.59,6.01 -11.59,13.51 -15.41,16.31 -4.01,2.97 -7.95,4.55 -11.2,4.56 -2.16,0 -2.62,-0.17 -3.27,-1.3 -1.03,-2.08 -0.97,-4.08 0.23,-7.91 0.34,-1.22 0.51,-1.31 1.06,-1.13 1.36,0.51 4.42,0.24 6.12,-0.55 3.76,-1.66 8.91,-6.29 11.81,-10.56 1.59,-2.35 2.61,-5.57 2.83,-8.35 0.14,-2.61 -0.61,-4.26 -2.43,-5.48 -0.64,-0.52 -1.47,-1.21 -1.83,-1.56 -1.39,-1.73 -5.09,-2.06 -8.68,-0.75 -4.39,1.67 -9.81,6.38 -13.41,11.78 -6.42,9.68 -7.73,17.33 -3.75,22.89 1.47,1.99 3.58,3.99 5.04,4.68 0.73,0.34 1.73,0.95 2.37,1.38 0.55,0.43 1.73,1.04 2.54,1.21 2.99,0.86 5.96,0.5 9.36,-1.07 6.26,-2.98 14.59,-11.88 22.14,-23.56 1.32,-2.09 1.83,-4 1.11,-4zm-15.57 -2.99c0.09,-0.35 0.18,-0.35 0.27,-0.09 0,0.26 -0.17,0.61 -0.25,0.87 -0.36,0.52 -0.37,0 -0.02,-0.78zm-1.21 2.87c0.79,-1.48 0.88,-1.48 0.45,0.17 -0.08,0.26 0.09,0.09 0.27,-0.35 0.79,-1.22 0.88,-0.95 0.19,0.44 -0.79,1.57 -1.76,2.79 -1.94,2.61 -0.1,-0.08 -0.45,0.09 -0.72,0.35 -0.44,0.35 -0.36,0.18 0.17,-0.52 0.35,-0.52 1.14,-1.74 1.58,-2.7zm-15.06 0.05c-0.01,-0.35 3.44,-4.45 3.71,-4.45 0,0 -0.7,1.05 -1.67,2.27 -2.12,2.62 -2.03,2.53 -2.04,2.18zm3.84 2.94c3.69,-5.4 7.41,-9.41 9.91,-10.64 1.26,-0.61 1.35,-0.26 0.77,2.52 -1.15,6.27 -6.19,12.54 -12.09,15.35 -1.61,0.78 -3.05,1.05 -3.06,0.61 0,-0.43 2.97,-5.66 4.47,-7.84zm-12.56 9.09c-0.43,1.39 -0.86,2.61 -0.95,2.7 -0.44,0.43 1,-5.05 1.61,-6.01 0.35,-0.52 0.27,-0.09 -0.66,3.31zm0.17 4.52l0.14 -2c-0.02,-1.04 0.32,-2.61 0.58,-3.39 0.51,-1.66 1.13,-2.44 0.88,-1.14 -0.18,0.44 -0.51,2.09 -0.93,3.66l-0.67 2.87zm1.51 -1.22c-0.1,-0.7 0.83,-4.18 1.09,-4.44 0.18,-0.18 0.27,-0.18 0.28,0.08 0.01,0.61 -1.36,4.79 -1.37,4.36zm3.33 -0.53c-0.17,0.52 -0.34,1.39 -0.6,2l-0.34 1.13 0.16 -1.13c0.08,-0.61 0.33,-1.48 0.51,-1.92l0.43 -0.87 -0.16 0.79zm32.21 -9.5c-0.18,0.26 -0.44,0.44 -0.54,0.35 -0.09,-0.09 -0.36,0 -0.62,0.17 -0.45,0.35 -0.45,0.35 -0.1,-0.17 0.27,-0.26 0.54,-0.44 0.63,-0.35 0,0.09 0.36,0 0.54,-0.18 0.44,-0.34 0.44,-0.34 0.09,0.18zm0.5 -2.18c0,-0.08 0.27,-0.35 0.53,-0.52 0.45,-0.35 0.45,-0.35 0.1,0.09 -0.36,0.52 -0.62,0.61 -0.63,0.43zm1 0.17c-0.45,0.44 -0.62,0.61 -0.63,0.35 0,-0.08 0.18,-0.26 0.44,-0.52 0.45,-0.35 0.54,-0.35 0.19,0.17zm1.49 -2.18c-0.26,0.44 -0.44,0.53 -0.45,0.09 0,-0.17 -0.18,-0.26 -0.36,-0.08 -0.18,0.08 -0.27,0.08 -0.09,-0.09 0.35,-0.44 0.99,-0.35 0.9,0.08zm-16.67 0.58c0.35,-0.61 0.61,-1.13 0.52,-1.22 -0.18,-0.08 -1.41,1.75 -1.41,2.09 0.01,0.35 0.36,0 0.89,-0.87z"/>
   <path id="_5" class="fil0" d="M256.64 196.51c0.93,1.82 3.04,3.9 3.85,3.9 0.36,0 1.27,0.6 2.1,1.3 2.29,1.99 3.72,1.64 7.09,-1.77 1.6,-1.74 6.19,-7.49 8.21,-10.37l1.41 -2.09 0.21 2.17c0.52,3.91 2.29,7.04 4.75,8.16 0.72,0.35 1.36,0.78 1.46,1.04 0.47,1.13 3.54,1.55 4.88,0.68 3.48,-2.27 8.24,-8.64 17.01,-22.93 2.19,-3.66 2.61,-5.14 0.59,-2.35 -0.62,0.87 -1.24,1.57 -1.24,1.48 0,-0.17 0.53,-0.87 1.05,-1.65 0.62,-0.79 0.97,-1.57 0.88,-1.66 -0.09,-0.08 -0.98,1.05 -1.95,2.36 -5.46,7.41 -8.19,10.89 -11.21,13.95 -2.92,2.96 -6.83,6.2 -7.11,5.85 -0.28,-0.17 0.39,-3.22 1.25,-6.09 0.42,-1.57 1.8,-5.23 2.92,-8.19 2.51,-6.35 3.44,-9.75 3.41,-11.57 -0.02,-1.22 -0.12,-1.48 -1.03,-2.26 -0.64,-0.52 -1.19,-0.87 -1.37,-0.78 -0.09,0.09 -0.27,0 -0.36,-0.26 -0.1,-0.26 -0.37,-0.43 -0.64,-0.35 -0.27,0.09 -0.45,0.01 -0.46,-0.26 -0.01,-0.43 -0.1,-0.43 -0.63,0.09 -0.62,0.53 -0.62,0.53 -0.27,-0.08 0.43,-0.96 0.34,-1.48 -0.3,-1.65 -1.18,-0.35 -2.07,0.09 -2.95,1.57 -0.88,1.31 -1.41,1.83 -1.42,1.14 0,-0.18 -0.28,-0.35 -0.64,-0.44 -0.36,-0.08 -1.55,-0.95 -2.56,-1.81 -1.46,-1.39 -2.1,-1.74 -3.18,-1.91 -2.54,-0.34 -6.03,0.81 -8.97,2.9 -7.4,5.33 -16.49,21.97 -15.74,28.75 0.11,0.87 0.58,2.26 0.96,3.13zm48.39 -17.81c0.18,0.08 0.36,-0.18 0.35,-0.44 0.09,-0.26 0.17,-0.61 0.26,-0.69 0.18,-0.09 0.18,0.08 0.1,0.43 -0.08,0.87 -0.61,1.39 -0.89,0.96 -0.09,-0.17 -0.09,-0.26 0.18,-0.26zm-1.22 2.44c0.44,-0.35 0.44,-0.35 0.09,0.17 -0.44,0.44 -0.62,0.61 -0.63,0.35 0,-0.09 0.18,-0.26 0.54,-0.52zm-1.25 0.87c0.09,-0.17 0.72,-0.09 0.72,0.17 0,0 -0.18,0.09 -0.44,0.09 -0.28,0 -0.37,-0.09 -0.28,-0.26zm-2.82 3.92c0.18,-0.17 0.54,-0.26 0.72,-0.26 0.18,0 0.35,-0.26 0.44,-0.44 0.09,-0.26 0,-0.34 -0.27,-0.17 -0.27,0.18 -0.27,0.09 -0.18,0 0.18,-0.17 0.35,-0.26 0.53,-0.26 0.18,0 0.45,-0.18 0.54,-0.44 0.08,-0.26 -0.01,-0.35 -0.37,-0.17 -0.26,0.26 -0.26,0.17 0,-0.18 0.27,-0.34 0.54,-0.43 0.72,-0.35 0.27,0.18 -0.52,1.66 -1.14,2.18 -0.53,0.44 -1.43,0.62 -0.99,0.09zm-0.61 1.13c-0.18,0.18 -0.27,0.09 -0.09,0 0.09,-0.17 0.36,-0.26 0.62,-0.34 0.37,-0.01 0.37,0.08 0.1,0.52 -0.08,0.26 -0.44,0.61 -0.62,0.69 -0.26,0.18 -0.26,0.09 0,-0.17 0.18,-0.26 0.35,-0.52 0.35,-0.61 0,-0.17 -0.18,-0.17 -0.36,-0.09zm-1.24 1.31c0.26,-0.34 0.62,-0.61 0.71,-0.61 0.09,0 -0.08,0.26 -0.44,0.61 -0.26,0.26 -0.53,0.53 -0.62,0.53 -0.09,0 0.08,-0.26 0.35,-0.53zm-1.32 1.66c0.44,-0.35 0.44,-0.35 0.09,0.09 -0.35,0.52 -0.62,0.61 -0.63,0.43 0,-0.08 0.18,-0.34 0.54,-0.52zm-31.07 2.97c-0.17,0.52 -0.33,1.48 -0.59,2.09l-0.34 1.22 0.16 -1.31c0.08,-0.69 0.33,-1.65 0.5,-2.17l0.44 -0.79 -0.17 0.96zm11.37 -5.08c-0.45,0.44 -0.62,0.61 -0.63,0.35 0,0 0.18,-0.26 0.45,-0.44 0.44,-0.35 0.53,-0.35 0.18,0.09zm0.79 -1.13c-0.35,0.43 -0.62,0.61 -0.62,0.35 0,0 0.26,-0.27 0.53,-0.44 0.44,-0.44 0.44,-0.35 0.09,0.09zm16.61 -14.84c0.87,-1.74 -0.24,1.65 -1.63,5.05 -0.86,2.09 -2.24,5.75 -3.1,8.1 -1.55,4.52 -1.9,5.13 -0.97,1.74 0.52,-1.74 4.92,-13.24 5.7,-14.89zm-2.28 -1.21c0.18,0 -0.59,1.91 -2.16,5.48 -0.69,1.57 -1.73,4.01 -2.25,5.32 -1.29,3.39 -1.38,3.57 -1.38,3.39 -0.11,-1.04 5.25,-14.19 5.79,-14.19zm-3.97 4.88c0.44,-0.52 0.19,0.35 -0.94,3.22 -0.86,2.18 -1.98,5.4 -2.4,7.14 -0.59,2.26 -0.76,2.7 -0.69,1.66 0.39,-3.4 2.62,-10.36 4.03,-12.02zm-2.64 3.92c-0.18,0.18 -0.69,1.66 -1.2,3.23 -0.52,1.65 -0.87,2.43 -0.79,1.74 0.24,-1.74 1.19,-4.61 1.72,-4.97 0.45,-0.34 0.45,-0.34 0.27,0zm-3.84 -8.07c1.08,-0.7 2.15,-1.4 2.41,-1.49 0.9,-0.35 0.74,0.78 -0.74,3.75 -2.45,4.79 -11.26,16.38 -14.99,19.7 -0.8,0.7 -1.51,1.31 -1.7,1.31 -0.36,0 1.37,-4.7 3.02,-8.19 3.14,-6.44 7.81,-12.37 12,-15.08zm-9.7 2.12l1.15 -1.22 -1.23 1.65c-3.09,4.19 -5.19,7.67 -6.66,11.33 -0.61,1.31 -1.47,3.66 -1.98,5.22 -0.52,1.57 -0.95,2.62 -0.96,2.27 -0.11,-1.31 1.7,-6.27 3.36,-9.58 2,-3.83 4.55,-7.75 6.32,-9.67zm-3.39 2.01c0.09,0 -0.17,0.61 -0.7,1.31 -1.23,1.83 -3.85,6.79 -4.89,9.4 -0.52,1.22 -1.29,3.66 -1.71,5.4 -0.59,2.44 -0.76,2.87 -0.77,2 -0.06,-3.13 2.71,-10.01 6.4,-15.67 0.79,-1.31 1.58,-2.44 1.67,-2.44zm-9.18 16.55c0.33,-1.65 1.27,-4.61 1.88,-5.66 0.35,-0.61 0.44,-0.78 0.36,-0.43 -0.09,0.26 -0.6,1.91 -1.11,3.65 -1.03,3.22 -1.46,4.18 -1.13,2.44z"/>
   <path class="fil1" d="M94.62 266.92c3.26,0.86 8.75,0.4 10.54,-0.82l0.62 -0.44 -1 -0.43c-0.54,-0.17 -2.81,-0.69 -4.98,-1.11 -4.97,-0.94 -8.42,-1.98 -9.24,-2.76 -0.56,-0.52 -0.65,-0.86 -0.5,-2.78 0.05,-1.82 0.22,-2.52 1.27,-4.61 1.48,-3.05 3.42,-5.58 6.61,-8.54 11.72,-11 28.18,-18.79 45.45,-21.54 4.58,-0.8 14.05,-0.83 16.5,-0.15 1.18,0.44 1.63,0.69 1.64,1.04 0.01,0.79 -2.44,4.79 -4.47,7.24 -2.04,2.35 -7.89,8.19 -11.71,11.34 -5.25,4.54 -19.13,15.02 -19.14,14.41 -0.01,-0.26 2.97,-5.05 4.65,-7.49 1.31,-2.01 3.34,-4.71 6.34,-8.46 0.97,-1.31 1.4,-2.7 0.77,-2.7 -0.18,0 -0.27,-0.08 -0.19,-0.26 0.09,-0.17 -0.28,-0.52 -0.82,-0.87 -0.55,-0.34 -1.19,-1.04 -1.38,-1.47 -0.28,-0.69 -0.47,-0.78 -1.55,-0.78 -2.97,0.01 -7.24,3.5 -12.8,10.39 -1.86,2.27 -5.64,7.85 -7.39,10.81 -4.12,7.14 -6.84,16.89 -6.71,24.2 0.1,5.91 0.96,8.78 2.59,8.77 0.54,-0.09 0.81,0.09 0.81,0.35 0.01,0.17 0.19,0.35 0.28,0.17 0.18,-0.09 0.36,0.17 0.37,0.52 0.01,0.52 0.19,0.78 0.83,1.04 1.45,0.43 2.06,-0.52 2.89,-4.62 0.92,-4.52 2.52,-11.05 2.86,-12.01 0.35,-0.69 1.24,-1.22 4.91,-3.14 4.91,-2.54 8.05,-3.68 13.89,-4.92 3.24,-0.62 4.5,-0.8 9.01,-0.81 2.79,-0.01 5.23,0.07 5.41,0.24 0.73,0.61 -5.91,7.76 -10.89,11.6 -6.94,5.42 -15.96,10.67 -23.31,13.47 -9.58,3.69 -16.51,4.49 -22.14,2.69 -3.08,-0.95 -3.81,-1.56 -3.56,-2.78 0.08,-0.69 0.08,-0.78 -0.37,-0.69 -0.27,0.17 -0.45,0.09 -0.37,-0.09 0.09,-0.08 0.09,-0.26 -0.09,-0.26 -0.18,0 -0.18,-0.17 -0.1,-0.43 0.17,-0.61 -1.36,-0.43 -1.8,0.26 -0.44,0.7 0.77,2.7 3.44,5.91 3.04,3.73 5.14,5.11 9.4,6.23 2.99,0.77 9.39,0.49 13.7,-0.48 10.78,-2.56 23.12,-8.51 31.66,-15.24 3.29,-2.62 7.81,-7.15 9.4,-9.51 3.34,-4.88 3.46,-8.53 0.15,-12.26 -0.65,-0.69 -1.39,-1.73 -1.76,-2.43 -1.3,-2.08 -3.75,-3.03 -8.36,-3.45l-2.71 -0.16 3.48 -2.45c12.74,-9.26 21.14,-18.85 22.46,-25.73 0.58,-2.87 -0.09,-5.48 -2.13,-8.51 -0.64,-0.87 -1.21,-1.91 -1.21,-2.17 -0.01,-0.87 -1.77,-3.13 -3.32,-4.08 -0.91,-0.52 -2.63,-1.21 -3.99,-1.55 -2.09,-0.6 -2.81,-0.6 -7.68,-0.5 -3.96,0.19 -6.3,0.37 -9.36,0.99 -10.97,2.03 -21.54,5.72 -30.48,10.71 -13.75,7.61 -24.31,17.99 -26.69,26.09 -1.19,4.35 -0.14,7.65 3.62,11.12 2.47,2.25 4.2,3.29 6.65,3.89zm17.98 7.33c-0.17,0.61 -0.59,2.52 -0.92,4.27 -0.5,2.08 -0.67,2.61 -0.6,1.56 0.23,-2.17 1.24,-6.79 1.51,-6.79 0.18,0 0.18,0.44 0.01,0.96zm0.77 -7.74c-0.01,-0.61 2.43,-5.58 4.18,-8.45 2.1,-3.66 6.5,-10.02 7.74,-11.42l0.97 -1.13 -1.05 1.57c-4.58,6.45 -8.44,12.63 -10,16.29 -1.13,2.53 -1.83,3.75 -1.84,3.14zm4.15 -4.97c-1.66,3.13 -2.36,4.18 -2.37,3.57 -0.01,-0.43 2.87,-5.92 4.8,-9.06 3.6,-5.84 6.77,-10.02 10.05,-13.51 1.77,-1.83 1.34,-1.05 -1.31,2.09 -3.98,4.88 -8.29,11.33 -11.17,16.91zm1.1 0.86c-0.52,1.14 -0.88,1.49 -0.88,1.05 -0.01,-0.44 2.53,-4.97 4.72,-8.36 4.22,-6.63 7.57,-11.07 10.67,-13.95l1.69 -1.57 -1.59 1.74c-2.92,3.4 -4.07,4.8 -6.89,8.81 -2.72,3.83 -6.41,9.84 -7.72,12.28zm4.73 -2.8c-0.27,0.01 5.43,-9.23 5.97,-9.58 0.18,-0.09 -0.44,0.96 -1.22,2.26 -0.88,1.31 -2.2,3.49 -3.08,4.8 -0.79,1.39 -1.58,2.52 -1.67,2.52zm21.51 23.15c-1.52,1.14 -1.97,1.4 -1.16,0.7 6.03,-5.41 7.28,-6.63 9.75,-9.59 0.27,-0.35 0.18,0 -0.26,0.69 -0.35,0.7 -1.76,2.44 -3.27,3.84 -1.42,1.4 -3.73,3.4 -5.06,4.36zm5.88 -4.01c-0.45,0.34 -0.8,0.69 -0.89,0.69 -0.09,0 0.17,-0.34 0.53,-0.69 0.44,-0.44 0.8,-0.79 0.89,-0.79 0.09,0 -0.18,0.35 -0.53,0.79zm4.9 -3.33c0.62,-0.61 -0.34,0.96 -1.75,2.79 -0.62,0.79 -1.24,1.49 -1.33,1.49 -0.18,0 2.46,-3.75 3.08,-4.28zm-1.52 -4.77c0.01,0.78 -2.2,3.66 -4.41,5.92 -1.24,1.23 -2.93,2.8 -3.73,3.41 -1.07,0.87 -0.63,0.35 1.41,-1.75 3.28,-3.31 3.81,-3.92 5.48,-6.36 0.71,-0.87 1.24,-1.48 1.25,-1.22zm-0.92 -0.78c0.01,0.52 -1.66,2.96 -2.99,4.44 -0.62,0.79 -1.33,1.4 -1.42,1.4 -0.09,0 0.35,-0.61 1.06,-1.48 0.71,-0.79 1.76,-2.18 2.29,-3.06 0.62,-0.87 1.06,-1.39 1.06,-1.3zm3.18 -35.15c0.44,-0.35 0.44,-0.35 0.09,0.18 -0.35,0.43 -0.62,0.61 -0.62,0.35 0,-0.09 0.27,-0.26 0.53,-0.53zm-2.95 6.54c1.77,-1.75 4.25,-4.37 5.49,-5.85 1.14,-1.48 2.21,-2.53 2.21,-2.44 0.01,0.61 -3.88,5.06 -6.9,8.02 -1.95,1.92 -3.63,3.49 -3.81,3.49 -0.09,0 1.23,-1.48 3.01,-3.22zm-9.66 9.94c0.71,-0.78 0.89,-0.87 0.89,-0.52 -0.09,0.08 -0.44,0.43 -0.8,0.78l-0.8 0.53 0.71 -0.79zm-6.91 7.07c-0.36,0.43 -0.62,0.61 -0.63,0.35 0,-0.09 0.18,-0.26 0.53,-0.53 0.45,-0.35 0.45,-0.35 0.1,0.18zm6.5 -4.63c-4.45,3.23 -5.97,4.28 -5.97,4.1 0,-0.08 1.24,-1.04 2.85,-2.18 6.77,-4.98 11.03,-8.56 16,-13.27 2.22,-2.01 3.64,-3.32 3.38,-2.97 -3.45,4.19 -8.07,8.29 -16.26,14.32zm8.65 -5.68c-0.44,0.43 -0.62,0.61 -0.63,0.35 0,0 0.18,-0.27 0.45,-0.44 0.53,-0.35 0.53,-0.35 0.18,0.09zm2.31 -2.01c-0.35,0.43 -0.62,0.61 -0.62,0.43 -0.01,-0.08 0.17,-0.34 0.53,-0.52 0.44,-0.35 0.44,-0.35 0.09,0.09zm9 -6.47c-0.88,1.14 -3.09,3.75 -4.33,5.06 -0.71,0.79 -1.87,1.75 -2.49,2.27 -1.07,0.79 -1.07,0.79 0.17,-0.44 0.71,-0.69 2.48,-2.52 3.9,-4.1 2.65,-2.96 3.36,-3.75 2.75,-2.79zm-0.48 -6.6c-1.66,3.05 -8.39,10.11 -13.82,14.48 -5.6,4.45 -5.43,4.1 0.53,-1.14 4.71,-4.01 9.76,-9.24 11.87,-12.04 1.59,-2 2.03,-2.44 1.42,-1.3zm-55.72 0.87c0.45,-0.35 0.45,-0.35 0.09,0.18 -0.17,0.26 -0.44,0.43 -0.44,0.43 -0.27,0 -0.09,-0.17 0.35,-0.61zm-1.25 0.88l-0.7 0.69c-0.45,0.35 -1.78,1.4 -3.12,2.36 -2.76,2.1 -8.53,7.68 -10.2,9.95 -0.71,0.96 -1.5,2.09 -1.85,2.44l-0.44 0.7 0.35 -0.87c1.56,-3.31 9.46,-10.99 14.98,-14.57l0.98 -0.7zm-18.65 16.49c-0.01,-0.43 2.1,-3.92 2.98,-4.88l0.8 -0.87 -0.79 1.13c-0.44,0.53 -1.32,1.92 -1.94,2.97 -0.61,1.04 -1.05,1.74 -1.05,1.65zm0.47 0.96c0.25,-1.13 1.74,-3.66 3.06,-5.4 1.77,-2.18 5.04,-5.67 5.76,-6.02 0.36,-0.18 -0.44,0.78 -1.86,2.18 -1.32,1.39 -3.01,3.31 -3.71,4.18 -0.62,0.88 -1.67,2.53 -2.28,3.66 -0.71,1.14 -1.15,1.75 -0.97,1.4z"/>
   <path id="_1_0" class="fil1" d="M194.58 222.33c-1.03,-2.52 -4.43,-0.86 -7.42,3.59 -0.7,1.04 -2.54,4.18 -4.02,7.05 -9.27,16.99 -15.24,31.45 -17.49,42.15 -1.42,6.96 -1.28,9.92 0.87,14 1.03,2 3.68,4.51 5.13,4.77 0.46,0.17 1.27,0.51 1.64,0.86 0.46,0.35 1.1,0.69 1.28,0.78 0.9,0.34 2.98,0.25 3.78,-0.19 1.34,-0.7 4.62,-4.19 6.29,-6.71 0.88,-1.4 3.24,-5.32 5.26,-8.89 2.01,-3.49 4.99,-8.54 6.66,-11.07 2.89,-4.7 3.33,-5.75 2.34,-5.66 -0.27,0 -0.46,-0.08 -0.46,-0.26 0.09,-0.26 -0.1,-0.43 -0.37,-0.43 -0.81,0 -3.02,2.62 -6.28,7.06 -10.92,15.26 -13.12,18.31 -14.36,19.53 -0.8,0.79 -1.6,1.4 -1.78,1.4 -0.45,0 -0.18,-5.39 0.3,-8.7 0.99,-5.57 4.67,-16.8 8.75,-25.86 2.17,-4.96 6.96,-14.63 9.5,-18.99 4.3,-7.4 5.24,-10.1 4.13,-11.4 -1,-1.04 -1.64,-1.3 -2.26,-0.69 -0.62,0.52 -0.62,0.52 -0.27,-0.09 0.43,-0.95 0.34,-1.3 -0.29,-1.04 -0.36,0.09 -0.54,0 -0.54,-0.08 -0.01,-0.18 -0.11,-0.61 -0.39,-1.13zm3.24 41.12c0.18,-0.17 0.72,-0.09 0.73,0.17 0,0 -0.18,0.09 -0.45,0.09 -0.18,0 -0.37,-0.08 -0.28,-0.26zm-0.79 1.13c0.44,-0.35 0.44,-0.35 0.09,0.09 -0.35,0.52 -0.62,0.7 -0.62,0.44 0,-0.09 0.26,-0.26 0.53,-0.53zm-3 4.01c0.18,-0.35 0.36,-0.43 0.45,-0.35 0.09,0.09 0,0.27 -0.27,0.44 -0.26,0.35 -0.26,0.26 -0.18,-0.09zm-25.13 12.35c-0.32,2.26 -0.76,2.87 -0.61,0.78 0.52,-6.26 5.15,-19.93 10.88,-32.64 3.13,-6.8 10.48,-20.3 11.02,-20.3 0.09,0 -0.09,0.43 -0.44,0.95 -0.7,1.05 -3.85,6.97 -6.81,12.64 -6.9,13.06 -13.1,30.22 -14.04,38.57zm2.01 -3.75c-0.42,1.83 -0.82,4.44 -0.89,5.92 -0.15,1.65 -0.32,2.35 -0.41,1.91 -0.57,-1.39 0.41,-7.39 1.94,-12.87 1.36,-4.71 4.55,-13.41 7.15,-19.25 3.99,-8.97 12.12,-24.13 14.24,-26.48 0.98,-1.13 0.89,-0.79 -0.95,2.09 -1.85,2.96 -7.96,14.38 -10.14,18.99 -5.31,11.15 -9.27,21.77 -10.94,29.69zm4.27 1.55c-0.17,0.79 -0.58,2.79 -0.83,4.53 -0.48,3.39 -0.66,3.22 -0.27,-0.18 0.32,-2.34 1.07,-5.91 1.25,-5.74 0.1,0.09 0.02,0.7 -0.15,1.39zm0.42 -1.82c-0.09,0.08 -0.18,-0.09 -0.1,-0.44 -0.01,-0.35 0.08,-0.35 0.18,-0.17 0.09,0.26 0,0.43 -0.08,0.61zm1.1 -4.01c-0.09,0.09 -0.09,-0.09 -0.1,-0.43 0,-0.26 0.09,-0.35 0.18,-0.18 0.1,0.26 0.1,0.52 -0.08,0.61zm-0.29 -6.52c-0.09,0.26 -0.27,0.35 -0.27,0.17 0,-0.17 0.17,-0.52 0.26,-0.69 0.18,-0.26 0.35,-0.35 0.36,-0.18 0,0.18 -0.17,0.53 -0.35,0.7zm0.86 -2.26c-0.08,0.26 -0.26,0.34 -0.27,0.17 0,-0.17 0.18,-0.52 0.26,-0.7 0.18,-0.26 0.27,-0.34 0.27,-0.17 0,0.17 -0.08,0.44 -0.26,0.7zm5.46 -7.59c0,0.18 -0.17,0.61 -0.34,1.05 -0.27,0.35 -0.44,0.61 -0.44,0.43 -0.01,-0.17 0.17,-0.61 0.43,-1.04 0.17,-0.35 0.35,-0.53 0.35,-0.44zm1.74 -3.83c-0.18,0.26 -0.26,0.35 -0.27,0.17 0,-0.17 0.08,-0.52 0.26,-0.69 0.18,-0.26 0.26,-0.35 0.27,-0.18 0,0.18 -0.09,0.44 -0.26,0.7zm5.14 -10.28c-1.57,2.96 -3.05,5.84 -3.4,6.45 -0.26,0.61 -0.62,1.04 -0.62,0.87 -0.01,-0.35 5.93,-11.76 6.55,-12.54 0.61,-0.96 0.35,-0.35 -2.53,5.22zm3.95 -11.66c-0.18,0.34 -0.35,0.61 -0.44,0.61 -0.09,0 -0.01,-0.26 0.17,-0.61 0.17,-0.35 0.35,-0.61 0.44,-0.61 0.09,0 0,0.26 -0.17,0.61zm-0.38 -0.96c-7.89,12.81 -15.89,30.49 -19.46,42.76 -0.51,1.83 -1.27,4.62 -1.7,6.27 -0.5,2.26 -0.58,2.52 -0.52,1.22 0.84,-9.22 10.45,-32.39 20.52,-49.38 1.14,-2 2.29,-3.66 2.38,-3.66 0.45,0 0.36,0.18 -1.22,2.79zm4.28 -2.71c0.36,-0.35 -0.16,1.13 -1.03,2.87 -0.43,0.87 -0.87,1.66 -0.96,1.66 -0.09,0 1.73,-4.27 1.99,-4.53z"/>
   <path id="_2_1" class="fil1" d="M190.94 282.87c0.94,1.82 3.05,3.9 3.86,3.9 0.36,0 1.27,0.6 2.1,1.29 2.28,2 3.72,1.64 7.09,-1.76 1.59,-1.74 6.18,-7.5 8.21,-10.37l1.4 -2.1 0.22 2.18c0.52,3.91 2.29,7.03 4.74,8.16 0.73,0.34 1.37,0.77 1.46,1.04 0.47,1.12 3.55,1.55 4.89,0.68 3.47,-2.28 8.23,-8.64 17.01,-22.93 2.19,-3.66 2.61,-5.14 0.59,-2.35 -0.62,0.87 -1.24,1.57 -1.24,1.48 0,-0.17 0.52,-0.87 1.05,-1.65 0.62,-0.79 0.97,-1.57 0.88,-1.66 -0.1,-0.09 -0.98,1.05 -1.95,2.35 -5.46,7.41 -8.2,10.9 -11.21,13.96 -2.93,2.96 -6.84,6.19 -7.11,5.85 -0.28,-0.18 0.39,-3.22 1.24,-6.1 0.43,-1.56 1.81,-5.22 2.93,-8.18 2.5,-6.36 3.44,-9.75 3.41,-11.58 -0.03,-1.22 -0.12,-1.48 -1.04,-2.25 -0.64,-0.53 -1.18,-0.87 -1.36,-0.78 -0.09,0.08 -0.27,0 -0.37,-0.26 -0.09,-0.26 -0.37,-0.44 -0.63,-0.35 -0.27,0.09 -0.46,0 -0.46,-0.26 -0.01,-0.43 -0.1,-0.43 -0.63,0.09 -0.62,0.52 -0.62,0.52 -0.27,-0.09 0.43,-0.95 0.33,-1.48 -0.3,-1.65 -1.18,-0.34 -2.07,0.1 -2.95,1.58 -0.88,1.31 -1.41,1.83 -1.42,1.13 -0.01,-0.17 -0.28,-0.34 -0.64,-0.43 -0.36,-0.09 -1.55,-0.95 -2.56,-1.82 -1.46,-1.38 -2.1,-1.73 -3.19,-1.9 -2.53,-0.34 -6.03,0.8 -8.97,2.9 -7.39,5.33 -16.48,21.97 -15.73,28.75 0.1,0.87 0.58,2.26 0.95,3.13zm48.4 -17.82c0.18,0.09 0.35,-0.17 0.35,-0.43 0.08,-0.26 0.17,-0.61 0.26,-0.7 0.18,-0.09 0.18,0.09 0.1,0.44 -0.08,0.87 -0.61,1.39 -0.89,0.96 -0.09,-0.18 -0.09,-0.27 0.18,-0.27zm-1.22 2.44c0.44,-0.35 0.44,-0.35 0.09,0.18 -0.45,0.43 -0.62,0.61 -0.63,0.35 0,-0.09 0.18,-0.26 0.54,-0.53zm-1.25 0.88c0.08,-0.18 0.72,-0.09 0.72,0.17 0,0 -0.18,0.09 -0.45,0.09 -0.27,0 -0.36,-0.09 -0.27,-0.26zm-2.82 3.92c0.18,-0.17 0.54,-0.26 0.72,-0.26 0.18,0 0.35,-0.27 0.44,-0.44 0.09,-0.26 -0.01,-0.35 -0.27,-0.17 -0.27,0.17 -0.27,0.08 -0.18,0 0.17,-0.18 0.35,-0.26 0.53,-0.27 0.18,0 0.45,-0.17 0.54,-0.43 0.08,-0.26 -0.01,-0.35 -0.37,-0.17 -0.26,0.26 -0.27,0.17 0,-0.18 0.26,-0.35 0.53,-0.44 0.72,-0.35 0.27,0.17 -0.52,1.66 -1.14,2.18 -0.53,0.44 -1.43,0.61 -0.99,0.09zm-0.61 1.13c-0.18,0.18 -0.27,0.09 -0.09,0 0.08,-0.17 0.35,-0.26 0.62,-0.35 0.36,0 0.36,0.09 0.1,0.52 -0.08,0.26 -0.44,0.61 -0.62,0.7 -0.26,0.18 -0.27,0.09 0,-0.17 0.18,-0.26 0.35,-0.53 0.35,-0.61 0,-0.18 -0.18,-0.18 -0.36,-0.09zm-1.24 1.31c0.26,-0.35 0.62,-0.61 0.71,-0.61 0.09,0 -0.09,0.26 -0.44,0.61 -0.27,0.26 -0.53,0.52 -0.62,0.52 -0.09,0 0.08,-0.26 0.35,-0.52zm-1.33 1.66c0.45,-0.35 0.45,-0.35 0.1,0.08 -0.36,0.53 -0.62,0.61 -0.63,0.44 0,-0.09 0.18,-0.35 0.53,-0.52zm-31.06 2.97c-0.17,0.52 -0.33,1.48 -0.6,2.09l-0.33 1.22 0.15 -1.31c0.08,-0.69 0.34,-1.65 0.51,-2.17l0.43 -0.79 -0.16 0.96zm11.37 -5.08c-0.45,0.43 -0.62,0.61 -0.63,0.35 0,0 0.18,-0.26 0.45,-0.44 0.44,-0.35 0.53,-0.35 0.18,0.09zm0.79 -1.14c-0.35,0.44 -0.62,0.61 -0.63,0.35 0,0 0.27,-0.26 0.54,-0.43 0.44,-0.44 0.44,-0.35 0.09,0.08zm16.61 -14.83c0.87,-1.75 -0.24,1.65 -1.63,5.05 -0.87,2.09 -2.24,5.74 -3.11,8.09 -1.54,4.53 -1.89,5.14 -0.96,1.75 0.51,-1.75 4.91,-13.24 5.7,-14.89zm-2.28 -1.21c0.18,0 -0.6,1.91 -2.16,5.48 -0.69,1.57 -1.73,4.01 -2.25,5.31 -1.3,3.4 -1.38,3.57 -1.39,3.4 -0.1,-1.04 5.26,-14.19 5.8,-14.19zm-3.97 4.88c0.44,-0.52 0.18,0.35 -0.94,3.22 -0.86,2.18 -1.98,5.4 -2.4,7.14 -0.59,2.26 -0.77,2.7 -0.69,1.65 0.39,-3.39 2.61,-10.35 4.03,-12.01zm-2.64 3.92c-0.18,0.17 -0.69,1.65 -1.21,3.22 -0.51,1.66 -0.86,2.44 -0.78,1.74 0.24,-1.74 1.18,-4.61 1.72,-4.96 0.44,-0.35 0.44,-0.35 0.27,0zm-3.84 -8.07c1.07,-0.7 2.14,-1.4 2.41,-1.49 0.9,-0.35 0.74,0.78 -0.75,3.74 -2.44,4.79 -11.26,16.39 -14.99,19.7 -0.8,0.7 -1.51,1.31 -1.69,1.31 -0.36,0 1.36,-4.7 3.02,-8.18 3.13,-6.45 7.81,-12.37 12,-15.08zm-9.7 2.11l1.15 -1.22 -1.23 1.66c-3.09,4.18 -5.19,7.67 -6.66,11.33 -0.61,1.3 -1.47,3.65 -1.99,5.22 -0.51,1.57 -0.94,2.61 -0.95,2.27 -0.11,-1.31 1.7,-6.27 3.35,-9.58 2.01,-3.83 4.56,-7.76 6.33,-9.68zm-3.39 2.02c0.09,0 -0.17,0.6 -0.7,1.3 -1.23,1.83 -3.85,6.8 -4.89,9.41 -0.52,1.22 -1.29,3.66 -1.71,5.4 -0.59,2.44 -0.76,2.87 -0.78,2 -0.05,-3.13 2.72,-10.01 6.41,-15.67 0.78,-1.31 1.58,-2.44 1.67,-2.44zm-9.19 16.55c0.33,-1.66 1.28,-4.61 1.89,-5.66 0.35,-0.61 0.44,-0.78 0.35,-0.44 -0.08,0.26 -0.6,1.92 -1.11,3.66 -1.02,3.22 -1.46,4.18 -1.13,2.44z"/>
   <path id="_3_2" class="fil1" d="M289.3 260.2c-2.48,2.53 -6.9,7.5 -8.31,9.41 -0.88,1.14 -2.73,3.58 -4.14,5.41 -3.8,4.97 -7.34,8.72 -10.01,10.47 -1.16,0.87 -1.25,0.87 -1.27,-0.09 -0.03,-1.91 1.43,-5.83 6.37,-17.76 4.33,-10.53 4.73,-13.4 1.89,-15.83 -0.64,-0.52 -1.46,-1.13 -1.83,-1.3 -0.36,-0.17 -0.82,-0.69 -1.01,-1.13 -0.37,-0.86 -1.46,-1.3 -2.72,-0.94 -0.99,0.17 -4.62,3.84 -6.83,6.72 -2.38,3.13 -7.57,10.72 -10.38,15.25 -5.27,8.19 -8.79,12.9 -8.81,11.77 -0.12,-1.48 2.97,-10.45 5.66,-16.63 3.21,-7.4 4.42,-10.63 4.4,-11.58 -0.01,-0.61 -1.39,-2 -1.74,-1.82 -0.18,0.08 -0.36,0 -0.46,-0.26 -0.09,-0.26 -0.28,-0.35 -0.45,-0.26 -0.18,0.08 -0.46,-0.17 -0.55,-0.52 -0.19,-0.44 -0.56,-0.87 -0.92,-1.04 -2.01,-1.04 -4.84,2.19 -8.67,10.03 -4.27,8.53 -5.86,15.76 -4.6,20.54 0.48,1.99 2.33,4.6 3.51,5.03 0.54,0.17 1.09,0.6 1.28,0.86 0.83,1.04 2.1,1.74 3.36,1.73 1.09,0 1.53,-0.18 2.6,-1.14 1.68,-1.66 3.89,-4.71 7.92,-11.5 3.51,-5.75 8.08,-12.64 8.26,-12.38 0.09,0 -0.34,1.05 -0.86,2.35 -3.98,9.49 -4.77,16.19 -2.35,20.45 0.65,1.3 2.39,2.6 3.75,2.94 0.63,0.17 1.27,0.52 1.54,0.78 0.19,0.17 0.73,0.52 1.28,0.6 0.45,0.18 1.08,0.26 1.26,0.17 0.27,-0.09 0.63,-0.09 0.81,-0.09 0.9,0 4.01,-2.7 6.04,-5.23 2.57,-3.14 7.41,-9.85 11.45,-15.96 1.67,-2.35 3.78,-5.49 4.75,-6.79 1.5,-2.1 1.68,-2.36 1.22,-2.79 -0.46,-0.43 -0.55,-0.35 -1.44,0.53zm-39.97 -1.44c0.08,-0.26 0.26,-0.44 0.35,-0.35 0.09,0.09 0.01,0.35 -0.17,0.52 -0.26,0.26 -0.35,0.26 -0.18,-0.17zm-5.79 14.54c-0.78,2.18 -1.39,3.49 -1.21,2.96 0.16,-1.04 2.31,-7.22 2.49,-7.05 0,0.09 -0.51,1.92 -1.28,4.09zm2.24 -5.83c-0.18,0.17 -0.26,0.26 -0.27,0.09 0,-0.18 0.09,-0.44 0.26,-0.7 0.18,-0.26 0.27,-0.26 0.27,-0.18 0,0.18 -0.08,0.53 -0.26,0.79zm1.39 -3.14c-0.09,0.18 -0.27,0.26 -0.27,0.09 0,-0.17 0.17,-0.43 0.26,-0.7 0.17,-0.26 0.35,-0.26 0.36,-0.17 0,0.17 -0.18,0.52 -0.35,0.78zm0.87 -2c-0.09,0.17 -0.27,0.26 -0.27,0.09 0,-0.18 0.17,-0.44 0.26,-0.7 0.17,-0.26 0.26,-0.26 0.26,-0.17 0.01,0.17 -0.08,0.52 -0.25,0.78zm-3.17 -5.56c0.09,-0.26 0.27,-0.43 0.36,-0.34 0.09,0.08 0.01,0.34 -0.17,0.52 -0.27,0.26 -0.36,0.26 -0.19,-0.18zm-7.09 17.33c0.32,-2.17 2.13,-7.13 4.48,-11.84 1.22,-2.61 2.36,-4.79 2.36,-4.7 0.09,0.09 -0.69,1.83 -1.74,3.92 -0.95,2.09 -2.26,4.96 -2.77,6.35 -0.61,1.49 -1.38,3.66 -1.72,5.05 -0.43,1.31 -0.69,1.92 -0.61,1.22zm1.44 0.17c-0.68,2.27 -0.94,2.88 -0.77,1.92 0.14,-1.91 1.59,-6.62 2.72,-9.49 1.73,-4.18 6.44,-13.24 6.8,-13.24 0.09,0 -1.21,2.7 -2.78,5.92 -1.57,3.22 -3.39,7.14 -3.91,8.71 -0.6,1.57 -1.55,4.36 -2.06,6.18zm1.34 -1.13c-0.11,-1.31 7.35,-18.29 7.98,-18.29 0.09,0 -1.04,2.7 -2.6,6.01 -1.57,3.31 -3.22,7.23 -3.82,8.62 -1.21,3.22 -1.47,3.83 -1.56,3.66zm1.27 5.56c-0.18,0.35 -0.27,0.44 -0.27,0.17 -0.01,-0.26 0.17,-0.69 0.25,-1.04 0.18,-0.35 0.26,-0.44 0.27,-0.17 0,0.26 -0.08,0.69 -0.25,1.04zm31.26 -17.76c0,0 -0.61,1.75 -1.38,3.75 -1.47,3.65 -1.64,4.18 -1.65,3.66 -0.1,-0.44 2.84,-7.58 3.03,-7.41zm-4.66 -3.2c0.7,-1.48 1.31,-2.61 1.4,-2.61 0.27,0 -0.68,2.26 -3.81,9.14 -1.48,3.14 -2.78,6.1 -2.96,6.53l-0.34 0.7 0.16 -0.7c0.08,-0.69 2.25,-5.66 5.55,-13.06zm-7.28 1.59c0.62,-0.87 0.89,-1.05 0.45,-0.26 -0.18,0.35 -0.44,0.7 -0.62,0.78 -0.18,0.09 -0.09,-0.17 0.17,-0.52zm-1.14 1.48c0.26,-0.26 0.62,-0.52 0.62,-0.52 0.09,0 -0.09,0.26 -0.35,0.52 -0.27,0.35 -0.53,0.61 -0.62,0.61 -0.1,0 0.08,-0.26 0.35,-0.61zm-0.71 0.96c0.18,-0.09 0.09,0.17 -0.17,0.61 -0.26,0.44 -0.53,0.7 -0.62,0.7 -0.18,0 0.43,-1.05 0.79,-1.31zm-5.63 8.46c0.1,-0.01 -0.08,0.34 -0.25,0.78 -0.61,1.13 -1.58,2.53 -1.58,2.35 -0.01,-0.26 1.74,-3.13 1.83,-3.13zm-3.07 4.87c0.18,-0.34 0.44,-0.6 0.53,-0.61 0.09,0 0.01,0.27 -0.17,0.61 -0.17,0.35 -0.35,0.53 -0.44,0.53 -0.09,0 0,-0.18 0.08,-0.53zm-0.52 0.96c0.18,-0.08 0.09,0.18 -0.17,0.61 -0.27,0.35 -0.53,0.7 -0.62,0.7 -0.18,0 0.52,-1.04 0.79,-1.31zm-4.29 7.67c-0.17,0.26 -0.44,0.52 -0.53,0.52 -0.18,0 0,-0.26 0.44,-0.61 0.44,-0.35 0.44,-0.35 0.09,0.09zm2.65 -3.57c-0.88,1.3 -1.76,2.52 -1.94,2.7 -0.45,0.35 3.16,-5.06 3.69,-5.67 0.44,-0.35 0,0.35 -1.75,2.97zm3.95 -6.19c-0.79,1.31 -1.58,2.53 -1.76,2.7 -0.36,0.26 -0.36,0.18 2.01,-3.66 0.88,-1.39 1.58,-2.44 1.67,-2.44 0.18,0 -0.26,0.61 -1.92,3.4zm2.08 -4.88c-0.18,0 0.43,-1.04 0.79,-1.3 0.18,-0.09 0.09,0.17 -0.17,0.6 -0.27,0.35 -0.53,0.7 -0.62,0.7zm2.13 -1.83c-0.35,0.52 -0.79,1.22 -1.05,1.57l-0.62 0.7 0.52 -0.88c0.27,-0.43 0.7,-1.22 1.06,-1.56l0.53 -0.7 -0.44 0.87zm0.97 -1.48c-0.36,0.43 -0.53,0.61 -0.54,0.35 0,0 0.18,-0.26 0.44,-0.53 0.45,-0.34 0.54,-0.26 0.1,0.18zm0.96 -1.4c-0.26,0.35 -0.52,0.7 -0.62,0.7 -0.17,0 0.53,-1.04 0.88,-1.31 0.09,-0.08 0.1,0.18 -0.26,0.61zm2.21 -3.05c-0.8,1.14 -1.59,2.09 -1.59,2.09 -0.36,0.01 4.4,-6.18 5.2,-6.88 0.36,-0.26 0.01,0.26 -0.79,1.13 -0.71,0.87 -1.94,2.53 -2.82,3.66zm-0.66 19.4c0.24,-1.74 1,-4.88 1.09,-4.7 0.09,0 -0.16,1.39 -0.4,2.87 -0.58,2.96 -1.1,4.09 -0.69,1.83zm1.36 0.77c-0.15,1.4 -0.23,1.75 -0.33,1.22 -0.59,-2.43 1.72,-9.92 6.06,-19.41 1.65,-3.57 3.22,-7.05 3.39,-7.75 0.26,-0.61 0.52,-0.96 0.61,-0.78 0.19,0.43 -1.02,3.39 -3.8,9.49 -2.69,5.83 -4.08,9.32 -5.01,12.71 -0.43,1.39 -0.84,3.39 -0.92,4.52zm3.12 2.78c-0.09,0.17 -0.09,0 -0.1,-0.44 0,-0.35 -0.01,-0.52 0.09,-0.35 0.09,0.27 0.1,0.53 0.01,0.79zm-1.09 -5.91c-0.52,1.65 -0.94,3.39 -1.02,3.65 -0.09,0.44 -0.09,0.44 -0.1,-0.17 -0.1,-0.96 0.83,-4.61 1.86,-7.66 0.94,-2.52 6.33,-14.63 6.42,-14.46 0.09,0.09 -0.69,2.09 -1.73,4.53 -3.9,9.15 -4.58,11.06 -5.43,14.11zm13.26 0.39c-0.18,0.26 -0.44,0.52 -0.53,0.52 -0.18,0 -0.1,-0.26 0.44,-0.61 0.44,-0.35 0.44,-0.35 0.09,0.09zm3 -4.1c-0.27,0.35 -0.63,0.61 -0.72,0.53 0,-0.09 -0.36,0 -0.54,0.17 -0.44,0.35 -0.44,0.26 -0.09,-0.17 0.18,-0.26 0.44,-0.44 0.54,-0.35 0.09,0.09 0.45,-0.09 0.8,-0.35 0.62,-0.53 0.62,-0.53 0.01,0.17zm2.82 -3.83c-0.54,0.52 -0.53,0.61 -0.81,0.09 -0.19,-0.18 -0.19,-0.26 -0.01,-0.09 0.1,0.09 0.46,0 0.72,-0.18 0.36,-0.35 0.36,-0.26 0.1,0.18zm0.79 -1.14c-0.18,0.26 -0.45,0.44 -0.54,0.35 -0.09,-0.08 -0.36,0 -0.63,0.18 -0.35,0.35 -0.44,0.35 -0.09,-0.17 0.27,-0.27 0.53,-0.44 0.63,-0.35 0.09,0.08 0.36,-0.01 0.62,-0.18 0.36,-0.35 0.36,-0.35 0.01,0.17zm1.32 -1.83c-0.18,0.09 -0.36,0.18 -0.45,0.18 -0.09,0 -0.36,0.09 -0.63,0.26 -0.35,0.18 -0.35,0.18 -0.09,-0.17 0.27,-0.18 0.63,-0.44 0.89,-0.44 0.28,0 0.36,0 0.28,0.17zm1.23 -1.65c-0.26,0.43 -0.7,0.87 -0.88,0.96 -0.27,0.17 -0.18,0 0.08,-0.35 0.62,-0.7 0.7,-1.05 0.17,-0.79 -0.18,0.09 -0.09,-0.08 0.17,-0.34 0.8,-0.96 1.17,-0.53 0.46,0.52zm1.77 -2.18c0,0 -0.18,0 -0.45,0 -0.18,0 -0.37,-0.09 -0.28,-0.17 0.18,-0.27 0.72,-0.09 0.73,0.17zm0.34 -1.13c-0.18,0 -0.36,0 -0.36,0 0,-0.09 0.17,-0.26 0.35,-0.44 0.36,-0.17 0.45,-0.17 0.46,0.09 0,0.17 -0.18,0.35 -0.45,0.35zm1.77 -1.75c-0.09,-0.09 -0.36,0 -0.62,0.26 -0.27,0.18 -0.27,0.09 0.08,-0.34 0.62,-0.7 0.62,-0.7 0.63,-0.18 0,0.26 -0.09,0.35 -0.09,0.26z"/>
   <path id="_4_3" class="fil1" d="M288.95 291.85c1.26,0 1.62,-0.18 3.22,-1.31 2.05,-1.49 6.04,-5.76 9.21,-9.95l2.21 -2.79 0.3 1.92c0.72,5.21 2.77,8.68 6.13,10.24 0.91,0.34 1.73,0.77 1.82,0.95 0.1,0.17 0.64,0.52 1.1,0.69 1.45,0.6 3.34,0.51 4.86,-0.19 3.58,-1.58 10.2,-9.86 18.72,-23.37 2.28,-3.57 2.97,-5.22 3.04,-6.79 0.07,-1.05 -0.02,-1.31 -0.48,-1.39 -0.81,-0.17 -3.11,2.44 -5.92,6.89 -6.06,9.59 -9.14,13.77 -12.69,17.26 -2.39,2.36 -4.53,3.75 -6.24,4.19 -0.72,0.09 -0.81,0.09 -1.09,-0.6 -0.39,-1.3 -0.29,-6.35 0.2,-9.05 1.48,-8.17 5.9,-18.97 15.92,-38.92 2.97,-6.1 5.84,-11.85 6.27,-12.98l0.78 -1.92 -0.64 -0.78c-0.28,-0.43 -0.83,-0.69 -1.19,-0.69 -0.36,0 -0.63,-0.17 -0.63,-0.34 -0.01,-0.26 -0.19,-0.44 -0.28,-0.44 -0.18,0 -0.55,-0.34 -0.83,-0.86 -0.37,-0.61 -0.64,-0.78 -1.37,-0.78 -0.81,0 -1.25,0.26 -2.58,1.66 -3.46,3.58 -10.82,15.69 -16.4,26.84l-1.48 3.05 -1.37 -0.87c-0.73,-0.43 -1.83,-1.21 -2.38,-1.73 -1.64,-1.39 -2.73,-1.65 -5.16,-1.46 -4.06,0.27 -8.52,2.81 -12.15,6.65 -4.52,4.79 -8.53,12.81 -9.95,19.42 -0.67,3.13 -0.57,8.53 0.19,10.7 0.57,1.91 2.59,4.08 3.95,4.33 0.45,0.17 1.45,0.69 2.19,1.3 1.09,0.95 1.37,1.13 2.72,1.12zm48.84 -28.68c0.17,-0.26 0.35,-0.53 0.44,-0.53 0.09,0 0,0.27 -0.17,0.53 -0.18,0.35 -0.35,0.61 -0.44,0.61 -0.09,0 -0.01,-0.26 0.17,-0.61zm-49.92 18.07c-0.02,-0.86 2.38,-8.44 2.65,-8.18 0.09,0.09 -0.51,2 -1.28,4.27 -0.68,2.26 -1.28,4 -1.37,3.91zm2.04 -12.26c0.08,-0.26 0.26,-0.44 0.35,-0.35 0.09,0.08 0.01,0.35 -0.17,0.52 -0.26,0.26 -0.35,0.26 -0.18,-0.17zm17.93 4.29c-0.09,0.26 -0.25,1.3 -0.41,2.26l-0.42 1.91 0.15 -1.82c0.07,-1.05 0.24,-2 0.32,-2.26 0.26,-0.44 0.35,-0.44 0.36,-0.09zm3.83 7.9c-0.08,0.09 -0.18,-0.09 -0.18,-0.35 0.08,-0.35 0.08,-0.43 0.17,-0.17 0.1,0.17 0.1,0.43 0.01,0.52zm1.58 -7.66c-0.25,0.87 -0.67,2.61 -0.92,4 -0.25,1.31 -0.5,2.09 -0.51,1.74 -0.1,-0.95 0.9,-5.22 1.42,-6.7 0.6,-1.56 0.61,-1.04 0.01,0.96zm1.45 -10.61c0,0.08 -0.09,0.43 -0.26,0.69 -0.18,0.18 -0.27,0.26 -0.27,0.09 0,-0.09 0.08,-0.44 0.26,-0.7 0.17,-0.17 0.26,-0.26 0.27,-0.08zm3.98 -9.32c-0.08,0.26 -0.26,0.35 -0.27,0.17 0,-0.17 0.18,-0.52 0.26,-0.69 0.18,-0.27 0.27,-0.35 0.27,-0.18 0,0.18 -0.08,0.44 -0.26,0.7zm9.67 -14.82c-0.61,1.22 -0.8,1.05 -0.28,-0.17 0.27,-0.52 0.53,-0.96 0.62,-0.87 0.09,0.08 -0.08,0.52 -0.34,1.04zm1.3 -2.61c-0.34,0.7 -0.7,1.22 -0.79,1.22 -0.09,0 0.17,-0.52 0.43,-1.22 0.35,-0.61 0.71,-1.13 0.8,-1.13 0.09,0 -0.18,0.52 -0.44,1.13zm3.33 -11.4c0.18,0 -0.26,0.87 -0.87,2 -4.04,6.45 -13.03,23.78 -15.8,30.4 -1.56,3.57 -1.91,4.18 -1.92,3.57 -0.02,-0.69 2.85,-7.14 5.81,-13.15 4.88,-9.75 12.23,-22.82 12.78,-22.82zm-9.37 11.33c1.31,-2.44 2.72,-4.7 2.72,-4.36 0,0.09 -0.35,0.7 -0.7,1.31 -0.35,0.52 -1.05,1.66 -1.4,2.44 -0.44,0.78 -0.96,1.74 -1.23,2.01 -0.26,0.34 0,-0.35 0.61,-1.4zm-6.64 12.37c0.34,-0.96 5.06,-9.84 5.33,-10.1 0.18,-0.18 -0.87,2 -2.35,4.87 -2.36,4.62 -3.5,6.54 -2.98,5.23zm-0.52 1.05c0.08,-0.26 0.26,-0.44 0.35,-0.35 0.09,0.08 0.01,0.35 -0.17,0.52 -0.27,0.26 -0.35,0.26 -0.18,-0.17zm2.56 -2.97c3.66,-7.23 12.42,-22.3 12.96,-22.3 0.18,0 -0.26,0.69 -2.1,3.74 -4.38,7.15 -11.54,20.74 -14.41,27.18 -1.65,3.75 -1.64,3.92 -1.66,3.23 0,-0.53 3.03,-7.58 5.21,-11.85zm-9.25 28.56c0.24,-1.83 1.51,-6.62 2.2,-8.53 0.35,-0.96 0.78,-2.01 0.86,-2.35 0.09,-0.26 0.35,-0.7 0.62,-0.96 0.27,-0.18 0.18,0.26 -0.24,1.56 -0.44,1.05 -1.04,2.7 -1.39,3.66 -0.25,0.96 -0.93,3.13 -1.36,4.79 -0.42,1.65 -0.76,2.52 -0.69,1.83zm-0.49 -2.61c-0.25,1.13 -0.66,3.48 -0.9,5.13 -0.32,2.7 -0.41,2.79 -0.43,1.22 -0.04,-2 0.61,-6.35 1.21,-7.83 0.61,-1.57 0.71,-0.87 0.12,1.48zm-3.99 -16.68c2.15,-1.32 2.69,-1.32 3.07,-0.1 0.56,1.3 0.48,1.56 -0.9,5.22 -1.04,2.79 -1.56,3.66 -2.8,4.97 -0.89,0.95 -2.57,2.87 -3.72,4.36 -1.23,1.39 -3.44,4.01 -4.95,5.75 -1.5,1.75 -3.63,4.01 -4.69,4.97 -1.78,1.75 -1.86,1.84 -1.88,1.14 -0.02,-1.13 2.04,-7.31 3.43,-10.36 3.48,-7.32 8.25,-13.51 12.44,-15.95zm-22.26 21.55c0.15,-1.92 1.78,-6.7 3.17,-9.4 0.61,-1.22 1.23,-2.27 1.23,-2.27 0.09,0 -0.26,0.96 -0.87,2.09 -0.52,1.22 -1.47,3.66 -2.07,5.49 -0.51,1.82 -1.2,3.83 -1.37,4.35 -0.25,0.96 -0.25,0.96 -0.09,-0.26zm1.21 2.43c-0.33,1.65 -0.41,1.91 -0.43,1.13 -0.11,-1.56 0.88,-6.35 1.83,-8.96 0.95,-2.53 2.17,-5.05 3.74,-7.75 1.41,-2.36 2.65,-3.75 1.42,-1.66 -2.19,3.75 -4.1,8.1 -5.13,11.41 -0.59,1.91 -1.27,4.52 -1.43,5.83zm2.69 -6.18c1.45,-4.7 5.21,-11.59 7.96,-14.55l0.88 -0.96 -0.79 1.13c-2.2,2.97 -5.18,8.28 -6.65,11.85 -0.43,1.13 -1.2,3.22 -1.72,4.53 -1.03,3.04 -0.88,1.65 0.32,-2z"/>
   <path id="_5_4" class="fil1" d="M418.62 254.38c0.35,-0.52 0.35,-0.78 -0.02,-1.3 -0.46,-0.61 -0.55,-0.61 -1.27,-0.26 -1.25,0.61 -1.69,1.22 -2.72,3.92 -1.82,4.36 -3.84,7.76 -7.81,12.99 -5.55,7.32 -12.3,13.26 -16.7,14.66 -2.24,0.79 -2.33,0.71 -1.82,-1.04 0.77,-2.52 2.42,-5.92 5.41,-10.54 5.01,-7.75 7.78,-14.28 7.11,-16.8 -0.39,-1.57 -1.05,-3.04 -1.97,-4.08 -0.46,-0.53 -0.92,-1.22 -0.93,-1.57 0,-0.26 -0.37,-0.87 -0.83,-1.39 -1.1,-0.95 -2.55,-1.03 -4.43,-0.16 -2.86,1.32 -7.89,7.68 -19.07,23.63 -1.49,2.18 -6.35,8.2 -6.53,8.11 -0.19,-0.26 4.16,-9.75 6.34,-13.85 2.62,-5.05 3.31,-6.88 3.89,-10.1 0.24,-1.82 0.23,-2.26 -0.25,-3.56 -0.28,-0.78 -0.84,-1.91 -1.3,-2.34 -0.46,-0.52 -1.1,-1.31 -1.38,-1.83 -1.03,-1.82 -3.55,-1.9 -8.39,-0.14 -3.59,1.23 -6.55,2.11 -7.36,2.11 -0.27,0 -1.09,-0.43 -1.73,-0.95 -1.38,-1.22 -2.46,-1.3 -4.06,-0.25 -1.43,0.79 -1.61,1.13 -1.33,1.83 0.1,0.44 0.38,0.61 0.73,0.52 0.45,-0.09 0.55,0 0.47,0.52 -0.08,0.78 0.46,1.04 1.81,0.78 0.54,-0.09 1.26,-0.01 1.63,0.17 0.63,0.34 0.64,0.52 0.59,2.69 -0.2,4.26 -3.33,10.97 -7.13,15.5 -2.83,3.32 -6.92,6.63 -9.07,7.25 -0.63,0.18 -0.72,0.18 -0.57,-1.65 0.29,-3.65 2.98,-10.1 7.36,-17.59 1.4,-2.53 2.27,-4.36 2.26,-4.88 -0.01,-0.69 -0.02,-0.78 -0.46,-0.43 -0.44,0.43 -0.45,0.35 -0.1,-0.26 0.27,-0.52 0.26,-0.7 -0.29,-1.22 -0.55,-0.43 -0.55,-0.43 -1.26,0.27 -1.59,1.65 -4.94,6.27 -6.07,8.45 -1.58,2.79 -2.28,3.75 -1.32,1.75 1.74,-3.58 4.38,-7.41 6.77,-10.11 1.06,-1.14 1.14,-1.31 0.51,-1.57 -0.27,-0.09 -0.46,-0.26 -0.37,-0.44 0.18,-0.17 0.09,-0.34 -0.1,-0.34 -0.18,0 -0.27,-0.18 -0.18,-0.52 0.34,-0.96 -1.84,-1.56 -3.54,-0.86 -2.06,0.79 -5.86,5.32 -8.57,10.37 -3.75,6.97 -4.71,14.2 -2.38,18.45 1.12,2.17 1.95,3.21 3.04,3.81 0.45,0.26 1.28,1.04 1.83,1.65 1.75,2.08 3.84,2.77 6.17,1.98 5.47,-1.84 13.26,-9.96 16.83,-17.53 2,-4.18 2.51,-6.01 2.47,-8.79 0.04,-2.44 -0.24,-3.31 -1.72,-5.48l-0.56 -0.69 4.04 -0.97c4.23,-0.97 8.1,-1.51 8.1,-0.98 0.03,1.21 -2.33,5.74 -5.58,10.71 -5.8,8.72 -8.31,14.9 -7.61,18.72 0.39,2 1.52,4.43 2.24,4.78 0.37,0.17 0.83,0.78 1.02,1.3 0.28,0.52 0.83,1.21 1.2,1.47 0.72,0.44 0.81,0.35 1.8,-0.18 0.62,-0.43 2.12,-2.26 4.15,-4.97 1.67,-2.44 3.7,-5.23 4.4,-6.27 0.7,-1.05 2.46,-3.49 3.78,-5.41 4.14,-6.18 8.1,-11.42 10.14,-13.51 1.95,-1.92 4.35,-3.84 4.63,-3.67 0.18,0.18 -0.69,1.83 -2.54,4.53 -3.87,5.76 -7.71,13.25 -8.46,16.47 -0.84,3.74 0.15,9.13 1.89,10.6 0.37,0.35 0.83,1.04 1.11,1.65 0.2,0.61 0.84,1.39 1.3,1.73 3.56,2.86 13.01,-3.43 22.11,-14.59 5.48,-6.89 10.29,-15.43 10.23,-18.56 -0.01,-0.52 0.16,-1.3 0.42,-1.74zm-70.41 1.02c0.44,-0.53 -0.35,0.95 -2.11,3.65 -0.87,1.49 -2.27,4.01 -3.23,5.75 -0.88,1.75 -1.66,3.05 -1.67,2.88 -0.01,-0.7 5.85,-11.24 7.01,-12.28zm-12.28 10.12c0.35,-1.13 2.62,-5.49 4.02,-7.66 0.7,-1.05 1.85,-2.53 2.65,-3.32l1.33 -1.48 -1.41 1.92c-0.8,0.96 -2.03,2.7 -2.64,3.83 -0.71,1.14 -1.93,3.23 -2.72,4.71 -0.78,1.57 -1.31,2.44 -1.23,2zm1.37 1.04c-1.39,3.05 -1.22,1.92 0.07,-1.48 1.73,-4.18 6.39,-11.32 8.09,-12.2 0.35,-0.17 -0.08,0.52 -0.97,1.66 -2.12,2.53 -3.08,4.01 -4.75,6.97 -0.69,1.39 -1.83,3.66 -2.44,5.05zm18.84 -1.1c0.43,-0.7 0.7,-1.14 0.7,-0.96 0,0.17 -0.26,0.87 -0.7,1.57 -0.34,0.69 -0.7,1.13 -0.7,1.04 0,-0.17 0.35,-0.87 0.7,-1.65zm-1.4 2.87c0.27,-0.44 0.53,-0.78 0.62,-0.78 0,0 -0.08,0.34 -0.35,0.78 -0.26,0.52 -0.52,0.87 -0.61,0.87 -0.09,0 0.08,-0.35 0.34,-0.87zm-1.79 6.01c-2.92,3.4 -3.27,3.49 -0.54,0.09 0.8,-0.96 2.21,-2.79 3,-4.01 0.88,-1.22 1.5,-2.01 1.5,-1.84 0.01,0.35 -2.54,4.1 -3.96,5.76zm5.23 -10.89c-0.43,1.74 -2.78,6.18 -4.46,8.28 -0.97,1.3 -1.94,2.44 -2.12,2.52 -0.18,0.18 0.26,-0.52 0.96,-1.48 1.77,-2.18 3.26,-4.62 4.65,-7.58 0.61,-1.39 1.05,-2.09 0.97,-1.74zm0.43 -1.13c-0.18,0.26 -0.27,0.35 -0.27,0.17 0,-0.17 0.08,-0.52 0.26,-0.69 0.17,-0.27 0.26,-0.35 0.26,-0.18 0.01,0.18 -0.08,0.52 -0.25,0.7zm10.13 1.7c0.17,-0.35 0.35,-0.6 0.44,-0.61 0.09,0 0,0.26 -0.08,0.61 -0.18,0.35 -0.44,0.61 -0.53,0.61 -0.09,0 -0.01,-0.26 0.17,-0.61zm-1.63 4.88c0.78,-1.74 5.77,-10.37 5.95,-10.37 0.09,0 -2.35,4.62 -4.46,8.19 -1.92,3.31 -2.28,3.83 -1.49,2.18zm-1.84 3.57c0.27,-0.52 0.53,-0.96 0.53,-0.87 0.09,0.09 -0.08,0.52 -0.34,1.05 -0.61,1.13 -0.8,1.04 -0.19,-0.18zm1.83 11.65c-0.44,0.52 -0.62,0.7 -0.62,0.44 -0.01,-0.09 0.17,-0.27 0.44,-0.53 0.53,-0.35 0.53,-0.35 0.18,0.09zm1.41 -1.66c-0.26,0.26 -0.44,0.44 -0.53,0.35 -0.09,-0.09 -0.63,0.26 -1.25,0.79l-1.07 0.87 1.07 -1.13c0.53,-0.61 1.15,-1.22 1.23,-1.4 0.18,-0.17 0.18,0 0.01,0.26 -0.17,0.52 -0.17,0.52 0.36,0.18 0.54,-0.44 0.54,-0.44 0.18,0.08zm0.53 -0.87c-0.09,0.09 -0.27,0.09 -0.45,-0.09 -0.1,-0.17 -0.01,-0.34 0.17,-0.43 0.09,-0.09 0.36,0 0.45,0.08 0.1,0.18 0.01,0.35 -0.17,0.44zm1.67 -2.53c0.01,0.52 -0.08,0.52 -0.36,0.18 -0.09,-0.18 0,-0.35 0.09,-0.44 0.17,-0.08 0.27,0 0.27,0.26zm2.2 -3.22c-0.27,0.26 -0.35,0.61 -0.26,0.69 0.09,0.18 0,0.26 -0.26,0.27 -0.46,0 -0.11,-0.87 0.51,-1.22 0.27,-0.18 0.27,-0.09 0.01,0.26zm4.85 -6.02c-0.35,0.44 -0.62,0.61 -0.62,0.35 0,0 0.27,-0.26 0.53,-0.52 0.45,-0.35 0.54,-0.35 0.09,0.17zm2.29 -3.4c0,0 -0.18,0.09 -0.36,0.09 -0.27,0 -0.36,-0.17 -0.27,-0.26 0.08,-0.26 0.63,-0.09 0.63,0.17zm5.91 -7.84c-0.27,0.34 -0.54,0.43 -0.63,0.35 -0.09,0 -0.36,0.08 -0.62,0.26 -0.36,0.26 -0.36,0.26 -0.01,-0.17 0.18,-0.27 0.45,-0.44 0.54,-0.35 0.09,0.08 0.36,-0.01 0.63,-0.18 0.44,-0.35 0.44,-0.35 0.09,0.09zm2.47 -3.32c0,0.18 -0.09,0.35 -0.18,0.27 -0.09,-0.09 -0.45,0.08 -0.71,0.35 -0.45,0.34 -0.45,0.26 0.08,-0.27 0.8,-0.96 0.8,-0.96 0.81,-0.35zm1.94 -2.18c-0.53,0.53 -0.88,1.05 -0.88,1.14 0.28,0.34 -0.26,0.61 -0.53,0.35 -0.19,-0.18 1.85,-2.36 2.21,-2.36 0.18,0 -0.17,0.44 -0.8,0.87zm0.94 12.61c1.06,-1.66 2.11,-3.49 2.46,-4.01 0.26,-0.43 0.61,-0.87 0.71,-0.87 0.17,0 -0.88,1.74 -3.25,5.58 -0.96,1.56 -2.1,3.31 -2.45,3.92 -0.35,0.61 -0.71,1.13 -0.8,1.13 -0.18,0 0.79,-1.74 3.33,-5.75zm4.56 18.68c-0.17,0.26 -0.53,0.44 -0.71,0.44 -0.18,0 -0.27,0 -0.18,0 0.09,-0.09 0.35,-0.35 0.71,-0.52 0.54,-0.44 0.54,-0.44 0.18,0.08zm1.16 -0.87c-0.35,0.44 -0.62,0.61 -0.62,0.35 0,0 0.26,-0.26 0.53,-0.44 0.44,-0.43 0.44,-0.35 0.09,0.09zm1.34 -0.96c-0.36,0.35 -0.62,0.61 -0.71,0.61 -0.09,0 0.08,-0.26 0.35,-0.61 0.35,-0.35 0.62,-0.61 0.71,-0.61 0.09,0 -0.09,0.26 -0.35,0.61zm6.91 -7.24c-0.37,-0.26 -1.7,1.05 -1.42,1.48 0.09,0.17 0,0.26 -0.27,0.09 -0.45,-0.09 -0.54,-0.09 -0.35,0.35 0.09,0.26 0.09,0.43 0,0.35 -0.18,-0.09 -1.07,0.61 -2.05,1.57 -0.88,0.96 -1.5,1.65 -1.23,1.65 0.36,0 0.36,0.09 0.01,0.26 -0.27,0.18 -0.54,0.27 -0.63,0.18 -0.09,0 -0.72,0.35 -1.43,0.87 -0.71,0.62 -1.34,1.05 -1.43,1.05 -0.09,0 0.36,-0.43 0.98,-0.96 0.62,-0.43 2.57,-2.35 4.44,-4.19 2.21,-2.26 3.28,-3.14 3.46,-2.88 0.1,0.18 0.1,0.26 -0.08,0.18zm0.6 -1.4c-0.26,0.35 -0.53,0.62 -0.62,0.62 -0.09,0 0.09,-0.27 0.35,-0.62 0.27,-0.26 0.63,-0.52 0.72,-0.52 0,0 -0.09,0.26 -0.45,0.52zm1.15 -1.39c-0.26,0.26 -0.53,0.52 -0.62,0.52 -0.09,0 0.09,-0.26 0.35,-0.52 0.27,-0.35 0.62,-0.61 0.71,-0.61 0.09,0 -0.08,0.26 -0.44,0.61zm1.06 -1.4c-0.35,0.53 -0.62,0.62 -0.62,0.44 0,-0.09 0.26,-0.35 0.53,-0.52 0.44,-0.35 0.44,-0.35 0.09,0.08zm0.88 -1.13c-0.35,0.44 -0.62,0.61 -0.62,0.44 0,-0.09 0.26,-0.35 0.53,-0.53 0.45,-0.35 0.45,-0.35 0.09,0.09z"/>
   <path class="fil2" d="M97.41 361.27l6.83 -0.02 -3.51 -7.83 -3.32 7.85zm-9.59 8l12.81 -25.88 0.39 0 13.41 25.79 -6.49 0.02 -1.71 -3.63 -10.54 0.03 -1.62 3.65 -6.25 0.02z"/>
   <polygon id="_1_5" class="fil2" points="116.38,369.18 115.95,344.12 122.15,344.1 122.49,363.78 132.62,363.74 132.71,369.12 "/>
   <path id="_2_6" class="fil2" d="M197.93 334.1c-2.32,-2.26 -4.66,-3.93 -7.02,-5.03 -2.37,-1.08 -4.84,-1.62 -7.41,-1.61 -4.47,0.01 -8.1,1.51 -10.88,4.49 -2.79,2.98 -4.14,6.81 -4.06,11.46 0.08,4.67 1.55,8.44 4.42,11.32 2.86,2.88 6.55,4.32 11.08,4.3 2.67,-0.01 5.32,-0.56 7.96,-1.64 2.64,-1.09 5.26,-2.72 7.87,-4.88l-0.57 13.52c-2.24,1.48 -4.68,2.62 -7.35,3.39 -2.67,0.79 -5.45,1.18 -8.35,1.19 -3.11,0.01 -6.08,-0.45 -8.96,-1.37 -2.86,-0.93 -5.52,-2.31 -7.95,-4.12 -3.45,-2.57 -6.11,-5.7 -7.99,-9.41 -1.86,-3.7 -2.84,-7.75 -2.92,-12.12 -0.06,-3.78 0.55,-7.32 1.82,-10.62 1.29,-3.3 3.18,-6.23 5.68,-8.77 2.53,-2.54 5.47,-4.48 8.83,-5.84 3.34,-1.36 6.89,-2.04 10.63,-2.05 2.97,-0.01 5.8,0.38 8.51,1.17 2.71,0.78 5.31,1.98 7.78,3.59l-1.12 13.03z"/>
   <path id="_3_7" class="fil2" d="M217.62 343.38c0.08,4.43 1.49,8.14 4.23,11.11 2.73,2.98 6.07,4.47 9.99,4.46 3.96,-0.02 7.25,-1.51 9.87,-4.5 2.62,-2.99 3.89,-6.71 3.81,-11.16 -0.07,-4.47 -1.47,-8.2 -4.19,-11.18 -2.73,-2.98 -6.07,-4.46 -10.03,-4.45 -3.93,0.01 -7.21,1.52 -9.84,4.51 -2.63,3 -3.91,6.74 -3.84,11.21zm-12.97 0.05c-0.07,-3.78 0.54,-7.31 1.84,-10.6 1.29,-3.3 3.22,-6.24 5.8,-8.85 2.43,-2.49 5.28,-4.4 8.54,-5.73 3.25,-1.34 6.68,-2.01 10.27,-2.03 3.6,-0.01 7.05,0.65 10.37,1.97 3.32,1.32 6.27,3.24 8.87,5.74 2.61,2.5 4.61,5.38 5.99,8.67 1.38,3.28 2.11,6.84 2.17,10.65 0.06,3.19 -0.35,6.19 -1.22,9 -0.89,2.8 -2.21,5.37 -4,7.71 -2.51,3.3 -5.63,5.88 -9.35,7.71 -3.72,1.85 -7.69,2.77 -11.89,2.78 -3.56,0.02 -7,-0.64 -10.29,-1.96 -3.29,-1.32 -6.22,-3.24 -8.79,-5.74 -2.67,-2.58 -4.7,-5.51 -6.1,-8.78 -1.41,-3.26 -2.15,-6.78 -2.21,-10.54z"/>
   <polygon id="_4_8" class="fil2" points="267.73,368.68 266.82,316.11 268.03,316.1 301.42,345.71 300.94,317.65 312.57,317.61 313.49,370.48 312.39,370.48 278.89,340.87 279.37,368.65 "/>
   <path id="_5_9" class="fil2" d="M322.89 354.12c3.28,1.91 6.06,3.23 8.35,4 2.27,0.76 4.49,1.14 6.66,1.13 2.17,-0.01 3.92,-0.48 5.23,-1.41 1.3,-0.93 1.94,-2.12 1.92,-3.57 -0.04,-2.07 -2.43,-4.41 -7.19,-6.99 -0.76,-0.41 -1.35,-0.75 -1.77,-0.97l-3.6 -1.93c-3.5,-1.89 -6.11,-4.02 -7.82,-6.4 -1.72,-2.38 -2.6,-5.09 -2.65,-8.11 -0.07,-4.1 1.48,-7.46 4.64,-10.1 3.15,-2.63 7.27,-3.95 12.34,-3.97 1.88,-0.01 3.9,0.2 6.09,0.62 2.19,0.41 4.63,1.06 7.32,1.94l0.2 11.92c-2.57,-1.52 -5,-2.7 -7.31,-3.53 -2.3,-0.83 -4.24,-1.25 -5.85,-1.24 -1.78,0 -3.16,0.38 -4.17,1.12 -1.01,0.73 -1.5,1.74 -1.48,3 0.02,0.88 0.33,1.71 0.95,2.47 0.63,0.78 1.55,1.48 2.77,2.11l6.25 3.27c5.24,2.76 8.76,5.3 10.59,7.63 1.83,2.34 2.77,5.11 2.83,8.32 0.09,4.96 -1.6,8.99 -5.05,12.05 -3.47,3.07 -8.09,4.61 -13.89,4.63 -1.97,0 -4.11,-0.19 -6.43,-0.58 -2.31,-0.39 -4.87,-1 -7.64,-1.83l-1.29 -13.58z"/>
   <polygon id="_6" class="fil2" points="366.61,368.36 365.73,317.44 398.25,317.33 398.43,327.83 378.14,327.9 378.3,337.11 395.68,337.05 395.86,347.48 378.48,347.53 378.66,357.61 399.24,357.54 399.43,368.25 "/>
   <path id="_7" class="fil2" d="M402.89 357.6c1.34,0.56 2.58,0.98 3.7,1.27 1.11,0.29 2.1,0.44 2.96,0.43 2.49,-0.01 4.26,-0.8 5.3,-2.39 1.04,-1.58 1.53,-4.27 1.46,-8.06l-0.54 -31.57 12.68 -0.05 0.59 34.46c0.11,5.87 -1.38,10.37 -4.46,13.49 -3.08,3.11 -7.58,4.67 -13.5,4.69 -1.12,0 -2.24,-0.06 -3.34,-0.21 -1.1,-0.12 -2.26,-0.34 -3.45,-0.61l-1.4 -11.45z"/>
   <path id="_8" class="fil2" d="M449.69 342.63c0.07,4.42 1.48,8.13 4.22,11.11 2.73,2.98 6.07,4.46 10,4.45 3.95,-0.01 7.24,-1.51 9.86,-4.49 2.62,-3 3.89,-6.72 3.81,-11.16 -0.07,-4.47 -1.47,-8.21 -4.19,-11.19 -2.73,-2.97 -6.07,-4.46 -10.03,-4.45 -3.92,0.02 -7.21,1.53 -9.84,4.52 -2.63,2.99 -3.91,6.74 -3.83,11.21zm-12.98 0.04c-0.07,-3.78 0.54,-7.3 1.84,-10.59 1.29,-3.3 3.23,-6.24 5.8,-8.85 2.44,-2.49 5.29,-4.41 8.55,-5.74 3.24,-1.34 6.67,-2.01 10.27,-2.02 3.59,-0.01 7.04,0.65 10.36,1.97 3.32,1.31 6.27,3.24 8.87,5.73 2.61,2.5 4.61,5.38 5.99,8.67 1.39,3.28 2.11,6.84 2.17,10.65 0.06,3.19 -0.35,6.19 -1.22,9 -0.89,2.81 -2.21,5.38 -4,7.71 -2.51,3.3 -5.63,5.88 -9.35,7.71 -3.72,1.85 -7.68,2.78 -11.89,2.79 -3.56,0.01 -6.99,-0.65 -10.29,-1.97 -3.29,-1.32 -6.22,-3.24 -8.79,-5.74 -2.66,-2.58 -4.7,-5.51 -6.1,-8.78 -1.41,-3.25 -2.15,-6.78 -2.21,-10.54z"/>
  </g>
 </g>
</svg>
