<?xml version="1.0" encoding="UTF-8"?>
<!DOCTYPE svg PUBLIC "-//W3C//DTD SVG 1.1//EN" "http://www.w3.org/Graphics/SVG/1.1/DTD/svg11.dtd">
<!-- Creator: CorelDRAW 2021 (64-Bit) -->
<svg xmlns="http://www.w3.org/2000/svg" xml:space="preserve" width="200px" height="200px" version="1.1" shape-rendering="geometricPrecision" text-rendering="geometricPrecision" image-rendering="optimizeQuality" fill-rule="evenodd" clip-rule="evenodd"
viewBox="0 0 200 200"
 xmlns:xlink="http://www.w3.org/1999/xlink"
 xmlns:xodm="http://www.corel.com/coreldraw/odm/2003">
 <g id="Capa_x0020_1">
  <metadata id="CorelCorpID_0Corel-Layer"/>
  <g id="_2800892087248">
   <rect fill="none" stroke="#FEFEFE" stroke-width="10" stroke-linecap="round" stroke-linejoin="round" stroke-miterlimit="22.9256" x="8.454" y="5.249" width="183.091" height="189.501" rx="11.787" ry="20.487"/>
   <path fill="#FEFEFE" fill-rule="nonzero" d="M70.791 157.023l-22.099 0 0 -83.61c-8.066,7.581 -17.583,13.2 -28.552,16.829l0 -20.163c5.78,-1.882 12.045,-5.457 18.793,-10.754 6.774,-5.269 11.399,-11.425 13.926,-18.442l17.932 0 0 116.14z"/>
   <path id="_1" fill="#FEFEFE" fill-rule="nonzero" d="M103.24 126.402l21.454 -2.608c0.672,5.484 2.5,9.678 5.484,12.582 2.984,2.903 6.587,4.355 10.807,4.355 4.544,0 8.361,-1.747 11.48,-5.215 3.092,-3.469 4.651,-8.147 4.651,-14.061 0,-5.565 -1.479,-10.001 -4.463,-13.254 -2.984,-3.253 -6.613,-4.893 -10.915,-4.893 -2.823,0 -6.183,0.565 -10.108,1.667l2.446 -17.959c5.969,0.162 10.512,-1.156 13.657,-3.925 3.146,-2.742 4.705,-6.425 4.705,-11.022 0,-3.899 -1.156,-6.99 -3.468,-9.33 -2.312,-2.311 -5.377,-3.468 -9.221,-3.468 -3.791,0 -7.017,1.318 -9.679,3.953 -2.688,2.634 -4.301,6.479 -4.893,11.533l-20.324 -3.468c1.425,-7.044 3.549,-12.663 6.425,-16.883 2.85,-4.195 6.856,-7.501 11.964,-9.921 5.108,-2.392 10.861,-3.602 17.206,-3.602 10.861,0 19.571,3.468 26.131,10.431 5.404,5.699 8.119,12.152 8.119,19.33 0,10.162 -5.538,18.308 -16.641,24.357 6.613,1.425 11.883,4.597 15.862,9.544 3.952,4.947 5.941,10.915 5.941,17.905 0,10.135 -3.71,18.792 -11.103,25.943 -7.393,7.151 -16.588,10.727 -27.61,10.727 -10.431,0 -19.088,-3.011 -25.944,-9.06 -6.882,-6.022 -10.861,-13.899 -11.963,-23.658z"/>
  </g>
 </g>
</svg>
