<?xml version="1.0" encoding="UTF-8"?>
<!DOCTYPE svg PUBLIC "-//W3C//DTD SVG 1.1//EN" "http://www.w3.org/Graphics/SVG/1.1/DTD/svg11.dtd">
<!-- Creator: CorelDRAW 2021 (64-Bit) -->
<svg xmlns="http://www.w3.org/2000/svg" xml:space="preserve" width="500px" height="500px" version="1.1" style="shape-rendering:geometricPrecision; text-rendering:geometricPrecision; image-rendering:optimizeQuality; fill-rule:evenodd; clip-rule:evenodd"
viewBox="0 0 500 500"
 xmlns:xlink="http://www.w3.org/1999/xlink"
 xmlns:xodm="http://www.corel.com/coreldraw/odm/2003">
 <defs>
  <style type="text/css">
   <![CDATA[
    .fil2 {fill:#ED3237}
    .fil1 {fill:#EC1C24}
    .fil0 {fill:#F9AE17}
    .fil3 {fill:#FEFEFE;fill-rule:nonzero}
   ]]>
  </style>
 </defs>
 <g id="Capa_x0020_1">
  <metadata id="CorelCorpID_0Corel-Layer"/>
  <g id="_2226335930768">
   <path class="fil0" d="M169.271 266.817l56.818 0.239 14.632 -117.565c28.151,-2.068 46.468,1.093 54.516,22.793 6.851,18.472 2.449,49.481 -4.632,66.148 -7.368,17.342 -20.121,32.28 -42.106,35.217 -22.562,3.013 -18.287,-7.549 -21.32,17.867 -1.226,10.272 -3.954,25.151 -3.885,34.881 83.643,4.856 136.021,-50.409 136.21,-130.957 0.108,-45.489 -15.393,-73.693 -45.766,-88.753 -17.28,-8.568 -35.037,-9.808 -56.354,-9.806 -20.953,0.001 -46.623,-1.329 -66.993,0.155l-21.12 169.781z"/>
   <path class="fil0" d="M99.02 299.491c3.391,-7.281 -2.349,-13.476 -5.447,-20.54 -10.578,-24.126 -15.154,-46.046 -14.874,-73.714 0.926,-91.468 80.343,-175.155 184.307,-168.108 69.749,4.728 117.55,47.967 141.253,93.691 22.63,43.655 25.159,97.202 5.431,144.464 -1.869,4.479 -10.729,18.473 -0.47,19.309 7.336,0.597 9.979,-11.289 12.347,-17.197 26.884,-67.062 10.126,-136.54 -26.423,-182.527 -30.698,-38.625 -87.872,-76.883 -164.186,-68.772 -68.65,7.297 -115.947,49.171 -141.11,93.853 -28.5,50.608 -30.222,112.589 -5.733,166.501 3.707,8.16 5.054,16.13 14.905,13.04z"/>
   <path class="fil1" d="M216.583 326.085l7.155 -53.105 -55.454 -0.078c-4.311,22.669 -8.26,53.193 21.478,53.655 6.198,0.096 21.582,0.649 26.821,-0.472z"/>
   <rect class="fil2" transform="matrix(0.489519 -0 -0.147015 0.470055 76.9376 437.499)" width="727.753" height="79.781"/>
   <path class="fil3" d="M134.128 451.144l-0.542 4.054 -4.054 0 0.542 -4.054 4.054 0zm-1.618 5.533l-0.381 10.73 -0.667 4.981 -4.38 0 0.667 -4.981 2.487 -10.73 2.274 0z"/>
   <polygon id="_1" class="fil3" points="142.482,466.5 137.739,445.315 142.374,445.315 145.655,460.997 152.918,445.315 157.475,445.315 147.103,466.5 "/>
   <path id="_2" class="fil3" d="M173.688 466.5l-4.62 0 -1.184 -4.823 -8.496 0 -2.408 4.823 -4.536 0 11.062 -21.185 4.532 0 5.65 21.185zm-6.715 -8.403l-1.895 -7.841 -3.91 7.841 5.805 0z"/>
   <polygon id="_3" class="fil3" points="175.912,466.5 178.749,445.315 185.175,445.315 187.037,459.764 192.725,445.315 199.165,445.315 196.328,466.5 192.364,466.5 194.582,449.823 188.172,466.5 184.05,466.5 182.125,449.823 179.877,466.5 "/>
   <path id="_4" class="fil3" d="M201.132 456.036c0.289,-2.16 0.859,-3.975 1.701,-5.445 0.622,-1.079 1.413,-2.051 2.362,-2.909 0.948,-0.858 1.946,-1.494 2.993,-1.914 1.396,-0.556 2.957,-0.838 4.683,-0.838 3.127,0 5.493,0.972 7.111,2.91 1.614,1.943 2.19,4.641 1.728,8.097 -0.459,3.428 -1.75,6.11 -3.868,8.043 -2.119,1.939 -4.739,2.905 -7.851,2.905 -3.151,0 -5.532,-0.962 -7.133,-2.89 -1.602,-1.923 -2.179,-4.576 -1.726,-7.959zm4.428 -0.143c-0.321,2.402 -0.008,4.221 0.935,5.464 0.945,1.237 2.272,1.859 3.978,1.859 1.711,0 3.194,-0.616 4.458,-1.845 1.26,-1.232 2.054,-3.076 2.384,-5.537 0.326,-2.431 0.036,-4.246 -0.875,-5.44 -0.905,-1.198 -2.24,-1.794 -4.01,-1.794 -1.766,0 -3.272,0.606 -4.514,1.814 -1.242,1.213 -2.029,3.038 -2.356,5.479z"/>
   <path id="_5" class="fil3" d="M223.429 459.636l4.227 -0.414c0.065,1.395 0.432,2.416 1.108,3.072 0.676,0.656 1.663,0.981 2.96,0.981 1.371,0 2.446,-0.291 3.219,-0.872 0.773,-0.583 1.214,-1.263 1.319,-2.042 0.067,-0.503 -0.024,-0.927 -0.268,-1.283 -0.243,-0.349 -0.716,-0.655 -1.411,-0.911 -0.474,-0.178 -1.568,-0.484 -3.283,-0.928 -2.207,-0.572 -3.716,-1.272 -4.527,-2.106 -1.14,-1.168 -1.596,-2.593 -1.371,-4.275 0.145,-1.08 0.587,-2.096 1.32,-3.038 0.738,-0.942 1.711,-1.656 2.926,-2.15 1.215,-0.493 2.629,-0.74 4.256,-0.74 2.648,0 4.567,0.587 5.745,1.766 1.184,1.178 1.674,2.747 1.48,4.714l-4.31 0.148c-0.036,-1.095 -0.32,-1.879 -0.853,-2.357 -0.533,-0.479 -1.398,-0.72 -2.592,-0.72 -1.232,0 -2.233,0.256 -2.997,0.769 -0.493,0.33 -0.779,0.77 -0.853,1.322 -0.067,0.503 0.088,0.932 0.464,1.287 0.476,0.459 1.72,0.932 3.729,1.425 2.012,0.488 3.476,1.001 4.398,1.524 0.925,0.527 1.609,1.243 2.049,2.155 0.44,0.912 0.571,2.037 0.392,3.373 -0.163,1.213 -0.651,2.352 -1.468,3.412 -0.818,1.061 -1.875,1.85 -3.177,2.363 -1.302,0.518 -2.875,0.774 -4.714,0.774 -2.678,0 -4.652,-0.616 -5.922,-1.854 -1.269,-1.233 -1.881,-3.033 -1.846,-5.395z"/>
   <path id="_6" class="fil3" d="M262.031 445.315l4.29 0 -1.797 13.423c-0.235,1.756 -0.569,3.107 -1.006,4.054 -0.58,1.233 -1.462,2.224 -2.652,2.974 -1.184,0.744 -2.67,1.119 -4.455,1.119 -2.091,0 -3.621,-0.582 -4.589,-1.751 -0.972,-1.168 -1.31,-2.884 -1.017,-5.143l4.117 -0.473c-0.113,1.208 -0.054,2.061 0.185,2.559 0.357,0.76 1.001,1.139 1.938,1.139 0.942,0 1.649,-0.271 2.112,-0.819 0.462,-0.542 0.81,-1.671 1.04,-3.387l1.834 -13.695z"/>
   <path id="_7" class="fil3" d="M270.883 445.315l4.29 0 -1.537 11.48c-0.244,1.825 -0.348,3.004 -0.316,3.541 0.066,0.868 0.401,1.568 1.012,2.091 0.615,0.528 1.512,0.789 2.696,0.789 1.198,0 2.138,-0.247 2.817,-0.744 0.678,-0.499 1.124,-1.105 1.344,-1.83 0.221,-0.725 0.444,-1.923 0.669,-3.6l1.57 -11.727 4.291 0 -1.492 11.14c-0.34,2.545 -0.695,4.345 -1.067,5.395 -0.373,1.05 -0.916,1.938 -1.634,2.663 -0.714,0.725 -1.618,1.297 -2.711,1.726 -1.098,0.429 -2.479,0.646 -4.15,0.646 -2.018,0 -3.515,-0.232 -4.493,-0.7 -0.978,-0.469 -1.72,-1.075 -2.227,-1.825 -0.506,-0.749 -0.796,-1.529 -0.878,-2.352 -0.119,-1.214 -0.016,-3.008 0.301,-5.38l1.515 -11.313z"/>
   <polygon id="_8" class="fil3" points="289.415,466.5 292.251,445.315 296.403,445.315 303.221,459.512 305.122,445.315 309.086,445.315 306.25,466.5 301.965,466.5 295.243,452.574 293.379,466.5 "/>
   <polygon id="_9" class="fil3" points="315.546,466.5 317.903,448.895 311.63,448.895 312.109,445.315 328.916,445.315 328.436,448.895 322.193,448.895 319.836,466.5 "/>
   <path id="_10" class="fil3" d="M328.837 456.036c0.289,-2.16 0.858,-3.975 1.7,-5.445 0.623,-1.079 1.414,-2.051 2.362,-2.909 0.949,-0.858 1.946,-1.494 2.993,-1.914 1.396,-0.556 2.958,-0.838 4.684,-0.838 3.126,0 5.492,0.972 7.111,2.91 1.614,1.943 2.189,4.641 1.727,8.097 -0.459,3.428 -1.75,6.11 -3.868,8.043 -2.119,1.939 -4.739,2.905 -7.85,2.905 -3.151,0 -5.533,-0.962 -7.134,-2.89 -1.601,-1.923 -2.178,-4.576 -1.725,-7.959zm4.428 -0.143c-0.322,2.402 -0.008,4.221 0.935,5.464 0.944,1.237 2.271,1.859 3.978,1.859 1.71,0 3.193,-0.616 4.458,-1.845 1.259,-1.232 2.054,-3.076 2.383,-5.537 0.326,-2.431 0.036,-4.246 -0.874,-5.44 -0.905,-1.198 -2.241,-1.794 -4.011,-1.794 -1.766,0 -3.272,0.606 -4.513,1.814 -1.243,1.213 -2.03,3.038 -2.356,5.479z"/>
   <path id="_11" class="fil3" d="M351.133 459.636l4.227 -0.414c0.065,1.395 0.432,2.416 1.108,3.072 0.676,0.656 1.664,0.981 2.961,0.981 1.37,0 2.445,-0.291 3.218,-0.872 0.774,-0.583 1.215,-1.263 1.319,-2.042 0.068,-0.503 -0.024,-0.927 -0.267,-1.283 -0.244,-0.349 -0.716,-0.655 -1.412,-0.911 -0.474,-0.178 -1.567,-0.484 -3.283,-0.928 -2.207,-0.572 -3.716,-1.272 -4.527,-2.106 -1.14,-1.168 -1.595,-2.593 -1.37,-4.275 0.144,-1.08 0.587,-2.096 1.319,-3.038 0.738,-0.942 1.711,-1.656 2.926,-2.15 1.215,-0.493 2.629,-0.74 4.256,-0.74 2.648,0 4.567,0.587 5.746,1.766 1.184,1.178 1.673,2.747 1.479,4.714l-4.31 0.148c-0.036,-1.095 -0.32,-1.879 -0.853,-2.357 -0.533,-0.479 -1.398,-0.72 -2.591,-0.72 -1.233,0 -2.234,0.256 -2.997,0.769 -0.494,0.33 -0.779,0.77 -0.853,1.322 -0.067,0.503 0.087,0.932 0.463,1.287 0.476,0.459 1.72,0.932 3.73,1.425 2.011,0.488 3.476,1.001 4.397,1.524 0.925,0.527 1.609,1.243 2.049,2.155 0.441,0.912 0.571,2.037 0.392,3.373 -0.162,1.213 -0.65,2.352 -1.468,3.412 -0.817,1.061 -1.875,1.85 -3.176,2.363 -1.303,0.518 -2.876,0.774 -4.715,0.774 -2.678,0 -4.652,-0.616 -5.921,-1.854 -1.27,-1.233 -1.882,-3.033 -1.847,-5.395z"/>
   <path id="_12" class="fil3" d="M373.341 461.056l0.391 -10.765 0.667 -4.976 4.378 0 -0.666 4.976 -2.476 10.765 -2.294 0zm-1.601 5.444l0.543 -4.053 4.053 0 -0.543 4.053 -4.053 0z"/>
   <path class="fil3" d="M96.806 310.365l12.329 -8.719 2.7 3.816c1.022,1.445 1.628,2.429 1.814,2.955 0.291,0.807 0.29,1.657 -0.009,2.55 -0.298,0.894 -0.937,1.689 -1.919,2.383 -0.757,0.536 -1.484,0.852 -2.185,0.958 -0.703,0.101 -1.343,0.056 -1.924,-0.139 -0.578,-0.196 -1.064,-0.47 -1.454,-0.82 -0.519,-0.484 -1.16,-1.262 -1.92,-2.338l-1.095 -1.547 -4.649 3.288 -1.688 -2.387zm11.934 -4.859l-3.513 2.484 0.918 1.298c0.662,0.936 1.168,1.512 1.52,1.736 0.353,0.224 0.728,0.329 1.132,0.311 0.402,-0.017 0.785,-0.152 1.152,-0.412 0.45,-0.318 0.732,-0.706 0.848,-1.163 0.115,-0.46 0.075,-0.905 -0.125,-1.344 -0.144,-0.322 -0.518,-0.91 -1.123,-1.766l-0.809 -1.144zm2.988 24.856l-1.939 -2.481 1.942 -3.099 -3.566 -4.562 -3.448 1.172 -1.904 -2.436 15.35 -4.884 1.902 2.434 -8.337 13.856zm1.429 -7.898l3.169 -5.022 -5.604 1.905 2.435 3.117zm-0.347 9.032l10.957 -10.391 4.225 4.455c1.061,1.12 1.734,2.028 2.019,2.722 0.287,0.696 0.321,1.432 0.107,2.213 -0.216,0.784 -0.644,1.482 -1.292,2.096 -0.824,0.781 -1.719,1.195 -2.692,1.243 -0.973,0.047 -1.962,-0.322 -2.972,-1.105 0.155,0.719 0.205,1.385 0.15,1.996 -0.051,0.615 -0.266,1.579 -0.642,2.889l-0.926 3.304 -2.398 -2.528 0.955 -3.786c0.333,-1.349 0.515,-2.23 0.545,-2.643 0.03,-0.408 -0.019,-0.765 -0.149,-1.067 -0.134,-0.304 -0.431,-0.699 -0.893,-1.187l-0.407 -0.429 -4.576 4.339 -2.011 -2.121zm8.332 -3.872l1.484 1.565c0.962,1.015 1.607,1.603 1.937,1.772 0.327,0.166 0.672,0.219 1.025,0.152 0.357,-0.064 0.699,-0.255 1.028,-0.566 0.37,-0.351 0.575,-0.727 0.627,-1.133 0.049,-0.402 -0.06,-0.803 -0.325,-1.201 -0.139,-0.197 -0.614,-0.724 -1.426,-1.579l-1.565 -1.652 -2.785 2.642zm4.128 16.586l8.685 -9.059 -3.086 -2.958 1.766 -1.842 8.268 7.925 -1.767 1.842 -3.071 -2.944 -8.684 9.059 -2.111 -2.023zm6.678 5.985l9.918 -11.388 2.205 1.92 -9.918 11.388 -2.205 -1.92zm13.017 -8.439l4.325 3.092c0.976,0.697 1.664,1.306 2.063,1.829 0.535,0.702 0.855,1.502 0.956,2.395 0.106,0.892 0.004,1.821 -0.302,2.792 -0.306,0.965 -0.87,2.026 -1.692,3.176 -0.724,1.011 -1.466,1.795 -2.229,2.355 -0.933,0.686 -1.868,1.111 -2.807,1.274 -0.711,0.127 -1.499,0.056 -2.364,-0.208 -0.646,-0.199 -1.405,-0.612 -2.279,-1.237l-4.454 -3.184 8.783 -12.284zm0.894 3.776l-5.814 8.132 1.763 1.261c0.659,0.471 1.163,0.771 1.511,0.903 0.457,0.175 0.897,0.231 1.319,0.171 0.427,-0.059 0.914,-0.307 1.465,-0.743 0.554,-0.434 1.171,-1.129 1.85,-2.078 0.678,-0.949 1.118,-1.732 1.321,-2.357 0.205,-0.623 0.263,-1.177 0.181,-1.668 -0.085,-0.488 -0.309,-0.943 -0.681,-1.359 -0.273,-0.313 -0.892,-0.816 -1.854,-1.504l-1.061 -0.758zm5.703 10.378c0.834,-1.295 1.722,-2.262 2.659,-2.904 0.691,-0.47 1.444,-0.809 2.253,-1.015 0.809,-0.206 1.578,-0.251 2.307,-0.136 0.972,0.154 1.954,0.548 2.942,1.186 1.791,1.154 2.845,2.657 3.173,4.512 0.323,1.856 -0.182,3.819 -1.518,5.889 -1.323,2.054 -2.893,3.317 -4.704,3.788 -1.814,0.475 -3.613,0.135 -5.396,-1.014 -1.804,-1.163 -2.871,-2.666 -3.191,-4.508 -0.323,-1.838 0.168,-3.772 1.475,-5.798zm2.58 1.541c-0.927,1.439 -1.31,2.735 -1.155,3.889 0.157,1.151 0.725,2.044 1.703,2.674 0.98,0.632 2.02,0.78 3.124,0.45 1.103,-0.334 2.129,-1.238 3.079,-2.712 0.939,-1.456 1.335,-2.74 1.183,-3.85 -0.147,-1.111 -0.727,-1.991 -1.742,-2.645 -1.011,-0.652 -2.061,-0.814 -3.146,-0.49 -1.087,0.329 -2.103,1.222 -3.046,2.684zm18.313 2.403l4.84 2.2c1.092,0.496 1.885,0.961 2.377,1.397 0.661,0.586 1.129,1.309 1.401,2.166 0.275,0.855 0.354,1.786 0.241,2.797 -0.114,1.006 -0.463,2.157 -1.048,3.443 -0.515,1.132 -1.091,2.044 -1.733,2.741 -0.783,0.853 -1.619,1.45 -2.508,1.791 -0.674,0.262 -1.46,0.344 -2.36,0.252 -0.673,-0.07 -1.496,-0.329 -2.475,-0.774l-4.984 -2.266 6.249 -13.747zm1.606 3.533l-4.137 9.101 1.973 0.897c0.737,0.335 1.29,0.532 1.657,0.595 0.482,0.084 0.924,0.053 1.328,-0.088 0.406,-0.14 0.837,-0.477 1.293,-1.01 0.46,-0.533 0.931,-1.334 1.415,-2.396 0.483,-1.063 0.763,-1.916 0.841,-2.568 0.082,-0.65 0.032,-1.206 -0.144,-1.671 -0.177,-0.463 -0.485,-0.866 -0.93,-1.203 -0.328,-0.253 -1.032,-0.628 -2.109,-1.118l-1.187 -0.539zm5.408 16.224l5.565 -14.038 9.934 3.939 -0.94 2.372 -7.217 -2.861 -1.235 3.117 6.709 2.661 -0.94 2.372 -6.71 -2.66 -1.508 3.804 7.479 2.964 -0.941 2.373 -10.196 -4.043zm12.484 4.919l4.146 -14.52 4.21 1.201 -0.339 10.615 5.286 -9.202 4.22 1.205 -4.145 14.521 -2.599 -0.742 3.255 -11.434 -6.001 10.65 -2.702 -0.772 0.54 -12.209 -3.273 11.429 -2.598 -0.742zm16.9 -2.726c0.273,-1.515 0.72,-2.75 1.338,-3.702 0.456,-0.701 1.022,-1.302 1.689,-1.804 0.668,-0.502 1.359,-0.838 2.077,-1.013 0.957,-0.232 2.014,-0.246 3.172,-0.038 2.097,0.377 3.648,1.359 4.664,2.945 1.012,1.589 1.301,3.594 0.866,6.02 -0.432,2.404 -1.395,4.174 -2.886,5.306 -1.492,1.137 -3.283,1.515 -5.37,1.14 -2.114,-0.38 -3.676,-1.357 -4.68,-2.934 -1.005,-1.573 -1.296,-3.547 -0.87,-5.92zm2.976 0.431c-0.303,1.684 -0.158,3.028 0.429,4.034 0.588,1.002 1.456,1.608 2.6,1.813 1.148,0.206 2.165,-0.058 3.057,-0.786 0.89,-0.733 1.49,-1.962 1.799,-3.688 0.307,-1.705 0.178,-3.043 -0.39,-4.009 -0.562,-0.969 -1.436,-1.559 -2.625,-1.772 -1.183,-0.212 -2.216,0.042 -3.092,0.759 -0.877,0.721 -1.471,1.936 -1.778,3.649zm3.797 -8.372l1.894 -2.789 3.036 0.545 -3.224 2.55 -1.706 -0.306zm17.814 13.761l2.685 1.258c-0.641,1.594 -1.514,2.726 -2.616,3.4 -1.102,0.671 -2.42,0.91 -3.957,0.714 -1.903,-0.243 -3.38,-1.123 -4.433,-2.64 -1.049,-1.516 -1.425,-3.453 -1.123,-5.813 0.318,-2.493 1.183,-4.354 2.589,-5.577 1.406,-1.224 3.115,-1.707 5.121,-1.451 1.754,0.224 3.107,0.951 4.062,2.174 0.571,0.725 0.941,1.708 1.113,2.953l-2.951 0.346c-0.07,-0.796 -0.345,-1.454 -0.825,-1.973 -0.482,-0.519 -1.107,-0.826 -1.874,-0.924 -1.063,-0.135 -1.977,0.152 -2.739,0.866 -0.765,0.71 -1.26,1.958 -1.487,3.743 -0.242,1.89 -0.088,3.281 0.459,4.166 0.551,0.889 1.346,1.398 2.389,1.532 0.77,0.098 1.467,-0.072 2.085,-0.513 0.619,-0.442 1.121,-1.193 1.502,-2.261zm4.602 6.039l0.384 -15.097 6.137 0.157c1.542,0.039 2.661,0.204 3.353,0.493 0.695,0.288 1.241,0.784 1.643,1.487 0.402,0.706 0.594,1.502 0.571,2.394 -0.029,1.135 -0.369,2.062 -1.022,2.784 -0.654,0.722 -1.613,1.162 -2.881,1.323 0.618,0.399 1.125,0.834 1.52,1.305 0.398,0.47 0.928,1.303 1.59,2.494l1.685 2.989 -3.483 -0.088 -2.005 -3.349c-0.72,-1.19 -1.216,-1.94 -1.487,-2.253 -0.267,-0.31 -0.554,-0.528 -0.86,-0.648 -0.31,-0.12 -0.799,-0.189 -1.471,-0.206l-0.591 -0.015 -0.16 6.304 -2.923 -0.074zm3.144 -8.634l2.157 0.055c1.398,0.035 2.269,-0.005 2.622,-0.12 0.348,-0.114 0.63,-0.321 0.832,-0.618 0.206,-0.298 0.313,-0.675 0.325,-1.128 0.013,-0.51 -0.108,-0.92 -0.359,-1.243 -0.25,-0.32 -0.612,-0.526 -1.08,-0.619 -0.237,-0.041 -0.945,-0.076 -2.125,-0.106l-2.275 -0.058 -0.097 3.837zm24.413 8.57l-3.147 0.08 -1.334 -3.405 -5.788 0.147 -1.112 3.467 -3.091 0.078 5.22 -15.238 3.087 -0.079 6.165 14.95zm-5.493 -5.852l-2.148 -5.537 -1.806 5.637 3.954 -0.1zm8.778 5.338l-1.59 -12.448 -4.24 0.542 -0.323 -2.531 11.359 -1.452 0.324 2.531 -4.221 0.539 1.591 12.448 -2.9 0.371zm20.33 -3.152l-3.099 0.556 -1.835 -3.163 -5.698 1.024 -0.574 3.596 -3.042 0.546 2.847 -15.854 3.04 -0.546 8.361 13.841zm-6.317 -4.951l-2.963 -5.146 -0.93 5.845 3.893 -0.699zm19.907 -4.421l2.962 0.097c0.04,1.718 -0.316,3.102 -1.063,4.157 -0.748,1.05 -1.866,1.79 -3.355,2.215 -1.846,0.527 -3.549,0.3 -5.115,-0.678 -1.562,-0.98 -2.671,-2.612 -3.324,-4.9 -0.69,-2.416 -0.629,-4.467 0.181,-6.146 0.81,-1.679 2.19,-2.797 4.135,-3.352 1.699,-0.485 3.23,-0.352 4.59,0.396 0.811,0.442 1.538,1.199 2.187,2.275l-2.576 1.481c-0.379,-0.703 -0.891,-1.2 -1.536,-1.488 -0.647,-0.286 -1.343,-0.322 -2.086,-0.11 -1.031,0.295 -1.758,0.919 -2.176,1.876 -0.423,0.954 -0.386,2.296 0.108,4.027 0.523,1.832 1.213,3.05 2.065,3.647 0.856,0.6 1.788,0.754 2.8,0.466 0.746,-0.214 1.319,-0.644 1.713,-1.294 0.395,-0.65 0.56,-1.538 0.49,-2.669zm3.349 -2.823c-0.568,-1.432 -0.838,-2.716 -0.815,-3.852 0.019,-0.836 0.183,-1.645 0.485,-2.424 0.303,-0.777 0.713,-1.428 1.231,-1.955 0.691,-0.701 1.582,-1.27 2.676,-1.704 1.981,-0.785 3.817,-0.767 5.516,0.045 1.698,0.817 3,2.369 3.908,4.66 0.9,2.27 1.014,4.282 0.344,6.03 -0.668,1.751 -1.991,3.017 -3.963,3.799 -1.996,0.791 -3.839,0.784 -5.523,-0.026 -1.683,-0.808 -2.971,-2.332 -3.859,-4.573zm2.755 -1.202c0.631,1.591 1.462,2.657 2.491,3.201 1.028,0.542 2.085,0.6 3.166,0.171 1.084,-0.43 1.809,-1.19 2.183,-2.28 0.37,-1.092 0.232,-2.452 -0.414,-4.082 -0.639,-1.611 -1.453,-2.68 -2.445,-3.202 -0.989,-0.526 -2.042,-0.566 -3.164,-0.121 -1.118,0.443 -1.862,1.203 -2.228,2.275 -0.366,1.074 -0.23,2.42 0.411,4.038zm15.167 1.999l-6.198 -13.632 2.662 -1.21 5.141 11.309 6.59 -2.996 1.056 2.323 -9.251 4.206zm6.839 -11.323c-0.77,-1.334 -1.226,-2.565 -1.369,-3.691 -0.103,-0.83 -0.06,-1.655 0.126,-2.469 0.185,-0.814 0.496,-1.518 0.932,-2.114 0.581,-0.795 1.379,-1.488 2.397,-2.076 1.845,-1.067 3.663,-1.319 5.463,-0.763 1.8,0.559 3.315,1.905 4.548,4.038 1.223,2.115 1.63,4.088 1.223,5.915 -0.406,1.83 -1.53,3.277 -3.366,4.338 -1.859,1.074 -3.683,1.337 -5.468,0.781 -1.783,-0.553 -3.279,-1.872 -4.486,-3.959zm2.55 -1.593c0.857,1.482 1.835,2.415 2.933,2.804 1.096,0.385 2.15,0.287 3.156,-0.294 1.01,-0.584 1.616,-1.442 1.827,-2.575 0.206,-1.134 -0.129,-2.459 -1.007,-3.978 -0.867,-1.5 -1.829,-2.438 -2.886,-2.809 -1.056,-0.377 -2.104,-0.262 -3.149,0.342 -1.041,0.602 -1.665,1.462 -1.872,2.576 -0.204,1.117 0.127,2.428 0.998,3.934zm15.309 -0.011l-8.784 -12.284 3.563 -2.547 8.094 6.873 -3.91 -9.865 3.571 -2.553 8.782 12.285 -2.197 1.571 -6.922 -9.665 4.598 11.327 -2.285 1.633 -9.219 -8.023 6.906 9.677 -2.197 1.571zm4.257 -21.74l4.53 -3.58c0.9,-0.71 1.596,-1.199 2.098,-1.469 0.506,-0.271 1.028,-0.418 1.569,-0.448 0.545,-0.026 1.094,0.072 1.651,0.3 0.556,0.228 1.039,0.6 1.442,1.11 0.436,0.552 0.697,1.174 0.776,1.86 0.082,0.688 -0.034,1.339 -0.339,1.956 0.856,-0.331 1.667,-0.39 2.44,-0.176 0.77,0.216 1.425,0.666 1.968,1.353 0.427,0.54 0.723,1.158 0.886,1.858 0.163,0.7 0.159,1.367 -0.016,2.002 -0.174,0.63 -0.537,1.222 -1.09,1.775 -0.347,0.341 -1.246,1.096 -2.694,2.259l-3.858 3.048 -9.363 -11.848zm3.85 0.157l2.158 2.73 1.497 -1.184c0.889,-0.702 1.432,-1.153 1.626,-1.351 0.353,-0.355 0.551,-0.74 0.589,-1.151 0.039,-0.413 -0.092,-0.806 -0.392,-1.187 -0.29,-0.367 -0.621,-0.584 -0.994,-0.661 -0.374,-0.076 -0.77,0.012 -1.187,0.265 -0.249,0.152 -0.911,0.653 -1.984,1.501l-1.313 1.038zm3.714 4.699l2.51 3.177 2.12 -1.675c0.823,-0.65 1.328,-1.089 1.513,-1.311 0.287,-0.335 0.44,-0.711 0.455,-1.131 0.013,-0.422 -0.142,-0.841 -0.476,-1.263 -0.283,-0.359 -0.603,-0.595 -0.965,-0.712 -0.359,-0.119 -0.743,-0.111 -1.143,0.022 -0.401,0.132 -1.124,0.61 -2.166,1.433l-1.848 1.46zm12.913 -2.254l-10.45 -10.901 2.11 -2.024 10.45 10.901 -2.11 2.024zm13.191 -13.258l-2.167 2.285 -3.352 -1.462 -3.984 4.202 1.669 3.236 -2.127 2.244 -7.102 -14.458 2.126 -2.242 14.937 6.195zm-8.023 -0.244l-5.436 -2.39 2.714 5.26 2.722 -2.87zm9.023 -0.949l-11.441 -9.857 1.847 -2.144 11.544 2.105 -7.666 -6.605 1.763 -2.048 11.441 9.857 -1.906 2.213 -11.34 -2.048 7.521 6.48 -1.763 2.047zm2.822 -15.047c-1.257,-0.889 -2.185,-1.817 -2.786,-2.781 -0.441,-0.711 -0.746,-1.479 -0.917,-2.296 -0.172,-0.817 -0.183,-1.586 -0.037,-2.31 0.196,-0.964 0.632,-1.928 1.311,-2.888 1.23,-1.74 2.777,-2.728 4.645,-2.976 1.868,-0.242 3.806,0.346 5.818,1.769 1.995,1.411 3.189,3.034 3.583,4.864 0.396,1.832 -0.021,3.615 -1.246,5.347 -1.24,1.752 -2.787,2.753 -4.641,2.994 -1.851,0.243 -3.761,-0.331 -5.73,-1.723zm1.652 -2.512c1.397,0.988 2.676,1.428 3.835,1.322 1.157,-0.108 2.074,-0.637 2.745,-1.586 0.674,-0.953 0.866,-1.986 0.584,-3.103 -0.287,-1.116 -1.145,-2.18 -2.577,-3.192 -1.415,-1.001 -2.68,-1.452 -3.796,-1.347 -1.117,0.099 -2.021,0.64 -2.718,1.626 -0.694,0.982 -0.902,2.024 -0.624,3.122 0.281,1.1 1.13,2.153 2.551,3.158z"/>
  </g>
 </g>
</svg>
